<svg xmlns="http://www.w3.org/2000/svg" id="_圖層_1" data-name="圖層_1" version="1.1" viewBox="0 0 291.3 139.8"><defs><style>.st0{fill:#1877f2}.st2{fill:#fff}</style></defs><path d="M0 0h291.3v139.8H0z" class="st2"/><path d="M0 0h291.3v139.8H0z" style="opacity:.2;fill:#1877f2"/><path d="M287.4 3.9v132H3.9V3.9h283.5m3.9-3.9H0v139.8h291.3V0Z" class="st0"/><circle cx="52.8" cy="44.4" r="32.9" class="st2"/><path d="M44.3 11.5c-18.2 0-32.9 14.8-32.9 33.1s12.8 31 29.2 32.8v-.2l-.1-23.6h-7.2v-9.1h7.2s.2-5 .2-7.2 0-6.6 4.7-10.4c4.7-3.8 15.5-1.6 15.5-1.6v7.8h-5.8c-1.9.1-3 .9-4.1 1.5-1.1.6-1.2 3.9-1.2 3.9v5.7l9.6.3-1.4 8.9h-6.4v23.1C66.3 73.2 77.3 60 77.3 44.3s-14.8-32.8-33-32.8Z"/><circle cx="105.9" cy="34.9" r="1.9" class="st0"/><circle cx="129" cy="34.9" r="1.9" class="st0"/><circle cx="152" cy="34.9" r="1.9" class="st0"/><circle cx="175" cy="34.9" r="1.9" class="st0"/><circle cx="198" cy="34.9" r="1.9" class="st0"/><circle cx="221" cy="34.9" r="1.9" class="st0"/><circle cx="244.1" cy="34.9" r="1.9" class="st0"/><circle cx="267.1" cy="34.9" r="1.9" class="st0"/><circle cx="105.9" cy="19.7" r="1.9" class="st0"/><circle cx="129" cy="19.7" r="1.9" class="st0"/><circle cx="152" cy="19.7" r="1.9" class="st0"/><circle cx="175" cy="19.7" r="1.9" class="st0"/><circle cx="198" cy="19.7" r="1.9" class="st0"/><circle cx="221" cy="19.7" r="1.9" class="st0"/><circle cx="244.1" cy="19.7" r="1.9" class="st0"/><circle cx="267.1" cy="19.7" r="1.9" class="st0"/><circle cx="105.9" cy="50.1" r="1.9" class="st0"/><circle cx="129" cy="50.1" r="1.9" class="st0"/><circle cx="152" cy="50.1" r="1.9" class="st0"/><circle cx="175" cy="50.1" r="1.9" class="st0"/><circle cx="198" cy="50.1" r="1.9" class="st0"/><circle cx="221" cy="50.1" r="1.9" class="st0"/><circle cx="244.1" cy="50.1" r="1.9" class="st0"/><circle cx="267.1" cy="50.1" r="1.9" class="st0"/><circle cx="105.9" cy="65.3" r="1.9" class="st0"/><circle cx="129" cy="65.3" r="1.9" class="st0"/><circle cx="152" cy="65.3" r="1.9" class="st0"/><circle cx="175" cy="65.3" r="1.9" class="st0"/><circle cx="198" cy="65.3" r="1.9" class="st0"/><circle cx="221" cy="65.3" r="1.9" class="st0"/><circle cx="244.1" cy="65.3" r="1.9" class="st0"/><circle cx="267.1" cy="65.3" r="1.9" class="st0"/></svg>