<svg xmlns="http://www.w3.org/2000/svg" id="_圖層_1" version="1.1" viewBox="0 0 360.3 139.8"><defs><style>.st0{fill:#00b900}.st2{fill:#fff}</style></defs><path d="M0 0h360.3v139.8H0V0Z" class="st2"/><path d="M0 0h360.3v139.8H0V0Z" style="isolation:isolate;opacity:.2;fill:#00b900"/><circle cx="52.8" cy="44.4" r="32.9" class="st2"/><circle cx="105.9" cy="34.9" r="1.9" class="st0"/><circle cx="129" cy="34.9" r="1.9" class="st0"/><circle cx="152" cy="34.9" r="1.9" class="st0"/><circle cx="175" cy="34.9" r="1.9" class="st0"/><circle cx="198" cy="34.9" r="1.9" class="st0"/><circle cx="221" cy="34.9" r="1.9" class="st0"/><circle cx="244.1" cy="34.9" r="1.9" class="st0"/><circle cx="267.1" cy="34.9" r="1.9" class="st0"/><circle cx="105.9" cy="19.7" r="1.9" class="st0"/><circle cx="129" cy="19.7" r="1.9" class="st0"/><circle cx="152" cy="19.7" r="1.9" class="st0"/><circle cx="175" cy="19.7" r="1.9" class="st0"/><circle cx="198" cy="19.7" r="1.9" class="st0"/><circle cx="221" cy="19.7" r="1.9" class="st0"/><circle cx="244.1" cy="19.7" r="1.9" class="st0"/><circle cx="267.1" cy="19.7" r="1.9" class="st0"/><circle cx="105.9" cy="50.1" r="1.9" class="st0"/><circle cx="129" cy="50.1" r="1.9" class="st0"/><circle cx="152" cy="50.1" r="1.9" class="st0"/><circle cx="175" cy="50.1" r="1.9" class="st0"/><circle cx="198" cy="50.1" r="1.9" class="st0"/><circle cx="221" cy="50.1" r="1.9" class="st0"/><circle cx="244.1" cy="50.1" r="1.9" class="st0"/><circle cx="267.1" cy="50.1" r="1.9" class="st0"/><circle cx="105.9" cy="65.3" r="1.9" class="st0"/><circle cx="129" cy="65.3" r="1.9" class="st0"/><circle cx="152" cy="65.3" r="1.9" class="st0"/><circle cx="175" cy="65.3" r="1.9" class="st0"/><circle cx="198" cy="65.3" r="1.9" class="st0"/><circle cx="221" cy="65.3" r="1.9" class="st0"/><circle cx="244.1" cy="65.3" r="1.9" class="st0"/><circle cx="267.1" cy="65.3" r="1.9" class="st0"/><circle cx="290.1" cy="34.9" r="1.9" class="st0"/><circle cx="290.1" cy="19.7" r="1.9" class="st0"/><circle cx="290.1" cy="50.1" r="1.9" class="st0"/><circle cx="290.1" cy="65.3" r="1.9" class="st0"/><circle cx="313.1" cy="34.9" r="1.9" class="st0"/><circle cx="313.1" cy="19.7" r="1.9" class="st0"/><circle cx="313.1" cy="50.1" r="1.9" class="st0"/><circle cx="313.1" cy="65.3" r="1.9" class="st0"/><circle cx="336.1" cy="34.9" r="1.9" class="st0"/><circle cx="336.1" cy="19.7" r="1.9" class="st0"/><circle cx="336.1" cy="50.1" r="1.9" class="st0"/><circle cx="336.1" cy="65.3" r="1.9" class="st0"/><path d="M44.3 11.5c-18.2 0-32.9 14.8-32.9 32.9s14.8 32.9 32.9 32.9 32.9-14.8 32.9-32.9-14.7-32.9-32.9-32.9ZM65 50.4s-3.7 8.9-16.9 14.3c-.3 0-.7 0-.7-.5l.2-2.1c0-1.3-1-2.4-2.3-2.4h-1C32 59.7 22 51.5 22 41.4s10-18.3 22.3-18.3 22.3 8.2 22.3 18.3-.4 6.7-1.6 8.9Z"/><path d="M34.8 44.4h-2.7v-6.8c0-.3-.1-.6-.3-.8-.2-.2-.6-.3-1-.3s-.7 0-1 .3c-.2.2-.3.5-.3.8v7.9c0 .4.1.7.3.9.2.2.5.3.9.3h4.1c.3 0 .6 0 .8-.3s.3-.5.3-.9 0-.7-.3-.9-.5-.3-.8-.3Zm-2.8.4Zm6.7-8.2c-.4 0-.7 0-1 .3-.2.2-.3.5-.3.8v8c0 .3 0 .5.3.7s.6.4 1 .4.7 0 1-.3c.2-.2.3-.5.3-.8v-8c0-.3 0-.6-.3-.8s-.6-.3-1-.3Zm10.1 0c-.4 0-.7 0-.9.3s-.3.4-.3.8v4.1l-2.5-4.4c-.3-.5-.7-.8-1.3-.8h-.2c-.4 0-.7 0-.9.3s-.3.5-.3.9v7.9c0 .4.2.6.3.8.2.2.5.3.9.3s.7 0 .9-.3.3-.4.3-.8v-4.1l2.5 4.5c.3.5.7.7 1.3.7h.2c.4 0 .7 0 .9-.3s.3-.4.3-.9v-7.9c0-.4-.2-.6-.3-.8-.2-.2-.5-.3-.9-.3Zm10 8.1s-.4-.3-.8-.3h-3v-1.8h2.2c.3 0 .6 0 .8-.3s.3-.5.3-.9 0-.7-.3-.9-.5-.3-.8-.3H55v-1.3h2.9c.4 0 .7-.2.8-.3.2-.2.3-.5.3-.9s0-.7-.3-.9-.4-.3-.8-.3h-4.2c-.4 0-.7 0-.9.3s-.3.5-.3.9v7.8c0 .4 0 .7.3.9s.5.3.9.3H58c.4 0 .7-.2.8-.3.2-.2.3-.5.3-.9s0-.7-.3-.9ZM55 45Z"/><path d="M356.3 4v131.8H4V4h352.3m4-4H0v139.8h360.3V0Z" class="st0"/></svg>