<svg xmlns="http://www.w3.org/2000/svg" width="80" height="80" fill="none"><path fill="#515050" d="M39.99 80C17.937 79.944-.092 62.034 0 39.8.094 17.862 17.983-.094 40.206 0 62.139.094 80.177 18.003 80 40.341 79.823 62.165 62.055 79.935 39.99 80Zm25.867-39.827V29.214c0-.878-.056-1.756-.224-2.616-.944-4.82-3.596-8.38-7.94-10.678-2.12-1.121-4.4-1.616-6.782-1.616-7.137-.019-14.283 0-21.42 0-.766 0-1.523.037-2.28.13-3.1.384-5.828 1.607-8.135 3.7-3.28 2.99-4.933 6.745-4.942 11.192-.01 7.231 0 14.472 0 21.703 0 .766.037 1.523.159 2.28.457 2.998 1.681 5.642 3.736 7.866 3.018 3.27 6.791 4.867 11.229 4.877 6.24.018 12.48 0 18.72 0 1.223 0 2.447.018 3.67-.038 3.737-.186 6.97-1.55 9.65-4.148 3.037-2.933 4.55-6.54 4.569-10.762.018-3.644 0-7.278 0-10.922l-.01-.009Z"/><path fill="#515050" d="M61.168 40.304v11.332c0 4.036-2.672 7.83-6.465 9.203a10.813 10.813 0 0 1-3.736.654c-7.324 0-14.657.028-21.98-.01-4.11-.028-7.184-1.906-9.117-5.55a8.864 8.864 0 0 1-1.037-4.203c0-7.624-.02-15.257 0-22.88.009-4.989 4.147-9.352 9.126-9.688a23.583 23.583 0 0 1 1.625-.047H51.08c5.007 0 9.136 3.485 9.977 8.408.084.477.112.963.112 1.448v11.333Zm-7.791 0c.075-7.213-5.82-13.407-13.386-13.397-7.548 0-13.405 6.175-13.396 13.415.01 7.213 5.81 13.379 13.386 13.388 7.558 0 13.461-6.156 13.396-13.397v-.01Zm-2.56-14.014c-.009 1.747 1.327 3.12 3.065 3.14 1.68.018 3.073-1.355 3.092-3.046a3.079 3.079 0 0 0-3.074-3.14 3.086 3.086 0 0 0-3.092 3.046h.01Z"/><path fill="#515050" d="M40.019 49.039c-4.802 0-8.762-3.886-8.772-8.623 0-4.924 3.896-8.885 8.734-8.885 4.783 0 8.763 3.933 8.763 8.68 0 4.923-3.858 8.819-8.734 8.819l.009.009Z"/></svg>