<svg xmlns="http://www.w3.org/2000/svg" width="80" height="80" fill="none"><path fill="#fff" d="M80 39.94C80.01 62.052 62.137 80 40.098 80.01 17.9 80.01-.009 62.155 0 40.004 0 17.854 17.91-.01 40.107 0 62.09.01 79.991 17.928 80 39.94ZM39.949 57.362c3.017 0 6.054.159 9.062-.047 3.139-.205 6.306-.046 9.417-.7 3.167-.664 4.952-2.495 5.466-5.7 1.12-6.96.831-13.938.12-20.88-.429-4.157-2.736-6.222-6.67-6.558-3.139-.271-6.287-.495-9.436-.542-8.156-.112-16.312-.159-24.458.476-4.933.383-7.343 2.766-7.605 7.727-.14 2.606-.224 5.222-.374 7.829-.224 3.886-.046 7.754.607 11.575.701 4.167 2.672 5.895 6.867 6.297 5.662.542 11.333.588 17.013.523h-.01Z"/><path fill="#fff" d="M34.754 40.098v-6.213c0-.925.309-1.252 1.224-.71 3.644 2.15 7.306 4.28 10.968 6.4.813.467.645.803-.047 1.205a1123.87 1123.87 0 0 0-10.958 6.41c-.953.56-1.187.158-1.187-.73v-6.362Z"/></svg>