<svg xmlns="http://www.w3.org/2000/svg" width="80" height="80" fill="none"><path fill="#515050" d="M55.7 32.16h-.12c-.58 2.46-1.24 5.02-1.92 7.36L53 41.98h5.34l-.66-2.46c-.7-2.34-1.3-4.92-1.98-7.36Zm-25.64-4.7h-.2c-.92 3.94-2 8.02-3.06 11.76l-1.06 3.94h8.54l-1.06-3.94c-1.12-3.74-2.08-7.86-3.16-11.76Z"/><path fill="#515050" d="M40.1 0C17.9 0 0 17.84 0 40c0 22.14 17.9 40 40.1 40C62.14 80 80.02 62.04 80 39.94 79.98 17.92 62.08 0 40.1 0Zm-1.74 57.98-2.52-9.22H24.18l-2.52 9.22h-7.28L25.9 22.04h8.46l11.56 35.94h-7.56Zm22.54-6.74-1.58-5.78h-7.3l-1.58 5.78h-4.56l7.2-22.5h5.28l7.24 22.5h-4.72.02Z"/></svg>