<svg xmlns="http://www.w3.org/2000/svg" width="80" height="80" fill="none"><path fill="#515050" d="M40 0C17.9 0 0 17.9 0 40s17.9 40 40 40 40-17.9 40-40S62.08 0 40 0Zm5.48 51.92-6.7 6.7a12.24 12.24 0 0 1-8.7 3.6c-3.28 0-6.38-1.28-8.7-3.6a12.24 12.24 0 0 1-3.6-8.7c0-3.28 1.28-6.38 3.6-8.7l6.7-6.7c.78-.78 2.04-.78 2.82 0 .78.78.78 2.04 0 2.82l-6.7 6.7a8.21 8.21 0 0 0-2.44 5.88c0 2.22.86 4.3 2.44 5.88 1.58 1.56 3.66 2.44 5.88 2.44 2.22 0 4.3-.86 5.88-2.44l6.7-6.7c.78-.78 2.04-.78 2.82 0 .78.78.78 2.04 0 2.82Zm3.3-23.54c.78-.78 2.04-.78 2.82 0 .78.78.78 2.04 0 2.82L31.18 51.62c-.4.4-.9.58-1.42.58-.52 0-1.02-.2-1.42-.58-.78-.78-.78-2.04 0-2.82l20.42-20.42h.02Zm9.82 10.4-6.7 6.7c-.4.4-.9.58-1.42.58-.52 0-1.02-.2-1.42-.58-.78-.78-.78-2.04 0-2.82l6.7-6.7a8.21 8.21 0 0 0 2.44-5.88c0-2.22-.86-4.3-2.44-5.88-1.58-1.56-3.66-2.44-5.88-2.44-2.22 0-4.3.86-5.88 2.44l-6.7 6.7c-.78.78-2.04.78-2.82 0-.78-.78-.78-2.04 0-2.82l6.7-6.7a12.24 12.24 0 0 1 8.7-3.6c3.28 0 6.38 1.28 8.7 3.6a12.24 12.24 0 0 1 3.6 8.7c0 3.28-1.28 6.38-3.6 8.7h.02Z"/></svg>