<svg xmlns="http://www.w3.org/2000/svg" width="40" height="41" fill="none"><g fill="#fff" clip-path="url(#a)"><path d="M20.05.5C8.96.5 0 9.42 0 20.5c0 11.07 8.95 20 20.05 20 11.02 0 19.96-8.98 19.95-20.03C39.99 9.46 31.05.5 20.05.5Zm-.87 28.99-1.26-4.61h-5.83l-1.26 4.61H7.19l5.76-17.97h4.23l5.78 17.97h-3.78Zm11.28-3.37-.79-2.89h-3.65l-.79 2.89h-2.28l3.6-11.25h2.64l3.62 11.25h-2.36.01Z"/><path d="M27.862 16.58h-.06c-.29 1.23-.62 2.51-.96 3.68l-.33 1.23h2.67l-.33-1.23c-.35-1.17-.65-2.46-.99-3.68Zm-12.831-2.35h-.1c-.46 1.97-1 4.01-1.53 5.88l-.53 1.97h4.27l-.53-1.97c-.56-1.87-1.04-3.93-1.58-5.88Z"/></g><defs><clipPath id="a"><path fill="#fff" d="M0 .5h40v40H0z"/></clipPath></defs></svg>