<svg xmlns="http://www.w3.org/2000/svg" width="80" height="80" fill="none"><path fill="#515050" d="M40.107 0C17.91-.01 0 17.854 0 39.995 0 62.147 17.9 80.01 40.098 80 62.138 80 80.01 62.044 80 39.93 79.99 17.928 62.1.01 40.107 0Zm18.667 22.796c-.355 1.354-.878 2.634-1.617 3.82-.41.655-.896 1.271-1.391 1.87a165.06 165.06 0 0 1-5.727 6.54c-.654.7-.85 1.466-.552 2.4.402 1.252.729 2.523 1.093 3.784.346 1.186.73 2.373 1.075 3.56.42 1.447.822 2.905 1.242 4.353.486 1.691.99 3.373 1.477 5.064.364 1.27.728 2.54 1.036 3.83.243 1 .225 2-.242 2.943-.43.869-1.112 1.485-1.925 1.971-.121.075-.262.14-.383.215-.766.42-1.486.29-1.99-.439-.374-.532-.682-1.112-1-1.682-.626-1.12-1.233-2.251-1.85-3.382-.457-.84-.915-1.69-1.373-2.532-.495-.887-.99-1.774-1.504-2.662-.626-1.075-1.215-2.177-1.906-3.205-.57-.85-1.261-1.616-1.906-2.429a22.206 22.206 0 0 1-.523-.691c-.41.42-.813.822-1.205 1.224-1.15 1.186-2.289 2.373-3.438 3.56-1.093 1.14-2.186 2.288-3.28 3.428-.28.3-.57.58-.84.888a.32.32 0 0 0-.038.29c.374.933.757 1.868 1.159 2.802.28.645.542 1.29.57 2.009.056 1.289-.477 2.26-1.58 2.914-.476.29-.943.085-1.4-.065-.542-.177-.897-.607-1.29-.98-1.009-.944-2.008-1.879-3.008-2.822-1.084-1.028-2.167-2.074-3.242-3.111-.813-.785-1.635-1.56-2.438-2.345-.402-.393-.785-.813-1.168-1.224a.783.783 0 0 1-.075-1c.44-.645.934-1.27 1.458-1.85.55-.598 1.27-.588 1.999-.355 1.364.43 2.728.87 4.092 1.327.196.065.252 0 .364-.14.757-.981 1.542-1.934 2.299-2.906.962-1.224 1.915-2.457 2.877-3.69.738-.944 1.467-1.897 2.214-2.83.131-.169.14-.262.01-.43-.99-1.308-2.308-2.205-3.756-2.925-2.037-1.009-4.092-1.971-6.138-2.961-1.794-.87-3.588-1.729-5.363-2.607a10.027 10.027 0 0 1-1.345-.831c-.495-.355-.654-1.019-.355-1.654.486-1.018 1.093-1.971 1.887-2.793.505-.514 1.15-.636 1.831-.542.878.13 1.747.28 2.616.457a596.37 596.37 0 0 1 9.296 1.953c2.102.449 4.195.897 6.297 1.355.775.168 1.55.327 2.317.504 1.485.346 2.532-.27 3.42-1.41 1.139-1.448 2.335-2.86 3.53-4.251a62.085 62.085 0 0 1 2.383-2.57 10.407 10.407 0 0 1 2.317-1.812c.785-.467 1.588-.906 2.504-1.056 1.093-.177 1.877.206 2.335.99.383.664.355 1.411.16 2.13h-.01Z"/></svg>