<svg xmlns="http://www.w3.org/2000/svg" width="80" height="80" fill="none"><path fill="#fff" d="M40 0C17.907 0 0 17.963 0 40.13 0 60.739 15.488 77.72 35.422 80l-.055-.197-.113-28.621H26.52V40.148l8.725-.037s.206-6.063.215-8.753c.01-2.69-.01-7.95 5.698-12.602 5.708-4.642 18.758-1.905 18.758-1.905v9.5s-3.709-.056-6.978.112c-2.364.122-3.7 1.046-4.989 1.831-1.289.785-1.41 4.727-1.41 4.727l.093 6.968 11.602.355-1.7 10.846-7.716.065V79.28C66.66 75.254 80 59.252 80 40.13 79.99 17.964 62.083 0 40 0Z"/></svg>