<svg xmlns="http://www.w3.org/2000/svg" width="40" height="41" fill="none"><g clip-path="url(#a)"><path fill="#fff" d="M20 .5C8.95.5 0 9.45 0 20.5s8.95 20 20 20 20-8.95 20-20-8.95-20-20-20Zm2.75 25.96-3.35 3.35a6.12 6.12 0 0 1-4.35 1.8 6.12 6.12 0 0 1-4.35-1.8 6.12 6.12 0 0 1-1.8-4.35c0-1.64.64-3.19 1.8-4.35l3.35-3.35a.996.996 0 1 1 1.41 1.41l-3.35 3.35c-.79.78-1.22 1.83-1.22 2.94 0 1.11.43 2.15 1.22 2.94.79.78 1.83 1.22 2.94 1.22 1.11 0 2.15-.43 2.94-1.22l3.35-3.35a.996.996 0 1 1 1.41 1.41Zm1.65-11.77a.996.996 0 1 1 1.41 1.41L15.6 26.31c-.2.2-.45.29-.71.29-.26 0-.51-.1-.71-.29a.996.996 0 0 1 0-1.41l10.21-10.21h.01Zm4.91 5.2-3.35 3.35c-.2.2-.45.29-.71.29-.26 0-.51-.1-.71-.29a.996.996 0 0 1 0-1.41l3.35-3.35c.79-.78 1.22-1.83 1.22-2.94 0-1.11-.43-2.15-1.22-2.94a4.164 4.164 0 0 0-2.94-1.22c-1.11 0-2.15.43-2.94 1.22l-3.35 3.35a.996.996 0 1 1-1.41-1.41l3.35-3.35a6.12 6.12 0 0 1 4.35-1.8c1.64 0 3.19.64 4.35 1.8a6.12 6.12 0 0 1 1.8 4.35c0 1.64-.64 3.19-1.8 4.35h.01Z"/></g><defs><clipPath id="a"><path fill="#fff" d="M0 .5h40v40H0z"/></clipPath></defs></svg>