<svg xmlns="http://www.w3.org/2000/svg" width="80" height="80" fill="none"><path fill="#515050" d="M39.99 0C17.907 0 0 17.907 0 40c0 22.092 17.907 40 40 40 22.092 0 40-17.908 40-40C80 17.907 62.083 0 39.99 0Zm25.12 47.146S60.606 58.01 44.567 64.54a.585.585 0 0 1-.804-.58l.197-2.578a2.675 2.675 0 0 0-2.756-2.877c-.402.019-.813.019-1.215.019-14.918 0-27.015-9.958-27.015-22.251 0-12.294 12.097-22.252 27.015-22.252 14.919 0 27.016 9.958 27.016 22.252 0 3.185-.43 8.117-1.897 10.864v.009Z"/><path fill="#515050" d="M28.407 39.934h-3.325v-8.201c0-.365-.122-.682-.365-.925-.28-.28-.672-.42-1.177-.42-.504 0-.896.14-1.177.42-.243.243-.364.56-.364.925v9.603c0 .448.13.803.402 1.074.261.262.625.402 1.074.402h4.932c.374 0 .7-.131.953-.383.252-.253.383-.608.383-1.056v-.028c0-.44-.13-.785-.383-1.037a1.31 1.31 0 0 0-.953-.383v.01Zm-3.316.514s.019.084.019.14c0-.046 0-.093-.019-.13v-.01ZM33.2 30.387c-.505 0-.898.14-1.178.42a1.27 1.27 0 0 0-.364.926v9.761c.019.355.15.664.364.879.271.29.673.439 1.177.439.505 0 .897-.14 1.177-.42.243-.244.365-.561.365-.926v-9.733c0-.365-.122-.682-.365-.925-.28-.28-.672-.42-1.177-.42Zm12.302 0c-.486 0-.869.14-1.14.412-.168.168-.364.467-.364.934v4.913l-3.045-5.334c-.309-.598-.86-.925-1.542-.925h-.27c-.449 0-.804.131-1.075.402-.261.262-.402.626-.402 1.074v9.603c0 .477.197.776.365.935.27.27.654.41 1.14.41.485 0 .878-.14 1.14-.41a1.29 1.29 0 0 0 .363-.935v-4.979l3.064 5.428c.337.579.878.897 1.542.897h.243c.448 0 .803-.131 1.074-.402.187-.187.401-.514.401-1.074v-9.603c0-.477-.196-.776-.364-.934-.27-.271-.654-.412-1.14-.412h.01Zm12.106 9.93a1.342 1.342 0 0 0-.962-.383h-3.624v-2.157h2.709c.373 0 .7-.131.953-.383.252-.253.383-.608.383-1.056v-.028c0-.44-.131-.785-.383-1.037a1.31 1.31 0 0 0-.953-.383h-2.71v-1.635h3.466c.486 0 .794-.205.962-.383.253-.252.384-.607.384-1.055 0-.449-.131-.804-.383-1.056a1.341 1.341 0 0 0-.963-.383h-5.081c-.449 0-.804.131-1.075.402-.261.261-.401.626-.401 1.074v9.472c0 .449.13.804.401 1.075.262.261.626.401 1.075.401h5.23c.487 0 .795-.205.963-.383.252-.252.383-.607.383-1.055 0-.449-.13-.804-.383-1.056l.01.01Zm-4.568.262s0-.093-.018-.13c0 0 .018.083.018.13Z"/></svg>