<svg xmlns="http://www.w3.org/2000/svg" width="31" height="30" fill="none"><g clip-path="url(#a)"><path fill="url(#b)" d="M13.025 29.85C5.9 28.575.5 22.425.5 15c0-8.25 6.75-15 15-15s15 6.75 15 15c0 7.425-5.4 13.575-12.525 14.85l-.825-.675h-3.3l-.825.675Z"/><path fill="#fff" d="m21.352 19.2.675-4.2h-3.975v-2.925c0-1.2.45-2.1 2.25-2.1h1.95V6.15c-1.05-.15-2.25-.3-3.3-.3-3.45 0-5.85 2.1-5.85 5.85V15h-3.75v4.2h3.75v10.575c.825.15 1.65.225 2.475.225.825 0 1.65-.075 2.475-.225V19.2h3.3Z"/></g><defs><linearGradient id="b" x1="15.501" x2="15.501" y1="28.957" y2="-.006" gradientUnits="userSpaceOnUse"><stop stop-color="#0062E0"/><stop offset="1" stop-color="#19AFFF"/></linearGradient><clipPath id="a"><path fill="#fff" d="M.5 0h30v30H.5z"/></clipPath></defs></svg>