<svg xmlns="http://www.w3.org/2000/svg" width="31" height="30" fill="none"><path fill="#4285F4" d="M28.7 15.313a15.8 15.8 0 0 0-.25-2.813H15.5v5.325h7.4c-.325 1.713-1.3 3.163-2.762 4.137v3.463H24.6c2.6-2.4 4.1-5.925 4.1-10.113Z"/><path fill="#34A853" d="M15.502 28.75c3.712 0 6.825-1.225 9.1-3.325l-4.463-3.463c-1.225.826-2.787 1.326-4.637 1.326-3.575 0-6.613-2.413-7.7-5.663H3.227v3.55c2.262 4.488 6.9 7.575 12.275 7.575Z"/><path fill="#FBBC05" d="M7.8 17.613A8.24 8.24 0 0 1 7.362 15c0-.912.163-1.787.438-2.613v-3.55H3.225A13.58 13.58 0 0 0 1.75 15c0 2.225.538 4.313 1.475 6.163l3.562-2.776 1.013-.774Z"/><path fill="#EA4335" d="M15.502 6.725c2.025 0 3.825.7 5.262 2.05l3.938-3.938c-2.388-2.224-5.488-3.587-9.2-3.587-5.375 0-10.013 3.088-12.275 7.588l4.575 3.55c1.087-3.25 4.125-5.663 7.7-5.663Z"/></svg>