<svg xmlns="http://www.w3.org/2000/svg" width="80" height="80" fill="none"><g clip-path="url(#a)"><path fill="#515050" d="M47.75 37.32c-.09 2.52.3 4.9 1.61 7.09 1.46 2.44 2.81 4.94 4.33 7.34 1.08 1.71 1.24 3.43.75 5.34-.95 3.7-2.03 7.36-3.15 11.02-.71 2.32-3.2 3.72-5.49 3.12-2.59-.69-4.09-3-3.43-5.51.78-2.95 1.71-5.87 2.58-8.79.18-.61.29-1.21.03-1.82-.06-.13-.11-.28-.3-.24-.16.03-.13.18-.13.29-.06 1.81-.73 3.44-1.53 5.03-1.37 2.73-2.7 5.48-4.09 8.2-.89 1.75-2.75 2.74-4.61 2.54-1.97-.21-3.54-1.54-4.05-3.45-.33-1.21-.16-2.37.41-3.48 1.16-2.28 2.21-4.62 3.5-6.81 1.09-1.85 1.14-3.67.57-5.64-1.2-4.13-1.89-8.34-2.15-12.63-.06-1.05-.24-2.09-.37-3.25-.46.29-.85.54-1.23.79-2.94 1.9-6.19 1.72-8.91-.49-2.14-1.74-4.19-3.57-6.21-5.45-1.82-1.69-1.96-4.38-.36-6.12 1.66-1.81 4.38-1.91 6.25-.23 1.57 1.41 3.14 2.81 4.69 4.24.32.3.53.33.9.07 1.07-.77 2.17-1.48 3.26-2.22 1.79-1.21 3.78-1.82 5.93-1.86 1.67-.03 3.33-.3 5.02-.04 2.34.35 4.46 1.19 6.37 2.59.73.54 1.5 1.03 2.23 1.57.35.26.61.25.94-.03 1.29-1.14 2.59-2.27 3.91-3.38.77-.65 1.6-1.2 2.54-1.6 1.46-.61 2.86-.6 4.09.49 1.27 1.13 1.56 2.58 1.11 4.19-.26.94-.75 1.76-1.48 2.41-2.11 1.88-4.22 3.76-6.4 5.55-2.08 1.71-4.34 2.21-6.88 1.2-.06-.02-.14-.01-.23-.02l-.02-.01Z"/><path fill="#515050" d="M39.66 23.67c-4 0-7.16-3.29-7.15-7.42 0-3.98 3.31-7.25 7.29-7.25 4.05 0 7.34 3.36 7.32 7.46-.02 4.05-3.3 7.21-7.46 7.21Z"/><path fill="#fff" d="M50.47 35.72c-.81-.04-1.56-.24-2.25-.67-.3-.19-.61-.39-.93-.53-.92-.41-1.92.11-1.84 1.09.19 2.47 0 4.99.88 7.38.34.92.76 1.8 1.26 2.65 1.45 2.47 2.86 4.97 4.36 7.41.65 1.05.75 2.07.47 3.22-.93 3.78-2.05 7.51-3.19 11.23a2.42 2.42 0 0 1-3.02 1.6c-1.46-.44-2.15-1.63-1.72-3.12.79-2.73 1.57-5.46 2.44-8.17.52-1.61.4-3.07-.46-4.53-.83-1.4-1.66-2.79-2.61-4.11-.36-.49-.77-.79-1.4-.53-.62.26-.71.77-.62 1.37.17 1.11.34 2.22.5 3.33.24 1.7.03 3.33-.75 4.88-1.49 2.99-2.96 5.99-4.45 8.98-.72 1.44-2.15 1.97-3.46 1.33-1.34-.65-1.78-2.14-1.05-3.61 1.15-2.31 2.22-4.66 3.52-6.89 1.25-2.14 1.45-4.32.78-6.62-1.29-4.45-1.97-9.01-2.29-13.62-.09-1.31-.28-2.62-.43-3.92-.12-1.05-.89-1.45-1.78-.9-.91.57-1.8 1.18-2.71 1.75-2.05 1.3-4.31 1.16-6.19-.36-2.12-1.72-4.15-3.55-6.16-5.39-.98-.9-1.07-2.24-.24-3.14.86-.93 2.22-.97 3.21-.08 1.64 1.47 3.27 2.95 4.91 4.42 1 .9 1.94.97 3.06.23 1.15-.77 2.3-1.55 3.45-2.33 1.46-.99 3.08-1.52 4.85-1.54 1.62-.02 3.24-.31 4.87-.04 1.93.32 3.67 1.02 5.23 2.19 1 .75 2.04 1.42 3.08 2.1.6.38 1.12.41 1.72 0 .74-.5 1.44-1.03 2.09-1.63 1.07-.99 2.14-1.99 3.33-2.84.56-.41 1.14-.78 1.82-.98 1.1-.33 2.05.35 2.05 1.5 0 .85-.33 1.59-.97 2.16-2.14 1.91-4.28 3.84-6.51 5.64-.83.67-1.75 1.05-2.82 1.08l-.03.01Z"/><path fill="#F5E500" d="M39.71 21.52c-2.83.01-5.06-2.29-5.06-5.22 0-2.84 2.3-5.14 5.16-5.15 2.82-.01 5.16 2.37 5.16 5.25s-2.28 5.1-5.26 5.12Z"/><path fill="#515050" d="M23.84 51.42c-1.16-2.56-2.07-5.24-3.09-7.87-.37-.95-1.09-1.36-1.95-1.03-2.26.87-4.52 1.76-6.76 2.68-.71.29-1.03 1-.8 1.71.36 1.08.78 2.14 1.18 3.21.39 1.02.79 2.03 1.18 3.06-1.92.49-2.98 1.37-3.45 2.81-.53 1.61.27 3.14 1.83 3.34 1.34.17 2.42-.43 3.26-1.46.81-1 1.14-2.11.65-3.37-.53-1.36-1.05-2.72-1.58-4.08-.08-.2-.24-.4.09-.53 1.93-.79 3.87-1.58 5.8-2.37.16-.06.28-.08.36.13.34.92.71 1.83 1.06 2.76-1.86.34-3.16 1.5-3.54 3.12-.4 1.73.8 3.14 2.57 3.01 2.21-.15 4.21-2.81 3.17-5.12h.02Zm-9.37 4.27c-.03.91-1.1 1.98-2.02 2.01-.56.02-.88-.33-.8-.9.11-.89 1.02-1.79 1.93-1.92.56-.08.91.24.9.81h-.01Zm5.15-9.71c-1.93.79-3.86 1.58-5.78 2.38-.24.1-.31.03-.37-.17-.01-.04-.03-.07-.04-.11-.14-.49-.62-1.02-.43-1.41.17-.33.84-.41 1.3-.6 1.5-.6 3-1.18 4.49-1.79.33-.14.48-.1.59.25.12.41.31.81.45 1.17.03.2-.09.23-.2.28h-.01Zm.84 8.92c-.53 0-.77-.23-.77-.75 0-.98 1.11-2.08 2.09-2.06.48.01.75.31.73.81-.03.92-1.12 1.99-2.05 2Zm48.53-11.69c-1.07-3.01-3.97-4.96-7.21-4.84-.92.03-1.23.52-.89 1.37.47 1.19.95 2.38 1.43 3.57.63 1.57 1.26 3.14 1.89 4.72-1.65.33-2.76 1.25-3.3 2.79-.35.98-.23 1.93.54 2.69.75.74 1.68.81 2.65.51 2.21-.69 3.66-3.56 2.22-5.22-.11-.13-.15-.32-.22-.48-1.03-2.56-2.06-5.12-3.07-7.69-.07-.16-.24-.33-.1-.58 2.2.4 3.72 1.61 4.52 3.7.25.66.64.92 1.13.74.49-.18.65-.65.42-1.29l-.01.01Zm-3.77 7.28c-.03.94-1.16 2.04-2.08 2.03-.52 0-.82-.36-.75-.9.12-.9 1.05-1.81 1.95-1.91.52-.06.9.27.88.78Z"/><path fill="#F5E500" d="M62.39 51.62c-.07.54.22.9.75.9.92 0 2.05-1.09 2.08-2.03.02-.51-.36-.84-.88-.78-.9.1-1.83 1.01-1.95 1.91Zm-49.94 6.09c.92-.03 2-1.1 2.02-2.01.02-.57-.34-.89-.9-.81-.91.12-1.81 1.03-1.93 1.92-.07.57.24.92.8.9h.01Zm8.01-2.81c.92-.01 2.02-1.08 2.05-2 .01-.5-.25-.8-.73-.81-.98-.02-2.1 1.08-2.09 2.06 0 .52.25.75.77.75Zm-7-6.71c.06.2.14.27.37.17 1.92-.8 3.85-1.59 5.78-2.38.11-.05.23-.07.2-.28-.14-.36-.33-.76-.45-1.17-.11-.36-.25-.39-.59-.25-1.49.61-3 1.19-4.49 1.79-.45.18-1.13.26-1.3.6-.2.39.29.93.43 1.41.01.04.03.07.04.11h.01Z"/></g><defs><clipPath id="a"><path fill="#fff" d="M10 9h59.09v62.36H10z"/></clipPath></defs></svg>