<svg xmlns="http://www.w3.org/2000/svg" width="80" height="80" fill="none"><path fill="#515050" d="M63.61 59.52h-46.6c-2.76 0-5.01-2.25-5.01-5.01v-34.5c0-2.76 2.25-5.01 5.01-5.01h46.6c2.76 0 5.01 2.25 5.01 5.01v34.5c0 2.76-2.25 5.01-5.01 5.01Zm-46.6-42.46c-1.62 0-2.94 1.32-2.94 2.94v34.5c0 1.62 1.32 2.94 2.94 2.94h46.6c1.62 0 2.94-1.32 2.94-2.94V20c0-1.62-1.32-2.94-2.94-2.94h-46.6Z"/><path fill="#F5E500" d="m48.04 37.26-13.45-7.77v15.53l13.45-7.76Z"/><path fill="#515050" d="M34.59 46.05a1.038 1.038 0 0 1-1.04-1.04V29.49c0-.37.2-.71.52-.9.32-.18.71-.18 1.03 0l13.44 7.76a1.038 1.038 0 0 1 0 1.8L35.1 45.91c-.16.09-.34.14-.52.14h.01Zm1.04-14.76v11.94l10.34-5.97-10.34-5.97Zm24.29 34.53H20.7c-.57 0-1.03-.46-1.03-1.03 0-.57.46-1.03 1.03-1.03h39.22c.57 0 1.03.46 1.03 1.03 0 .57-.46 1.03-1.03 1.03Z"/></svg>