<svg xmlns="http://www.w3.org/2000/svg" width="80" height="80" fill="none"><path fill="#515050" d="M68.22 68.836H12.03c-.57 0-1.03-.46-1.03-1.03v-49.92c0-.57.46-1.03 1.03-1.03h56.19c.57 0 1.03.46 1.03 1.03v49.92c0 .57-.46 1.03-1.03 1.03Zm-55.16-2.07h54.13v-47.85H13.06v47.85Z"/><path fill="#515050" d="M68.22 33.166H12.03c-.57 0-1.03-.46-1.03-1.03v-5.17c0-.57.46-1.03 1.03-1.03h56.19c.57 0 1.03.46 1.03 1.03v5.17c0 .57-.46 1.03-1.03 1.03Zm-55.16-2.07h54.13v-3.1H13.06v3.1Z"/><path fill="#F5E500" d="M27.57 36.456h-9.38v9.38h9.38v-9.38Z"/><path fill="#515050" d="M27.57 46.876h-9.38c-.57 0-1.03-.46-1.03-1.03v-9.38c0-.57.46-1.03 1.03-1.03h9.38c.57 0 1.03.46 1.03 1.03v9.38c0 .57-.46 1.03-1.03 1.03Zm-8.34-2.07h7.31v-7.31h-7.31v7.31Zm25.58 2.07h-9.38c-.57 0-1.03-.46-1.03-1.03v-9.38c0-.57.46-1.03 1.03-1.03h9.38c.57 0 1.03.46 1.03 1.03v9.38c0 .57-.46 1.03-1.03 1.03Zm-8.35-2.07h7.31v-7.31h-7.31v7.31Zm25.59 2.07h-9.38c-.57 0-1.03-.46-1.03-1.03v-9.38c0-.57.46-1.03 1.03-1.03h9.38c.57 0 1.03.46 1.03 1.03v9.38c0 .57-.46 1.03-1.03 1.03Zm-8.35-2.07h7.31v-7.31H53.7v7.31Zm-26.13 18.41h-9.38c-.57 0-1.03-.46-1.03-1.03v-9.38c0-.57.46-1.03 1.03-1.03h9.38c.57 0 1.03.46 1.03 1.03v9.38c0 .57-.46 1.03-1.03 1.03Zm-8.34-2.07h7.31v-7.31h-7.31v7.31Zm42.82 2.07h-9.38c-.57 0-1.03-.46-1.03-1.03v-9.38c0-.57.46-1.03 1.03-1.03h9.38c.57 0 1.03.46 1.03 1.03v9.38c0 .57-.46 1.03-1.03 1.03Zm-8.35-2.07h7.31v-7.31H53.7v7.31Zm-13.54 2.42c-.28 0-.55-.11-.75-.32l-5.01-5.27a1.03 1.03 0 0 1 .04-1.46 1.03 1.03 0 0 1 1.46.04l3.96 4.17 4-8.68c.24-.52.85-.75 1.37-.51.52.24.75.85.51 1.37l-4.64 10.07c-.14.31-.43.53-.77.59-.06 0-.11.01-.17.01v-.01Zm-9.13-39.9c-1.41 0-2.77-.47-3.89-1.35a6.268 6.268 0 0 1-2.38-4.22c-.2-1.68.26-3.34 1.3-4.67a6.268 6.268 0 0 1 4.22-2.38c1.68-.2 3.34.26 4.67 1.3a6.268 6.268 0 0 1 2.38 4.22c.07.57-.33 1.08-.9 1.15-.57.07-1.08-.33-1.15-.9a4.26 4.26 0 0 0-1.6-2.84c-.9-.7-2.01-1.01-3.14-.88a4.26 4.26 0 0 0-2.84 1.6c-.7.9-1.01 2.01-.88 3.14.28 2.33 2.41 4 4.75 3.72.57-.07 1.08.33 1.15.9.07.57-.33 1.08-.9 1.15-.26.03-.52.05-.78.05l-.01.01Zm18.19 0c-1.41 0-2.77-.47-3.89-1.35a6.268 6.268 0 0 1-2.38-4.22c-.2-1.68.26-3.34 1.3-4.67a6.268 6.268 0 0 1 4.22-2.38c1.68-.2 3.34.26 4.67 1.3a6.268 6.268 0 0 1 2.38 4.22c.07.57-.33 1.08-.9 1.15-.57.07-1.08-.33-1.15-.9a4.26 4.26 0 0 0-1.6-2.84c-.9-.7-2.01-1.01-3.14-.88-2.33.28-4 2.41-3.72 4.75a4.26 4.26 0 0 0 1.6 2.84c.9.7 2.01 1.01 3.14.88.57-.07 1.08.33 1.15.9.07.57-.33 1.08-.9 1.15-.26.03-.52.05-.78.05Z"/></svg>