<svg xmlns="http://www.w3.org/2000/svg" width="80" height="80" fill="none"><path stroke="#515050" stroke-miterlimit="10" stroke-width="2" d="M65.38 30.86H37.06c-2.87 0-5.2 2.33-5.2 5.2v20.7c0 2.87 2.33 5.2 5.2 5.2h13.71l10.72 7.23c.68.46 1.59 0 1.65-.81l.45-6.42h1.79c2.87 0 5.2-2.33 5.2-5.2v-20.7c0-2.87-2.33-5.2-5.2-5.2Z"/><path fill="#fff" stroke="#515050" stroke-miterlimit="10" stroke-width="2" d="M42.16 11.01H16.54c-3.61 0-6.54 2.93-6.54 6.54v16.64c0 3.57 2.87 6.48 6.43 6.53l1.56 6.02c.25.95 1.43 1.28 2.14.59l6.71-6.61h15.31c3.61 0 6.54-2.93 6.54-6.54V17.54c0-3.61-2.93-6.54-6.54-6.54l.01.01Z"/><path fill="#515050" d="M46.66 42.18c.43-.92 1.3-1.51 2.15-2.17.6-.46 1.06-1.13 1.48-1.78.37-.56.58-1.23.89-1.83.84-1.62 2.68-2.26 4.29-1.5 1.59.74 2.26 2.61 1.53 4.28-.41.93-.86 1.84-1.33 2.85 1.23 0 2.36-.02 3.5 0 1.73.04 2.89 1.38 2.66 3.06-.05.35-.2.68-.3 1.03 1.32 1.48 1.33 2.75-.01 4.19.61 1.3.46 2.5-.5 3.39.07.77.24 1.43.16 2.05-.17 1.22-1.23 2.12-2.48 2.13-3.31.02-6.61 0-9.92 0-.1 0-.2-.01-.3-.02-.86-.05-1.57-.68-2.57-.34-.79.27-1.74.08-2.63.08-1.73 0-2.62-.9-2.62-2.63V44.63c0-1.67.88-2.55 2.56-2.56.56 0 1.12-.01 1.68 0 .56.01 1.11.05 1.75.08l.01.03Zm1.28 7.69c0 1.8.03 3.61-.02 5.41-.02.54.18.72.63.78.2.03.4.04.6.04h9.2c.69 0 1.04-.26 1.08-.78.04-.51-.25-.8-.94-.94-.53-.11-.83-.47-.78-.97.05-.52.38-.78.88-.82.24-.02.48.01.72-.02.45-.06.73-.33.75-.8.02-.46-.22-.76-.66-.87-.12-.03-.24-.02-.36-.05-.49-.14-.75-.46-.69-.98.05-.48.36-.75.84-.79.26-.02.53.02.78-.03.47-.09.76-.4.73-.88-.03-.45-.31-.73-.76-.79-.16-.02-.32-.01-.48-.02-.71-.03-1.07-.31-1.11-.84-.04-.53.24-.82.91-.97.66-.15.98-.63.76-1.17-.18-.43-.54-.55-.98-.55h-4.45c-1.1 0-1.47-.59-1-1.61.58-1.23 1.17-2.46 1.73-3.7.38-.83.11-1.65-.63-2-.75-.35-1.54-.05-1.95.77-.27.54-.51 1.09-.77 1.63-.56 1.19-1.38 2.16-2.51 2.84-1.06.64-1.54 1.57-1.53 2.8.02 1.76 0 3.53 0 5.29l.01.02Zm-1.81.02c0-1.74-.01-3.48 0-5.23 0-.57-.21-.8-.78-.77-.74.03-1.48.01-2.22 0-.44 0-.67.17-.67.64v10.63c0 .46.21.66.66.66h2.16c.74 0 .84-.1.85-.83v-5.11.01ZM29.62 33.8c-3.3-.17-5.77-1.66-7.26-4.67-.32-.66-.18-1.2.34-1.43.5-.22.96.01 1.28.65 1.16 2.32 3.06 3.6 5.64 3.61 2.59 0 4.49-1.26 5.65-3.59.33-.66.82-.9 1.33-.65.51.25.63.77.28 1.46-1.5 2.98-3.95 4.46-7.27 4.63l.01-.01Z"/><path fill="#F5E500" d="M47.94 49.87c0-1.76.01-3.53 0-5.29-.01-1.23.47-2.16 1.53-2.8 1.13-.68 1.95-1.66 2.51-2.84.26-.54.5-1.09.77-1.63.41-.82 1.19-1.12 1.95-.77.74.35 1.01 1.17.63 2-.57 1.24-1.16 2.46-1.73 3.7-.47 1.01-.11 1.6 1 1.61h4.45c.43 0 .8.12.98.55.22.54-.1 1.02-.76 1.17-.68.15-.95.44-.91.97.04.54.4.82 1.11.84.16 0 .32 0 .48.02.46.06.74.34.76.79.03.49-.26.8-.73.88-.25.05-.52 0-.78.03-.48.04-.78.3-.84.79-.06.52.21.84.69.98.11.03.24.02.36.05.45.12.68.41.66.87-.02.47-.3.73-.75.8-.24.03-.48 0-.72.02-.5.05-.82.31-.88.82-.05.49.25.86.78.97.69.14.98.43.94.94-.04.52-.39.78-1.08.78h-9.2c-.2 0-.4-.01-.6-.04-.45-.06-.65-.25-.63-.78.05-1.8.02-3.61.02-5.41l-.01-.02Z"/><path fill="#515050" d="M35.92 24.78c1.093 0 1.98-1.397 1.98-3.12s-.886-3.12-1.98-3.12c-1.094 0-1.98 1.397-1.98 3.12s.886 3.12 1.98 3.12Zm-12.08 0c1.093 0 1.98-1.397 1.98-3.12s-.887-3.12-1.98-3.12-1.98 1.397-1.98 3.12.887 3.12 1.98 3.12Z"/></svg>