<svg xmlns="http://www.w3.org/2000/svg" width="80" height="80" fill="none"><path fill="#515050" d="M39.642 63.282c-.83 0-1.66-.19-2.31-.56l-2.73-1.58c-.83-.48-2.39-.9-3.34-.9h-3.15c-1.5 0-3.25-1.01-4-2.31l-1.58-2.73c-.48-.83-1.62-1.97-2.45-2.45l-2.73-1.58c-1.29-.75-2.31-2.5-2.31-4v-3.15c0-.95-.42-2.52-.9-3.34l-1.58-2.73c-.75-1.29-.75-3.32 0-4.62l1.58-2.73c.48-.83.9-2.39.9-3.34v-3.15c0-1.5 1.01-3.25 2.31-4l2.73-1.58c.83-.48 1.97-1.62 2.45-2.45l1.58-2.73c.75-1.29 2.5-2.31 4-2.31h3.15c.95 0 2.52-.42 3.34-.9l2.73-1.58c1.29-.75 3.32-.75 4.62 0l2.73 1.58c.83.48 2.39.9 3.34.9h3.15c1.5 0 3.25 1.01 4 2.31l1.58 2.73c.48.83 1.62 1.97 2.45 2.45l2.73 1.58c1.29.75 2.31 2.5 2.31 4v3.15c0 .95.42 2.52.9 3.34l1.58 2.73c.75 1.29.75 3.32 0 4.62l-1.58 2.73c-.48.83-.9 2.39-.9 3.34v3.15c0 1.5-1.01 3.25-2.31 4l-2.73 1.58c-.83.48-1.97 1.62-2.45 2.45l-1.58 2.73c-.75 1.29-2.5 2.31-4 2.31h-3.15c-.95 0-2.52.42-3.34.9l-2.73 1.58c-.65.37-1.48.56-2.31.56Zm-11.53-50.15c-.77 0-1.82.61-2.21 1.27l-1.58 2.73c-.66 1.14-2.07 2.55-3.21 3.21l-2.73 1.58c-.67.39-1.27 1.44-1.27 2.21v3.15c0 1.32-.52 3.24-1.17 4.38l-1.58 2.73c-.39.67-.39 1.88 0 2.55l1.58 2.73c.66 1.14 1.17 3.06 1.17 4.38v3.15c0 .77.61 1.82 1.27 2.21l2.73 1.58c1.14.66 2.55 2.07 3.21 3.21l1.58 2.73c.39.67 1.44 1.27 2.21 1.27h3.15c1.32 0 3.24.52 4.38 1.17l2.73 1.58c.67.39 1.88.39 2.55 0l2.73-1.58c1.14-.66 3.06-1.17 4.38-1.17h3.15c.77 0 1.82-.61 2.21-1.27l1.58-2.73c.66-1.14 2.07-2.55 3.21-3.21l2.73-1.58c.67-.39 1.27-1.44 1.27-2.21v-3.15c0-1.32.52-3.24 1.17-4.38l1.58-2.73c.39-.67.39-1.88 0-2.55l-1.58-2.73c-.66-1.14-1.17-3.06-1.17-4.38v-3.15c0-.77-.61-1.82-1.27-2.21l-2.73-1.58c-1.14-.66-2.55-2.07-3.21-3.21l-1.58-2.73c-.39-.67-1.44-1.27-2.21-1.27h-3.15c-1.32 0-3.24-.52-4.38-1.17l-2.73-1.58c-.67-.39-1.88-.39-2.55 0l-2.73 1.58c-1.14.66-3.06 1.17-4.38 1.17h-3.15Z"/><path fill="#F5E500" d="M39.642 52.903c9.439 0 17.09-7.652 17.09-17.09 0-9.439-7.651-17.09-17.09-17.09-9.438 0-17.09 7.651-17.09 17.09 0 9.438 7.652 17.09 17.09 17.09Z"/><path fill="#515050" d="M39.642 53.932c-9.99 0-18.12-8.13-18.12-18.12s8.13-18.12 18.12-18.12 18.12 8.13 18.12 18.12-8.13 18.12-18.12 18.12Zm0-34.17c-8.85 0-16.05 7.2-16.05 16.05 0 8.85 7.2 16.05 16.05 16.05 8.85 0 16.05-7.2 16.05-16.05 0-8.85-7.2-16.05-16.05-16.05Zm-9.849 52.231c-.3 0-.58-.13-.78-.35l-4.83-5.49-7.27.07c-.37 0-.7-.18-.89-.49-.19-.31-.21-.69-.04-1.01l5.73-11.32c.26-.51.88-.71 1.39-.46.51.25.71.88.46 1.39l-4.96 9.81 6.05-.06c.3 0 .59.13.79.35l4.13 4.7 4.59-9.06c.26-.51.88-.71 1.39-.45.51.26.71.88.45 1.39l-5.29 10.42c-.16.31-.45.52-.79.56h-.13Zm19.699 0h-.13c-.34-.04-.64-.25-.79-.56l-5.26-10.37a1.04 1.04 0 0 1 .45-1.39c.5-.26 1.13-.05 1.39.45l4.57 9.01 4.13-4.7c.2-.23.49-.36.79-.35l6.05.06-4.89-9.67a1.034 1.034 0 1 1 1.85-.93l5.66 11.19c.16.32.15.71-.04 1.01-.19.3-.53.49-.89.49l-7.27-.07-4.83 5.49c-.2.23-.48.35-.78.35l-.01-.01Z"/><path fill="#515050" d="M39.333 26.602c.17-.52.45-.52.62 0l1.9 5.86c.17.52.76.95 1.31.95h6.16c.55 0 .64.26.19.59l-4.98 3.62c-.44.32-.67 1.02-.5 1.54l1.9 5.86c.17.52-.06.69-.5.36l-4.98-3.62c-.44-.32-1.17-.32-1.62 0l-4.98 3.62c-.44.32-.67.16-.5-.36l1.9-5.86c.17-.52-.06-1.22-.5-1.54l-4.98-3.62c-.44-.32-.36-.59.19-.59h6.16c.55 0 1.14-.43 1.31-.95l1.9-5.86Z"/></svg>