<svg xmlns="http://www.w3.org/2000/svg" width="31" height="30" fill="none"><g clip-path="url(#a)"><path fill="#4CC764" d="M15.529 29.97c8.267 0 14.97-6.702 14.97-14.97S23.796.03 15.529.03C7.26.03.559 6.732.559 15s6.702 14.97 14.97 14.97Z"/><path fill="#fff" d="M25.52 14.13c0-4.47-4.47-8.1-9.99-8.1-5.52 0-9.99 3.63-9.99 8.1s3.54 7.35 8.34 8.01c.33.06.78.21.87.48.09.24.06.66.03.9 0 0-.12.69-.15.87-.03.24-.21.99.87.54 1.08-.45 5.76-3.39 7.86-5.79 1.44-1.59 2.13-3.21 2.13-4.98l.03-.03Z"/><path fill="#4CC764" d="M22.188 16.71c.12 0 .18-.09.18-.18v-.72c0-.09-.09-.18-.18-.18h-1.92v-.75h1.92c.12 0 .18-.09.18-.18v-.72c0-.09-.09-.18-.18-.18h-1.92v-.75h1.92c.12 0 .18-.09.18-.18v-.72c0-.09-.09-.18-.18-.18h-2.82c-.12 0-.18.09-.18.18v4.35c0 .12.09.18.18.18h2.82v.03Zm-10.379 0c.12 0 .18-.09.18-.18v-.72c0-.09-.09-.18-.18-.18h-1.92v-3.45c0-.09-.09-.18-.18-.18h-.72c-.12 0-.18.09-.18.18v4.35c0 .12.09.18.18.18h2.82Zm1.681-4.74h-.72c-.1 0-.18.08-.18.18v4.38c0 .1.08.18.18.18h.72c.1 0 .18-.08.18-.18v-4.38c0-.1-.08-.18-.18-.18Zm4.83 0h-.72c-.12 0-.18.09-.18.18v2.58l-1.98-2.7h-.69c-.12 0-.18.09-.18.18v4.35c0 .12.09.18.18.18h.72c.12 0 .18-.09.18-.18v-2.58l2.01 2.7.06.06h.75c.12 0 .18-.09.18-.18v-4.35c0-.12-.09-.18-.18-.18l-.15-.06Z"/></g><defs><clipPath id="a"><path fill="#fff" d="M.5 0h30v30H.5z"/></clipPath></defs></svg>