<svg xmlns="http://www.w3.org/2000/svg" width="182" height="33" fill="none"><path fill="#fff" d="M145.548 23.144h3.199V21.64h-3.199v1.504Zm0-1.95h3.199v-1.297h-3.199v1.297Zm2.835-4.86h-2.842v1.62h2.842v-1.62Zm-4.159 0h-2.808v1.62h2.808v-1.62Zm6.253-2.615c.625.535.954.879.954 1.03 0 .13-.062.192-.165.192h-5.725v1.03h2.63c.357-.358.611-.55.741-.563.117.013.371.15.741.418.33.268.508.446.508.55 0 .089-.075.178-.206.253-.206.151-.343.254-.37.316v.79a5.5 5.5 0 0 1 .075.597c0 .295-.24.46-.714.46-.357 0-.549-.076-.563-.254v-.179h-2.842v1.188h3c.419-.398.7-.611.845-.611.103 0 .329.137.686.398.357.316.535.522.535.638 0 .09-.075.165-.205.24-.09.062-.227.152-.385.282v.714h.254c.33-.583.536-.879.625-.892.062 0 .192.164.398.487.206.295.329.487.357.61 0 .152-.062.241-.179.241h-1.455v1.044c.048.508.076.947.076 1.324 0 .268-.309.42-.92.447-.295 0-.433-.103-.433-.296v-.61h-3.199v1.07c0 1.25-.624 1.874-1.846 1.874-.192 0-.295-.089-.295-.254-.062-.267-.24-.521-.563-.741-.227-.165-.549-.282-.995-.357.013-.062.027-.13.027-.24.343.027 1.043.027 2.094.027.164 0 .254-.13.254-.398v-.968c-1.964.014-3.522.062-4.696.117a3.306 3.306 0 0 1-.24-.639c.597.049 2.245.076 4.936.09V21.66h-3.7c-1.442.027-2.169.062-2.169.117a4.158 4.158 0 0 1-.282-.755c.206.061.968.13 2.293.192h3.865v-1.297h-.625c-1.737 0-3.021.047-3.824.116-.061-.178-.116-.37-.192-.597.639.075 2.066.103 4.284.103h.357v-1.188h-2.808v.179c-.062.295-.343.446-.817.446-.295 0-.474-.048-.535-.151 0-.535.013-1.057.061-1.558v-1.03c-.027-.432-.061-.686-.116-.776l1.338.508h2.883v-1.03h-2.395c-1.723 0-2.794.063-3.213.18a9.66 9.66 0 0 0-.357-.776c.714.103 1.95.15 3.686.15h2.273a11.431 11.431 0 0 0-.117-1.503c1.338.24 2.052.433 2.169.611 0 .09-.048.13-.117.151-.103.048-.24.103-.384.179-.151.075-.227.137-.227.192v.37h3.481c.446-.562.755-.906.968-1.03.048 0 .089.015.137.015.117.061.24.15.357.24m10.097 4.936c.419-.755.666-1.441.742-2.052h-3.982c.179.075.344.151.474.206.584.33.879.714.879 1.16-.014.33-.103.55-.268.666l-.014.014h2.169v.006Zm-4.715-4.681c.624.33.954.714.954 1.16-.014.33-.103.563-.268.686-.103.09-.254.138-.46.138-.329 0-.549-.22-.652-.7-.131-.399-.282-.714-.433-.92a3.908 3.908 0 0 0-.432-.563c.027-.048.076-.103.13-.165.474.09.865.206 1.161.37m9.665 1.477c.576.494.878.803.878.933 0 .151-.061.206-.164.206h-4.428c.92.295 1.38.536 1.38.687 0 .116-.282.206-.817.253-.295.42-.728.79-1.277 1.113h2.718c.419-.508.714-.804.907-.92.027 0 .061.013.103.013.102.062.226.13.343.227.563.487.865.803.865.933 0 .152-.062.207-.151.207h-5.513v1.187h2.334c.371-.446.653-.728.831-.83h.103c.089.061.192.116.295.205.522.446.79.742.79.865 0 .151-.062.206-.151.206h-4.208v1.263h3.837c.398-.508.7-.817.892-.933.028 0 .076.013.117.013.103.062.206.138.329.227.577.487.879.803.879.933 0 .151-.062.207-.165.207h-5.23c.741.665 1.517 1.125 2.334 1.393.919.357 1.976.55 3.164.577 0 .102-.014.192-.027.267-.09.014-.206.09-.357.24-.076.09-.165.268-.268.55-.062.178-.165.267-.295.267-.522 0-1.38-.343-2.602-1.009-1.023-.563-1.812-1.325-2.375-2.285h-.227v1.722c.028.584.062 1.277.062 2.115 0 .178-.267.295-.789.33-.419 0-.625-.076-.625-.207.028-.432.048-1.201.048-2.32v-.776c-1.441 1.044-3.405 1.902-5.869 2.602a6.336 6.336 0 0 1-.206-.281c2.32-.968 3.94-1.964 4.888-3.007.061-.062.116-.117.164-.178h-1.249c-1.723 0-2.807.061-3.226.178a11.098 11.098 0 0 0-.357-.769c.727.103 1.977.151 3.762.151h2.093v-1.263h-1.517c-1.29 0-2.093.062-2.409.178a10.17 10.17 0 0 0-.343-.775c.521.103 1.427.15 2.704.15h1.558v-1.187h-1.915c-1.606 0-2.588.062-2.972.165a8.505 8.505 0 0 0-.357-.755c.666.09 1.812.13 3.432.13h.419c-.117-.116-.206-.295-.268-.563a4.331 4.331 0 0 0-.371-.92c-.102-.178-.254-.356-.432-.562-1.593.013-2.588.075-2.986.164a4.936 4.936 0 0 0-.343-.755c.727.09 1.977.13 3.748.13h.535v-1.62c0-.61-.027-1.097-.075-1.468 1.29.192 1.949.357 1.949.508 0 .117-.089.192-.24.22-.268.116-.419.205-.419.281v2.08h1.366v-1.62c0-.611-.027-1.098-.075-1.47 1.29.193 1.949.358 1.949.509 0 .117-.089.192-.24.22-.268.116-.419.205-.419.281v2.08h.687c.521-.687.83-1.517.954-2.499.611.206 1.071.37 1.366.495.316.116.474.22.487.28 0 .09-.089.166-.254.193-.254.076-.418.117-.487.151-.282.563-.79 1.023-1.517 1.38h1.606c.398-.508.7-.803.892-.92.028 0 .076.014.117.014.103.062.206.13.33.22m10.791-1.793c.597.42.892.92.892 1.504-.014.33-.103.563-.268.687-.103.089-.254.13-.46.13-.295 0-.508-.295-.597-.906a5.469 5.469 0 0 0-.384-1.174 3.905 3.905 0 0 0-.433-.577c.028-.027.076-.089.138-.15.446.116.816.28 1.112.487Zm-5.046 2.053c0 .24-.013.46-.013.666h1.379v-2.203h-1.338c-.014.405-.028.906-.028 1.53m-.233 3.336c.178.014.357.014.549.014h1.057v-2.244h-1.4a19.002 19.002 0 0 1-.206 2.23Zm-.343 4.655c0 .418 0 .878.027 1.352h1.888v-3.24h-1.915v1.888Zm4.654-7.016c-.028.09-.076.137-.151.137h-1.325v3.09c0 .178-.206.28-.611.315-.371 0-.584-.048-.625-.13v-.625h-1.201c-.179 0-.33.014-.474.014-.13.7-.315 1.304-.521 1.84l.24.116h1.709c.385-.473.652-.714.803-.727.117.013.385.164.79.446.357.267.549.473.549.597v.014c.357.062.844.089 1.455.089h.892v-2.485h-.398c-.803 0-1.304.062-1.503.178a9.66 9.66 0 0 0-.357-.775c.295.103.789.15 1.503.15h.755v-2.244h-1.53Zm4.873 1.62c.522.446.79.741.79.865 0 .151-.062.206-.151.206h-2.574v2.485h1.009c.419-.508.714-.803.906-.92.027 0 .062.014.103.014.103.062.22.117.343.206.563.508.865.817.865.954s-.062.192-.151.192h-3.075v1.661c.027.639.061 1.4.061 2.293 0 .206-.281.33-.844.357-.446 0-.686-.075-.686-.22.027-.473.061-1.29.061-2.498v-1.593h-.549c-.92 0-1.489.062-1.709.179-.075-.179-.151-.344-.226-.522-.048.027-.076.062-.09.062-.219.178-.357.281-.384.343v2.039c.041.775.075 1.276.075 1.517 0 .33-.267.487-.775.508-.385 0-.597-.09-.611-.268v-.714h-1.874c0 .24.014.488.027.728-.075.254-.384.384-.954.384-.281 0-.419-.09-.419-.254.014-.79.028-1.647.028-2.602v-.61a4.469 4.469 0 0 1-1.517 1.2c0-.013-.028-.088-.076-.24.954-.967 1.558-2.484 1.861-4.55-.433.027-.804.061-1.099.089a3.678 3.678 0 0 1-.24-.639c.206.028.666.062 1.414.076.089-.687.137-1.428.165-2.204-1.201.028-1.812.076-1.812.117a5.424 5.424 0 0 1-.296-.776c.206.076.907.13 2.128.193v-.42c0-.356.014-.953.028-1.77h-.179c-.597 0-.968.048-1.098.103-.117-.193-.22-.447-.343-.742.219.117.652.193 1.277.24h2.78c.418-.384.7-.583.817-.583.206.09.432.22.652.398.343.254.521.433.521.55 0 .116-.178.315-.535.562v1.559c.329-.522.535-.79.638-.79.076 0 .22.165.46.474.09.117.151.206.206.295h2.561c.611-1.201.954-2.272 1.043-3.226 1.236.384 1.86.652 1.86.83 0 .117-.281.206-.83.254-.371.77-.934 1.483-1.71 2.142h1.236c.357-.474.597-.776.741-.865.014 0 .049-.014.09-.014.103.028.281.165.535.385.343.33.536.549.577.666 0 .15-.048.226-.103.24h-2.883V18.9h.7c.371-.446.638-.727.817-.83.027 0 .075.014.103.014.089.061.192.116.315.192M.454 12.717s.165.487.35.768l.337.543.027.336s.22.412.364.55c0 0 .281.617 1.222.48 0 0 .638-.2.61-.666 0 0 .145-.144.117-.474 0 0 .179-.274.2-.432 0 0 .233-.22-.399-.57l-.22-.213s-.411-.37-1.42-.707c0 0-.728-.302-1.03-.014 0 0-.178.049-.158.371m4.551-1.277-.034.213s-.165.302-.062.947c0 0 .096.68.295 1.01 0 0 .076.254.055.453 0 0 .076.46.776.412 0 0 .542-.035 1.243-.46 0 0 1.105-.316 1.86-.735l.748-.322s1.153-.454 1.627-.618c0 0 1.133-.495 2.643-.735 0 0 1.386-.199 3.597.082 0 0 1.07.097 2.1-.034 0 0 .323-.02.433-.412 0 0-.02-.116.096-.192 0 0 .123-.549-.666-.844 0 0-.46-.234-1.737-.35 0 0-.83-.247-1.784.02 0 0-.989.158-1.305.062 0 0-.48.034-.44-.316l-.013-1.07s-.062-.117 1.208-.53c0 0 .577-.335 1.105-1.152 0 0 .302-.46-.034-.735l-.26-.467-.914.062s-1.208.055-1.263-.494c0 0-.082.062.007-.83l.096-.893s.172-1.208.041-1.524c0 0-.178-1.112-1.956-1.483 0 0-1.208-.336-1.757-.02 0 0-.604.116-.323.734l.144 1.565s.02.2.165.35c0 0 .391 1.236.453 2.053 0 0 .055.549-.44.673 0 0-.837.377-1.839.39l-1.387.042S6.351 6.21 6.2 6.751c0 0-.062.261.014.598L6.31 8.37s.006.172.274.2l.494.35s.103.096.42-.035c0 0 1.585.083 2.409-.116 0 0 .906-.124 1.448-.179 0 0 .316-.055.254.735 0 0-.26 1.009-.947 1.324 0 0-.886.488-2.87.907 0 0-.528.15-.954.082l-.954-.076s-.577-.295-.872-.137M27.198 29.7c-.158-.371-.549-.275-.549-.275l-.412-.227-.885-.02-.316-.076c-.652-.199-2.231-.096-2.231-.096a146.614 146.614 0 0 0-2.883-.041c-.769.041-1.799-.192-1.799-.192-1.544-.392-2.004-.316-2.478-.392-.473-.075-.377.041-1.112-.199-.734-.24-1.88-.357-2.203-.37a2.68 2.68 0 0 1-.68-.124c-.618-.281-2.327-.796-2.327-.796l-.892-.282c-.893-.281-1.064-.515-1.064-.515-.37-.212-.213-.549-.213-.549.103-.274.556-.439.556-.439l.693-.474c.337-.055.79-.617.79-.617l.652-.515c.487-.193.487.363.487.363v1.524c.083.172.11.488.11.488.055.137.666.089.666.089l.117-.082c.315.123.521.027.521.027.453-.199.598-.68.598-.68.343-.212.439-.906.439-.906l.357-.954c.034-.494.494-.419.494-.419 1.112.138 2.162.852 2.162.852.213.096.412.322.412.322l.433-.027c.645.432.995.158.995.158.275.041.79-.096.79-.096.844-.145 1.221-.474 1.221-.474 1.106-.37 1.064-.529 1.064-.529.357-.343 0-.473 0-.473l-.59-.378a24.351 24.351 0 0 1-1.085-.075c-.274-.138-1.407-.302-1.407-.302l-.33-.055a130.02 130.02 0 0 1-1.461-.275c-.35-.075-.042-.302-.042-.302l1.23-.44c1.489-.514 1.846-.795 1.846-.795.281-.151.212-.687.212-.687-.281-.412-.33-.947-.33-.947-.033-1.044-.301-.975-.301-.975H17.8c-.186-.007-.7-.178-.7-.178-.447-.261-.515-.996-.515-.996-.22-.617.171-.96.171-.96.364-.392 1.154-1.51 1.154-1.51.418-.516-.323-.928-.323-.928l-.302-.178c-.302-.179-.35-.082-.35-.082l-.261.116c-.233-.02-1.469.096-1.469.096-3.048.453-3.714.81-3.714.81-1.325.453-1.86 1.181-1.86 1.181-.35.2-.638.55-.638.55-.337.493-.165 1.64-.165 1.64.075.302.055.995.055.995-.083.172-.391.337-.391.337-.055.555.356 1.153.356 1.153l.24.693c-.04.2.165.501.165.501.09.35-.144.645-.144.645-.233.138-.707.652-.707.652-.865.584-1.242 1.545-1.242 1.545-.453.26-.693.837-.693.837l-.021.172-.185.192c-.316.66-1.167.46-1.167.46-.296-.15-.275-.432-.275-.432l.034-1.188c.083-1.366-.192-1.764-.192-1.764-.096-.336-.13-1.325-.13-1.325.116-.364.034-1.187.034-1.187-.137-.158-.233-.989-.233-.989-.81-1.105-1.765-1.016-1.765-1.016-.04.076.055.927.055.927l.117.44c.028.219.041.754.041.754.103.46-.02 1.387-.02 1.387-.096.474-.041.933-.041.933l.027.927c-.062.556-.233 1.943-.233 1.943-.138.178-.193.44-.193.44-.096.555-.055 1.756-.055 1.756-.082.282.158.77.158.77.46.356.893.39.893.39l1.887.021c.392-.02 1.4.275 1.4.275 1.264.254 2.513.796 2.513.796 1.105.865 1.36.83 1.36.83.343.296 1.063.536 1.063.536l.378.22.33.123c.157.234 1.173.316 1.173.316l.639.275c.35.055 1.757.954 1.757.954l.673.014c0-.083.57-.378.57-.378l.164-.062c.233-.233.989-.46.989-.46 1.105-.123 1.283-.26 1.283-.26l1.38-.193 2.828-.075c1.071-.02 1.778.233 1.778.233.233.288.577.275.577.275.377.02.453-.433.453-.433.158-.055.171-.233.171-.233.103-.165.556-.639.556-.639.179-.171-.055-.39-.055-.39M13.649 20.52l.055-.755s.123-.267.322-.432c0 0 .419-.508.742-.604l.226-.268s.31-.521 1.133-.46l.377.041s.151.055.041.42c0 0-.068.46-.322.603 0 0-.227.405-.577.446 0 0-.295.35-.563.378 0 0-.473.226-.576.377l-.536.337s-.35.144-.336-.082m-2.622-5.307s.281-.309.576-.391l1.05-.165s.282-.014.433-.144c0 0 .213-.11.48-.069 0 0 .24-.068.364-.137 0 0 .392-.178.81.254 0 0 .24.185-.535.604 0 0-.206.46-.7.687l-.2.213-.445.24-.2.165-.144.027s-.46.309-.823.295c0 0-.337.082-.433-.226l-.185-.31-.014-.226s-.295-.46-.041-.817m38.399 5.211c.055-.885-.227-.913-.227-.913-.199-.082-.576-.212-.576-.212-.282-.296-.831-.563-.831-.563-.213-.186-.886-.728-.886-.728-.15-.24-.404-.467-.404-.467-.35-.576-.742-.741-.742-.741-.576-.281-.563.467-.563.467-.014.295.24 1.366.24 1.366l.083 2.038c-.041.447-.59 1.14-.59 1.14-.138.069-.522.487-.522.487l-.254.24c-.254.24-.797.618-.797.618-.336.35-1.475.79-1.475.79-.632.185-1.195.44-1.195.44-.15-.015-.83.164-.83.164-.447.014-1.771.069-1.771.069-1.263.04-2.121-.42-2.121-.42-.488-.267-1.058-.658-1.058-.658-.377-.2-.686-.632-.686-.632-.295-.336-.46-.926-.46-.926l.24-.392a.827.827 0 0 0 .268-.295c.158-.268.577-.405.577-.405.226-.171.727.151.727.151.103.11.495.24.495.24l.164.042c.419.213.687.055.687.055.185-.07.336-.31.336-.31.309-.137.426-.789.426-.789.15-.48.281-1.222.281-1.222.2-.309.185-.487.185-.487.028-.405.179-.872.179-.872l.391-1.558c.282-1.4.378-2.375.378-2.375.212-1.517.281-3.103.281-3.103.096-.171.151-.72.151-.72.096-.213.069-.433.069-.433-.124-.872-.728-1.01-.728-1.01l-.11-.013c-1.023-.494-2.176-.494-2.176-.494-1.49-.124-1.908.199-1.908.199-.336.11-1.373.604-1.373.604-.432.055-.913.419-.913.419-.734.213-1.867.803-1.867.803-.391.268-.94.226-.94.226-.488-.123-1.154-.871-1.154-.871-.137-.213-.521-.158-.521-.158-.405.391-.405 1.112-.405 1.112-.014.096-.055.522-.055.522-.144.39-.041 1.407-.041 1.407-.145.487-.014 1.984-.014 1.984-.11.04-.055 1.963-.055 1.963v.59c-.158.364-.124 1.222-.124 1.222 0 .405-.013 1.29-.013 1.29-.055.563.39 1.6.39 1.6a1.927 1.927 0 0 0 1.065.954l.178.13c.22.104.138.378.138.378-.042.096-.495.563-.495.563-.082 0-.418.226-.418.226-.138 0-.405.179-.405.179-.433.213-.996.227-.996.227-.24-.055-.858.082-.858.082-.844.199-.858.377-.858.377-.144.07-.055.254-.055.254.014.24.508.714.508.714.172.028.536.296.536.296.04.096.576.507.576.507a3.04 3.04 0 0 0 1.332.447c.632.11 1.448-.604 1.448-.604.79-.522.9-.742.9-.742l.377-.418c.24-.337.714-.605.714-.605.577-.535 1.01.083 1.01.083.294.295 1.111 1.084 1.111 1.084.337.433.872.742.872.742l.446.199c.419.281 1.332.535 1.332.535.494.254 2.766.2 2.766.2 1.462.11 2.63-.2 2.63-.2a16.85 16.85 0 0 0 1.73-.44c.658-.178 1.544-.686 1.544-.686a6.738 6.738 0 0 0 1.14-.576l.672-.522c1.304-.844 2.052-1.936 2.052-1.936.913-.94.831-1.95.831-1.95m-18.65-.24s.02-.28.425-.322c0 0 .123-.158.556-.041l.13.014s.069.157-.089.157c0 0-.048.165-.364.337 0 0-.213.192-.281.26 0 0-.35.213-.343 0 0 0-.103-.027-.028-.404m1.661-2.897s-1.359.185-1.558.226l-.185-.027s0-.158-.11-.137c0 0 .11-.254.082-.42l.041-.603s.042-.31.604-.405c0 0 .55-.014.776-.213 0 0 .927-.213 1.099-.55 0 0 .576-.123.617-.363 0 0 .179-.124.35-.419 0 0 .268-.199.268-.405 0 0 .158-.364 0-.466 0 0 .055-.2-.268-.2 0 0-.473-.199-1.098.055 0 0-1.112.296-1.304.35 0 0-.72.124-.913.014 0 0-.213-.055-.124-.185 0 0-.123-.755-.027-.982 0 0 .069-.35.535-.254l.467.096s.762.186.913.227c0 0-.165.041.48.027 0 0 .433.069.687.213 0 0 .391.185.817-.069l.425-.254s.165-.082.2-.24c0 0 .15-.192.226-.213 0 0 .082-.713-.268-.871 0 0-.508-.254-.714-.474 0 0-.377-.2-.755-.35 0 0-.35-.096-.466-.185 0 0-.165-.152.096-.186 0 0 .309-.082.604-.199 0 0 .48-.295 1.18-.041l.378.123s.419.097.46.804c0 0 .117 1.73.096 2.375 0 0 0 1.462-.227 2.444l-.082.604s-.268.363-.254.59c0 0-.137.172-.728.213 0 0-1.572.11-2.333.35M65.598 6.58c.082.268.11.624.027.926l-.46.488a45.27 45.27 0 0 0-2.47.892c-.653.35-1.442.323-2.142.543-1.085.164-2.094.487-3.151.707-.68.13-1.414.075-1.895-.378a1.435 1.435 0 0 1-.33-1.167c.35-.302.955-.082 1.38-.192.302-.137.653 0 .975-.055.378-.323.872-.432 1.298-.652l1.764-.165c.872-.487 1.846-.844 2.629-1.462.79-.24 1.798-.192 2.361.515m36.423-.261.137.165-.219.837c.219.213.357.542.137.783-.35.103-.618.35-.947.487-.323.11-.57.405-.893.487-.432.268-.92.248-1.407.103-.947.296-1.675-.405-2.279-1.03-.082-.219.137-.404.302-.46.323-.109.515-.487.838-.596l.92-.543c.514.055.892-.24 1.352-.295.302.028.542-.027.782-.137.488-.082.79.295 1.277.185M62.09 12.01c.22.33.165.816.604.981.7.055 1.27-.384 1.785-.899.44-.192.872-.542 1.414-.433.412.158.982.138 1.167.625.295.488-.103.947-.405 1.325-.872.522-1.737.954-2.656 1.387-.193.11-.433.302-.488.542-.11.68.378 1.167.735 1.654.59.378 1.112 1.003 1.627 1.49.274.57.899.975 1.036 1.572.618.542 1.277 1.14 1.95 1.627.652.377 1.304.79 1.928 1.249l.268.027 1.737 1.058c.734.137 1.352.734 1.792 1.331.02.24-.11.433-.248.625a2.343 2.343 0 0 1-.974.295l-1.682.165-1.847.082c-.672-.11-1.462.138-2.059-.247l-1.737-1.434c-1.194-1.69-2.141-3.501-3.308-5.21-.213-.625-.707-1.305-1.353-1.6-.295-.103-.57.082-.707.357-.192.734-.192 1.544-.35 2.306-.597 1.298-1.112 2.63-2.169 3.741-.405.57-.982.845-1.469 1.277-.625.22-1.25.46-1.95.433-.755-.186-1.791-.378-1.9-1.332-.248-.302-.083-.783-.248-1.14.213-.24.295-.652.645-.755h.66c.322.083.569.515.919.302.7-.624 1.442-1.386 1.764-2.224.632-.652.412-1.736.35-2.58-.322-.488-.755.082-1.215-.028-.926-.137-1.901-.515-2.313-1.462.055-.735.9-.295 1.36-.488.617-.11 1.214-.274 1.79-.57.323-.267.735-.35 1.085-.57.762-.136 1.682-.569 1.82-1.413-.11-.838.212-1.462.295-2.224.247-.495.816-.44 1.276-.495.44.055.948.165 1.085.653m24.197-2.417c.494.13.982.261 1.325.728-.027.515-.233 1.112-.748 1.373-.55.13-1.25.281-1.737-.076-.494-.206-.982-.521-1.586-.439-.727.103-1.53.178-1.997.83-.206.618.048 1.291.075 1.916-.103.384-.027.851-.027 1.215.075.672.13 1.428.24 2.1.028 1.4-.158 2.746.048 4.07-.178.337.028.701.028 1.038.075.933.597 1.764.336 2.745-.178.7-.103 1.531-.83 1.97-.412.289-.907.543-1.504.392-.645-.028-1.085-.646-1.318-1.188l-.158-.879c.048-.57.213-1.119.289-1.709.123-1.764.542-3.425.542-5.265.185-1.146.158-2.361.26-3.528.028-.673.104-1.428 0-2.073-.13-.158-.288-.261-.466-.234-.233.158-.522.158-.776.261-.624.392-1.174.858-1.791 1.14-.755.466-1.456 1.064-2.417.906-.494.075-.823-.206-1.215-.316-.57-.281-1.167-.515-1.736-.851-.44-.412-.955-.776-1.243-1.29.206-.316.645-.392 1.037-.447l.748-.103c1.167.31 2.361-.185 3.508-.364.926-.206 1.736-.652 2.718-.7.961-.26 1.95-.44 2.959-.624.748-.412 1.764-.261 2.54-.618.878-.646 1.942-.055 2.896.027"/><path fill="#fff" d="M89.054 17.474c.357.418.858.727.954 1.222-.103.624.048 1.345-.412 1.791l-.577.412c-.597 0-1.194 0-1.709-.206l-.158-.027c-.672-.494-.775-1.215-1.297-1.785-.26-.542-.776-1.174-.412-1.792.44-.542 1.243-.309 1.84-.233.624.103 1.277.178 1.764.618m23.545 7.352a1.069 1.069 0 0 0-.913-.378c-.467-.192-.872-.57-1.387-.652-.782-.488-1.674-.728-2.539-1.085-1.222-.405-2.355-.947-3.412-1.757-.57-.35-1.085-.837-1.647-1.242-.131-.193-.378-.33-.351-.57.275-.975.412-2.005.707-2.952l.357-1.435c.296-.46.103-1.084.378-1.537-.027-.597.405-1.002.378-1.572.082-.295.377-.543.672-.597.247-.247.543-.433.899-.433.296-.247.653-.302.893-.618.22-.46-.7-.46-.46-1.03-.028-.137-.192-.274-.323-.274-.597.082-1.139.22-1.702.24-.22.11-.378.275-.597.302-.405.24-.728.646-1.14.865-.624 1.188-1.915 1.353-2.787 2.224-.453.158-.837.488-1.242.783-1.325.92-2.622 1.867-4.057 2.547-.515.213-.975.624-1.517.755-.412.302-.79-.083-1.167-.186-.378.138-.083.515-.192.81.164.213.192.515.377.728.783.837 1.703 1.764 2.897 1.325.323-.323.734-.433 1.057-.762.35-.13.57-.625.975-.59.625.542 1.36 1.002 1.895 1.702.22.323 0 .7-.138 1.002-1.002 1.03-2.135 1.895-3.356 2.465l-1.058.24c-.432.055-.947.192-1.325-.076-.384-.137-.487-.57-.432-.947h-.082c-.165.165-.213.46-.165.728-.082.295-.487.377-.57.652.275.137.35.46.597.624.515.213.81.756 1.058 1.215.432.35.974.57 1.544.46.487.083.947-.11 1.435-.164.59-.186 1.112-.543 1.702-.755 1.14-.488 1.895-1.627 2.917-2.465l.186-.027c.707.295 1.112 1.112 1.682 1.654.727.81 1.407 1.867 2.464 2.19.542.35 1.222.165 1.84.165.432-.055.817-.248 1.27-.165.432-.192.947-.22 1.489-.192.412-.138.755-.378 1.249-.296.481-.13 1.167 0 1.62-.322.055-.192.158-.433.021-.597Zm-11.608-10.441c-.034.624-.329 1.132-.439 1.73-.268.377-.405.81-.46 1.27a.335.335 0 0 1-.377.185c-.618-.22-1.188-.597-1.758-.948-.165-.137-.46-.322-.295-.597.838-.92 1.785-1.784 2.65-2.677.302-.322.645-.515.974-.727l.138.13c-.138.542-.11 1.167-.433 1.627m28.172-4.448c.261.315.68.343.865.734.206.501.734.893.604 1.524-.158.323-.185.714-.583.872-.316.604-.762 1.229-1.387 1.606-.213.391-.501.838-.92 1.078-.679 1.208-1.977 1.888-3.027 2.677-.371.288-1.078.522-.947 1.153-.055.735-.186 1.47-.213 2.231.027.762-.083 1.654.659 2.183 1.18 1.002 2.917.343 4.228.055 1.243-.79 2.973-1.764 3.261-3.336-.083-.37.288-.529.419-.79.103-.652.185-1.338.418-1.922.316.138.076.556.234.762.11.398.158.79.343 1.154.027.37.103.741.233 1.077.131.392.158.865.447 1.209-.021.315.295.494.398.74-.103.207-.076.42-.076.632l-.268.577c-.391.288-.789.55-1.256.631-.631.316-1.311.502-1.949.79-.419.178-.893.158-1.291.364-.521.055-.995.11-1.503.158-.336.027-.707-.076-1.016 0-1.476 0-2.897-.213-4.078-1.003-.624-.418-.734-1.084-.947-1.688 0-.446-.103-.893-.185-1.311-.028-.742.082-1.497-.137-2.21-.261-.447-.81-.234-1.209-.42-.26-.343-.844-.288-.871-.734.288-.158.556.103.871.027.344-.185.913.104 1.133-.39.158-.474.021-.948-.027-1.422l.048-1.448c-.261-.316.109-.604.048-.947-.151-.838.137-1.737 0-2.602-.076-.714-.021-1.551-.755-1.867-.186-.028-.426-.083-.502-.288.055-.213.316-.289.502-.364.288.212.734-.103.919.26.11.735 1.003.392 1.215 1.078.577 1.106.838 2.341.735 3.707 0 .398 0 .893.082 1.29.103.186.337.186.495.131 1.05-.735 1.578-1.785 2.45-2.656.364-.399.735-.762.865-1.215.419-.42.494-.996.419-1.545-.261-.213-.522-.48-.817-.584-.103-.082-.103-.205-.028-.288.426-.446 1.106-.048 1.607-.343.343.027.316.426.473.659"/><path fill="#fff" d="m117.528 11.474.055.398c.501.522 1.022 1.03 1.393 1.634.371.584-.529.79-.707 1.236-.837 1.235-2.08 2.258-3.027 3.39-.048.522.446.818.398 1.34.522.493.686 1.16.947 1.763.124.872.494 1.813.186 2.712.151.398-.103.762-.186 1.153-.316.213-.316.79-.817.687-.659.15-.789-.604-1.05-.975.028-.309-.364-.419-.474-.68-.157-.844.186-1.709.103-2.574-.027-.474.076-.947-.055-1.42.028-.29 0-.578-.185-.79-.13-.158-.371-.158-.528-.103-.632.343-1.263.734-1.785 1.263l-.899.26-.735-.37c0-.26.35-.158.474-.343.659-.474 1.242-1.105 1.819-1.71 1.18-1.654 2.471-3.253 3.542-4.942.13-.494.769-.92.425-1.496.076-.447-.713-.687-.391-1.085.556.055 1.181.083 1.497.66"/></svg>