<svg xmlns="http://www.w3.org/2000/svg" width="140" height="140" fill="none"><path fill="#F8E800" d="M69.23 68.16c30.47 75.44-.04 89.09.74-.33-.79 89.42-31.06 75.24.74.35-31.8 74.89-63.02 62.96.76.29-63.79 62.67-75.16 31.24.28.77-75.44 30.47-89.09-.04.33.74-89.42-.79-75.24-31.06-.35.74-74.89-31.8-62.96-63.02-.29.76-62.67-63.79-31.24-75.16-.77.28-30.47-75.44.04-89.09-.74.33.79-89.42 31.06-75.24-.74-.35 31.8-74.89 63.02-62.96-.76-.29 63.79-62.67 75.16-31.24-.28-.77 75.44-30.47 89.09.04-.33-.74 89.42.79 75.24 31.06.35-.74 74.89 31.8 62.96 63.02.29-.76 62.67 63.79 31.24 75.16.77-.28Z"/></svg>