<svg xmlns="http://www.w3.org/2000/svg" width="140" height="140" fill="none"><path fill="#F8E800" d="M132.74 70.37c0 4.28-29.17 4.67-30.22 8.62-1.09 4.09 23.94 19 21.87 22.58-2.07 3.58-27.54-10.62-30.49-7.67-2.94 2.94 11.3 28.39 7.67 30.49-3.63 2.1-18.49-22.96-22.58-21.87-3.95 1.06-4.34 30.22-8.62 30.22-4.28 0-4.67-29.17-8.62-30.22-4.09-1.09-19 23.94-22.58 21.87-3.58-2.07 10.62-27.54 7.67-30.49-2.94-2.94-28.39 11.3-30.49 7.67-2.07-3.58 22.96-18.49 21.87-22.58C37.16 75.04 8 74.65 8 70.37c0-4.28 29.17-4.67 30.22-8.62 1.09-4.09-23.94-19-21.87-22.58 2.1-3.63 27.54 10.62 30.49 7.67 2.94-2.94-11.3-28.39-7.67-30.49 3.58-2.07 18.49 22.96 22.58 21.87C65.7 37.16 66.09 8 70.37 8c4.28 0 4.67 29.17 8.62 30.22 4.09 1.09 19-23.94 22.58-21.87 3.63 2.1-10.62 27.54-7.67 30.49 2.94 2.94 28.39-11.3 30.49-7.67 2.07 3.58-22.96 18.49-21.87 22.58 1.06 3.95 30.22 4.34 30.22 8.62Z"/></svg>