<?xml version="1.0" encoding="UTF-8"?>
<svg id="_圖層_1" data-name="圖層_1" xmlns="http://www.w3.org/2000/svg" version="1.1" viewBox="0 0 50 50">
  <!-- Generator: Adobe Illustrator 29.1.0, SVG Export Plug-In . SVG Version: 2.1.0 Build 142)  -->
  <path d="M11.2,7.5h8.2l11.2,35h-7.3l-2.5-9h-11.3l-2.5,9H0L11.2,7.5ZM11,28.1h8.3l-1-3.8c-1.1-3.6-2-7.7-3-11.4h-.2c-.9,3.8-1.9,7.8-3,11.4l-1,3.8Z"/>
  <path d="M36.8,12.8h6.3l6.8,22h-5.6l-1.3-5.1h-6.5l-1.3,5.1h-5.4l6.8-22ZM37.7,25.7h4.5l-.5-1.9c-.6-2.2-1.2-4.8-1.7-7.1h-.1c-.5,2.3-1.1,4.9-1.7,7.1l-.5,1.9Z"/>
</svg>