<?xml version="1.0" encoding="UTF-8"?>
<svg id="_圖層_1" data-name="圖層_1" xmlns="http://www.w3.org/2000/svg" version="1.1" viewBox="0 0 291.3 139.8">
  <!-- Generator: Adobe Illustrator 29.1.0, SVG Export Plug-In . SVG Version: 2.1.0 Build 142)  -->
  <defs>
    <style>
      .st0, .st1 {
        fill: #1877f2;
      }

      .st2 {
        fill: #fff;
      }

      .st3 {
        fill: none;
        stroke: #f8e800;
        stroke-miterlimit: 10;
        stroke-width: 1px;
      }

      .st1 {
        opacity: .2;
      }
    </style>
  </defs>
  <rect class="st2" width="291.3" height="139.8"/>
  <rect class="st1" width="291.3" height="139.8"/>
  <path class="st0" d="M287.4,3.9v132H3.9V3.9h283.5M291.3,0H0v139.8h291.3V0h0Z"/>
  <g>
    <circle class="st2" cx="52.8" cy="44.4" r="32.9"/>
    <path d="M44.3,11.5c-18.2,0-32.9,14.8-32.9,33.1s12.8,31,29.2,32.8v-.2s-.1-23.6-.1-23.6h-7.2v-9.1h7.2s.2-5,.2-7.2c0-2.2,0-6.6,4.7-10.4,4.7-3.8,15.5-1.6,15.5-1.6v7.8s-3.1,0-5.8,0c-1.9.1-3,.9-4.1,1.5-1.1.6-1.2,3.9-1.2,3.9v5.7c0,0,9.6.3,9.6.3l-1.4,8.9h-6.4v23.1c14.7-3.3,25.7-16.5,25.7-32.2S62.5,11.5,44.3,11.5Z"/>
  </g>
  <path class="st3" d="M263.8,0"/>
  <path class="st3" d="M99.4,139.8"/>
  <path class="st3" d="M284.2,0"/>
  <path class="st3" d="M119.8,139.8"/>
  <g>
    <g>
      <circle class="st0" cx="105.9" cy="34.9" r="1.9"/>
      <circle class="st0" cx="129" cy="34.9" r="1.9"/>
      <circle class="st0" cx="152" cy="34.9" r="1.9"/>
      <circle class="st0" cx="175" cy="34.9" r="1.9"/>
      <circle class="st0" cx="198" cy="34.9" r="1.9"/>
      <circle class="st0" cx="221" cy="34.9" r="1.9"/>
      <circle class="st0" cx="244.1" cy="34.9" r="1.9"/>
      <circle class="st0" cx="267.1" cy="34.9" r="1.9"/>
    </g>
    <g>
      <circle class="st0" cx="105.9" cy="19.7" r="1.9"/>
      <circle class="st0" cx="129" cy="19.7" r="1.9"/>
      <circle class="st0" cx="152" cy="19.7" r="1.9"/>
      <circle class="st0" cx="175" cy="19.7" r="1.9"/>
      <circle class="st0" cx="198" cy="19.7" r="1.9"/>
      <circle class="st0" cx="221" cy="19.7" r="1.9"/>
      <circle class="st0" cx="244.1" cy="19.7" r="1.9"/>
      <circle class="st0" cx="267.1" cy="19.7" r="1.9"/>
    </g>
    <g>
      <circle class="st0" cx="105.9" cy="50.1" r="1.9"/>
      <circle class="st0" cx="129" cy="50.1" r="1.9"/>
      <circle class="st0" cx="152" cy="50.1" r="1.9"/>
      <circle class="st0" cx="175" cy="50.1" r="1.9"/>
      <circle class="st0" cx="198" cy="50.1" r="1.9"/>
      <circle class="st0" cx="221" cy="50.1" r="1.9"/>
      <circle class="st0" cx="244.1" cy="50.1" r="1.9"/>
      <circle class="st0" cx="267.1" cy="50.1" r="1.9"/>
    </g>
    <g>
      <circle class="st0" cx="105.9" cy="65.3" r="1.9"/>
      <circle class="st0" cx="129" cy="65.3" r="1.9"/>
      <circle class="st0" cx="152" cy="65.3" r="1.9"/>
      <circle class="st0" cx="175" cy="65.3" r="1.9"/>
      <circle class="st0" cx="198" cy="65.3" r="1.9"/>
      <circle class="st0" cx="221" cy="65.3" r="1.9"/>
      <circle class="st0" cx="244.1" cy="65.3" r="1.9"/>
      <circle class="st0" cx="267.1" cy="65.3" r="1.9"/>
    </g>
  </g>
</svg>