<?xml version="1.0" encoding="UTF-8"?>
<svg id="_圖層_1" xmlns="http://www.w3.org/2000/svg" version="1.1" viewBox="0 0 360.3 139.8">
  <!-- Generator: Adobe Illustrator 29.2.1, SVG Export Plug-In . SVG Version: 2.1.0 Build 116)  -->
  <defs>
    <style>
      .st0, .st1 {
        fill: #00b900;
      }

      .st2 {
        fill: #fff;
      }

      .st1 {
        isolation: isolate;
        opacity: .2;
      }
    </style>
  </defs>
  <path class="st2" d="M0,0h360.3v139.8H0V0Z"/>
  <path class="st1" d="M0,0h360.3v139.8H0V0Z"/>
  <circle class="st2" cx="52.8" cy="44.4" r="32.9"/>
  <circle class="st0" cx="105.9" cy="34.9" r="1.9"/>
  <circle class="st0" cx="129" cy="34.9" r="1.9"/>
  <circle class="st0" cx="152" cy="34.9" r="1.9"/>
  <circle class="st0" cx="175" cy="34.9" r="1.9"/>
  <circle class="st0" cx="198" cy="34.9" r="1.9"/>
  <circle class="st0" cx="221" cy="34.9" r="1.9"/>
  <circle class="st0" cx="244.1" cy="34.9" r="1.9"/>
  <circle class="st0" cx="267.1" cy="34.9" r="1.9"/>
  <circle class="st0" cx="105.9" cy="19.7" r="1.9"/>
  <circle class="st0" cx="129" cy="19.7" r="1.9"/>
  <circle class="st0" cx="152" cy="19.7" r="1.9"/>
  <circle class="st0" cx="175" cy="19.7" r="1.9"/>
  <circle class="st0" cx="198" cy="19.7" r="1.9"/>
  <circle class="st0" cx="221" cy="19.7" r="1.9"/>
  <circle class="st0" cx="244.1" cy="19.7" r="1.9"/>
  <circle class="st0" cx="267.1" cy="19.7" r="1.9"/>
  <circle class="st0" cx="105.9" cy="50.1" r="1.9"/>
  <circle class="st0" cx="129" cy="50.1" r="1.9"/>
  <circle class="st0" cx="152" cy="50.1" r="1.9"/>
  <circle class="st0" cx="175" cy="50.1" r="1.9"/>
  <circle class="st0" cx="198" cy="50.1" r="1.9"/>
  <circle class="st0" cx="221" cy="50.1" r="1.9"/>
  <circle class="st0" cx="244.1" cy="50.1" r="1.9"/>
  <circle class="st0" cx="267.1" cy="50.1" r="1.9"/>
  <circle class="st0" cx="105.9" cy="65.3" r="1.9"/>
  <circle class="st0" cx="129" cy="65.3" r="1.9"/>
  <circle class="st0" cx="152" cy="65.3" r="1.9"/>
  <circle class="st0" cx="175" cy="65.3" r="1.9"/>
  <circle class="st0" cx="198" cy="65.3" r="1.9"/>
  <circle class="st0" cx="221" cy="65.3" r="1.9"/>
  <circle class="st0" cx="244.1" cy="65.3" r="1.9"/>
  <circle class="st0" cx="267.1" cy="65.3" r="1.9"/>
  <circle class="st0" cx="290.1" cy="34.9" r="1.9"/>
  <circle class="st0" cx="290.1" cy="19.7" r="1.9"/>
  <circle class="st0" cx="290.1" cy="50.1" r="1.9"/>
  <circle class="st0" cx="290.1" cy="65.3" r="1.9"/>
  <circle class="st0" cx="313.1" cy="34.9" r="1.9"/>
  <circle class="st0" cx="313.1" cy="19.7" r="1.9"/>
  <circle class="st0" cx="313.1" cy="50.1" r="1.9"/>
  <circle class="st0" cx="313.1" cy="65.3" r="1.9"/>
  <circle class="st0" cx="336.1" cy="34.9" r="1.9"/>
  <circle class="st0" cx="336.1" cy="19.7" r="1.9"/>
  <circle class="st0" cx="336.1" cy="50.1" r="1.9"/>
  <circle class="st0" cx="336.1" cy="65.3" r="1.9"/>
  <path d="M44.3,11.5c-18.2,0-32.9,14.8-32.9,32.9s14.8,32.9,32.9,32.9,32.9-14.8,32.9-32.9S62.5,11.5,44.3,11.5ZM65,50.4s-3.7,8.9-16.9,14.3c-.3,0-.7,0-.7-.5l.2-2.1c0-1.3-1-2.4-2.3-2.4h-1c-12.3,0-22.3-8.2-22.3-18.3s10-18.3,22.3-18.3,22.3,8.2,22.3,18.3-.4,6.7-1.6,8.9h0Z"/>
  <path d="M34.8,44.4h-2.7v-6.8c0-.3-.1-.6-.3-.8-.2-.2-.6-.3-1-.3s-.7,0-1,.3c-.2.2-.3.5-.3.8v7.9c0,.4.1.7.3.9.2.2.5.3.9.3h4.1c.3,0,.6,0,.8-.3s.3-.5.3-.9,0-.7-.3-.9-.5-.3-.8-.3h0ZM32,44.8h0c0,0,0,0,0,0ZM38.7,36.6c-.4,0-.7,0-1,.3-.2.2-.3.5-.3.8v8c0,.3,0,.5.3.7s.6.4,1,.4.7,0,1-.3c.2-.2.3-.5.3-.8v-8c0-.3,0-.6-.3-.8s-.6-.3-1-.3ZM48.8,36.6c-.4,0-.7,0-.9.3s-.3.4-.3.8v4.1l-2.5-4.4c-.3-.5-.7-.8-1.3-.8h-.2c-.4,0-.7,0-.9.3s-.3.5-.3.9v7.9c0,.4.2.6.3.8.2.2.5.3.9.3s.7,0,.9-.3.3-.4.3-.8v-4.1l2.5,4.5c.3.5.7.7,1.3.7h.2c.4,0,.7,0,.9-.3s.3-.4.3-.9v-7.9c0-.4-.2-.6-.3-.8-.2-.2-.5-.3-.9-.3ZM58.8,44.7c0,0-.4-.3-.8-.3h-3v-1.8h2.2c.3,0,.6,0,.8-.3s.3-.5.3-.9,0-.7-.3-.9-.5-.3-.8-.3h-2.2v-1.3h2.9c.4,0,.7-.2.8-.3.2-.2.3-.5.3-.9s0-.7-.3-.9-.4-.3-.8-.3h-4.2c-.4,0-.7,0-.9.3s-.3.5-.3.9v7.8c0,.4,0,.7.3.9s.5.3.9.3h4.3c.4,0,.7-.2.8-.3.2-.2.3-.5.3-.9s0-.7-.3-.9h0ZM55,45h0c0,0,0,0,0,0Z"/>
  <path class="st0" d="M356.3,4v131.8H4V4h352.3M360.3,0H0v139.8h360.3V0h0Z"/>
</svg>