<?xml version="1.0" encoding="UTF-8"?>
<svg id="_圖層_1" data-name="圖層_1" xmlns="http://www.w3.org/2000/svg" version="1.1" viewBox="0 0 291.3 139.8">
  <!-- Generator: Adobe Illustrator 29.1.0, SVG Export Plug-In . SVG Version: 2.1.0 Build 142)  -->
  <defs>
    <style>
      .st0, .st1 {
        fill: #00b900;
      }

      .st2 {
        fill: #fff;
      }

      .st3 {
        fill: none;
        stroke: #f8e800;
        stroke-miterlimit: 10;
        stroke-width: 1px;
      }

      .st1 {
        opacity: .2;
      }
    </style>
  </defs>
  <rect class="st2" y="0" width="291.3" height="139.8"/>
  <rect class="st1" y="0" width="291.3" height="139.8"/>
  <path class="st0" d="M287.4,3.9v132H3.9V3.9h283.5M291.3,0H0v139.8h291.3V0h0Z"/>
  <circle class="st2" cx="52.8" cy="44.4" r="32.9"/>
  <path class="st3" d="M263.8,0"/>
  <path class="st3" d="M99.4,139.8"/>
  <path class="st3" d="M284.2,0"/>
  <path class="st3" d="M119.8,139.8"/>
  <g>
    <g>
      <circle class="st0" cx="105.9" cy="34.9" r="1.9"/>
      <circle class="st0" cx="129" cy="34.9" r="1.9"/>
      <circle class="st0" cx="152" cy="34.9" r="1.9"/>
      <circle class="st0" cx="175" cy="34.9" r="1.9"/>
      <circle class="st0" cx="198" cy="34.9" r="1.9"/>
      <circle class="st0" cx="221" cy="34.9" r="1.9"/>
      <circle class="st0" cx="244.1" cy="34.9" r="1.9"/>
      <circle class="st0" cx="267.1" cy="34.9" r="1.9"/>
    </g>
    <g>
      <circle class="st0" cx="105.9" cy="19.7" r="1.9"/>
      <circle class="st0" cx="129" cy="19.7" r="1.9"/>
      <circle class="st0" cx="152" cy="19.7" r="1.9"/>
      <circle class="st0" cx="175" cy="19.7" r="1.9"/>
      <circle class="st0" cx="198" cy="19.7" r="1.9"/>
      <circle class="st0" cx="221" cy="19.7" r="1.9"/>
      <circle class="st0" cx="244.1" cy="19.7" r="1.9"/>
      <circle class="st0" cx="267.1" cy="19.7" r="1.9"/>
    </g>
    <g>
      <circle class="st0" cx="105.9" cy="50.1" r="1.9"/>
      <circle class="st0" cx="129" cy="50.1" r="1.9"/>
      <circle class="st0" cx="152" cy="50.1" r="1.9"/>
      <circle class="st0" cx="175" cy="50.1" r="1.9"/>
      <circle class="st0" cx="198" cy="50.1" r="1.9"/>
      <circle class="st0" cx="221" cy="50.1" r="1.9"/>
      <circle class="st0" cx="244.1" cy="50.1" r="1.9"/>
      <circle class="st0" cx="267.1" cy="50.1" r="1.9"/>
    </g>
    <g>
      <circle class="st0" cx="105.9" cy="65.3" r="1.9"/>
      <circle class="st0" cx="129" cy="65.3" r="1.9"/>
      <circle class="st0" cx="152" cy="65.3" r="1.9"/>
      <circle class="st0" cx="175" cy="65.3" r="1.9"/>
      <circle class="st0" cx="198" cy="65.3" r="1.9"/>
      <circle class="st0" cx="221" cy="65.3" r="1.9"/>
      <circle class="st0" cx="244.1" cy="65.3" r="1.9"/>
      <circle class="st0" cx="267.1" cy="65.3" r="1.9"/>
    </g>
  </g>
  <g>
    <path d="M44.3,11.5c-18.2,0-32.9,14.8-32.9,32.9s14.8,32.9,32.9,32.9,32.9-14.8,32.9-32.9S62.5,11.5,44.3,11.5ZM65,50.4s-3.7,8.9-16.9,14.3c-.3.1-.7-.1-.7-.5l.2-2.1c0-1.3-1-2.4-2.3-2.4-.3,0-.7,0-1,0-12.3,0-22.3-8.2-22.3-18.3s10-18.3,22.3-18.3,22.3,8.2,22.3,18.3-.4,6.7-1.6,8.9Z"/>
    <g>
      <path d="M34.8,44.4h-2.7v-6.8c0-.3-.1-.6-.3-.8-.2-.2-.6-.3-1-.3s-.7.1-1,.3c-.2.2-.3.5-.3.8v7.9c0,.4.1.7.3.9.2.2.5.3.9.3h4.1c.3,0,.6-.1.8-.3.2-.2.3-.5.3-.9h0c0-.4-.1-.7-.3-.9-.2-.2-.5-.3-.8-.3ZM32,44.8s0,0,0,.1c0,0,0,0,0-.1h0Z"/>
      <path d="M38.7,36.6c-.4,0-.7.1-1,.3-.2.2-.3.5-.3.8v8s0,0,0,0c0,.3.1.5.3.7.2.2.6.4,1,.4s.7-.1,1-.3c.2-.2.3-.5.3-.8v-8c0-.3-.1-.6-.3-.8-.2-.2-.6-.3-1-.3Z"/>
      <path d="M48.8,36.6c-.4,0-.7.1-.9.3-.1.1-.3.4-.3.8v4.1l-2.5-4.4c-.3-.5-.7-.8-1.3-.8h-.2c-.4,0-.7.1-.9.3-.2.2-.3.5-.3.9v7.9c0,.4.2.6.3.8.2.2.5.3.9.3s.7-.1.9-.3c.1-.1.3-.4.3-.8v-4.1s2.5,4.5,2.5,4.5c.3.5.7.7,1.3.7h.2c.4,0,.7-.1.9-.3s.3-.4.3-.9v-7.9c0-.4-.2-.6-.3-.8-.2-.2-.5-.3-.9-.3Z"/>
      <path d="M58.8,44.7c-.1-.1-.4-.3-.8-.3h-3v-1.8h2.2c.3,0,.6-.1.8-.3.2-.2.3-.5.3-.9h0c0-.4-.1-.7-.3-.9-.2-.2-.5-.3-.8-.3h-2.2v-1.3h2.9c.4,0,.7-.2.8-.3.2-.2.3-.5.3-.9s-.1-.7-.3-.9c-.1-.1-.4-.3-.8-.3h-4.2c-.4,0-.7.1-.9.3-.2.2-.3.5-.3.9v7.8c0,.4.1.7.3.9.2.2.5.3.9.3h4.3c.4,0,.7-.2.8-.3.2-.2.3-.5.3-.9s-.1-.7-.3-.9ZM55,45s0,0,0-.1h0s0,0,0,.1Z"/>
    </g>
  </g>
</svg>