<svg width="80" height="80" viewBox="0 0 80 80" fill="none" xmlns="http://www.w3.org/2000/svg">
<path d="M55.7 32.16H55.58C55 34.62 54.34 37.18 53.66 39.52L53 41.98H58.34L57.68 39.52C56.98 37.18 56.38 34.6 55.7 32.16Z" fill="#515050"/>
<path d="M30.06 27.46H29.86C28.94 31.4 27.86 35.48 26.8 39.22L25.74 43.16H34.28L33.22 39.22C32.1 35.48 31.14 31.36 30.06 27.46Z" fill="#515050"/>
<path d="M40.1 0C17.9 0 0 17.84 0 40C0 62.14 17.9 80 40.1 80C62.14 80 80.02 62.04 80 39.94C79.98 17.92 62.08 0 40.1 0ZM38.36 57.98L35.84 48.76H24.18L21.66 57.98H14.38L25.9 22.04H34.36L45.92 57.98H38.4H38.36ZM60.9 51.24L59.32 45.46H52.02L50.44 51.24H45.88L53.08 28.74H58.36L65.6 51.24H60.88H60.9Z" fill="#515050"/>
</svg>
