<svg width="80" height="80" viewBox="0 0 80 80" fill="none" xmlns="http://www.w3.org/2000/svg">
<path d="M39.9905 0C17.9074 0 0 17.9074 0 39.9998C0 62.0922 17.9074 79.9996 39.9998 79.9996C62.0922 79.9996 79.9996 62.0922 79.9996 39.9998C79.9996 17.9074 62.0829 0 39.9905 0ZM65.1095 47.146C65.1095 47.146 60.6069 58.01 44.5678 64.5396C44.1661 64.6984 43.7364 64.3902 43.7644 63.9605L43.9606 61.3823C44.082 59.7942 42.7929 58.4491 41.2049 58.5051C40.8032 58.5238 40.3922 58.5238 39.9905 58.5238C25.0723 58.5238 12.9752 48.5659 12.9752 36.2726C12.9752 23.9793 25.0723 14.0214 39.9905 14.0214C54.9087 14.0214 67.0058 23.9793 67.0058 36.2726C67.0058 39.458 66.5761 44.3903 65.1095 47.1366V47.146Z" fill="#515050"/>
<path d="M28.4072 39.9344H25.0816V31.7327C25.0816 31.3684 24.9602 31.0508 24.7173 30.8079C24.4371 30.5276 24.0447 30.3875 23.5403 30.3875C23.0359 30.3875 22.6435 30.5276 22.3633 30.8079C22.1204 31.0508 21.999 31.3684 21.999 31.7327V41.3356C21.999 41.784 22.1297 42.139 22.4006 42.4099C22.6622 42.6715 23.0265 42.8116 23.4749 42.8116H28.4072C28.7808 42.8116 29.1078 42.6808 29.36 42.4286C29.6122 42.1764 29.743 41.8214 29.743 41.373V41.345C29.743 40.9059 29.6122 40.5603 29.36 40.3081C29.1078 40.0559 28.7808 39.9251 28.4072 39.9251V39.9344ZM25.091 40.4482C25.091 40.4482 25.1096 40.5323 25.1096 40.5883C25.1096 40.5416 25.1096 40.4949 25.091 40.4575V40.4482Z" fill="#515050"/>
<path d="M33.1993 30.3875C32.6948 30.3875 32.3025 30.5276 32.0223 30.8079C31.7794 31.0508 31.658 31.3684 31.658 31.7327V41.4664C31.658 41.4664 31.658 41.4851 31.658 41.4944C31.6766 41.8494 31.8074 42.1577 32.0223 42.3725C32.2932 42.6621 32.6948 42.8116 33.1993 42.8116C33.7037 42.8116 34.0961 42.6715 34.3763 42.3912C34.6192 42.1483 34.7406 41.8307 34.7406 41.4664V31.7327C34.7406 31.3684 34.6192 31.0508 34.3763 30.8079C34.0961 30.5276 33.7037 30.3875 33.1993 30.3875Z" fill="#515050"/>
<path d="M45.5019 30.3875C45.0161 30.3875 44.6331 30.5277 44.3622 30.7986C44.1941 30.9667 43.9979 31.2656 43.9979 31.7327V36.6463L40.9526 31.3123C40.6444 30.7145 40.0932 30.3875 39.4113 30.3875H39.1404C38.692 30.3875 38.337 30.5183 38.0661 30.7892C37.8046 31.0508 37.6645 31.4151 37.6645 31.8635V41.4664C37.6645 41.9428 37.8606 42.2417 38.0288 42.4006C38.2997 42.6715 38.6827 42.8116 39.1684 42.8116C39.6542 42.8116 40.0465 42.6715 40.3081 42.4006C40.4762 42.2324 40.6724 41.9335 40.6724 41.4664V36.4875L43.7364 41.9148C44.0727 42.494 44.6144 42.8116 45.2777 42.8116H45.5206C45.9689 42.8116 46.3239 42.6808 46.5948 42.4099C46.7817 42.2231 46.9965 41.8961 46.9965 41.3356V31.7327C46.9965 31.2563 46.8003 30.9574 46.6322 30.7986C46.3613 30.5277 45.9783 30.3875 45.4925 30.3875H45.5019Z" fill="#515050"/>
<path d="M57.6083 40.3174C57.4308 40.1493 57.1319 39.9344 56.6461 39.9344H53.0217V37.7766H55.7307C56.1044 37.7766 56.4313 37.6458 56.6835 37.3936C56.9357 37.1414 57.0665 36.7864 57.0665 36.338V36.31C57.0665 35.8709 56.9357 35.5253 56.6835 35.2731C56.4313 35.0209 56.1044 34.8901 55.7307 34.8901H53.0217V33.2553H56.4873C56.9731 33.2553 57.2814 33.0498 57.4495 32.8723C57.7017 32.6201 57.8325 32.2652 57.8325 31.8168C57.8325 31.3684 57.7017 31.0134 57.4495 30.7612C57.272 30.593 56.9731 30.3782 56.4873 30.3782H51.4056C50.9572 30.3782 50.6023 30.509 50.3314 30.7799C50.0698 31.0414 49.9297 31.4057 49.9297 31.8541V41.3263C49.9297 41.7747 50.0605 42.1297 50.3314 42.4006C50.5929 42.6621 50.9572 42.8022 51.4056 42.8022H56.6368C57.1226 42.8022 57.4308 42.5967 57.599 42.4192C57.8512 42.167 57.982 41.812 57.982 41.3637C57.982 40.9153 57.8512 40.5603 57.599 40.3081L57.6083 40.3174ZM53.0404 40.579C53.0404 40.579 53.0404 40.4856 53.0217 40.4482C53.0217 40.4482 53.0404 40.5323 53.0404 40.579Z" fill="#515050"/>
</svg>
