<svg width="80" height="80" viewBox="0 0 80 80" fill="none" xmlns="http://www.w3.org/2000/svg">
<path d="M40 0C17.9 0 0 17.9 0 40C0 62.1 17.9 80 40 80C62.1 80 80 62.1 80 40C80 17.9 62.08 0 40 0ZM45.48 51.92L38.78 58.62C36.46 60.94 33.36 62.22 30.08 62.22C26.8 62.22 23.7 60.94 21.38 58.62C19.06 56.3 17.78 53.2 17.78 49.92C17.78 46.64 19.06 43.54 21.38 41.22L28.08 34.52C28.86 33.74 30.12 33.74 30.9 34.52C31.68 35.3 31.68 36.56 30.9 37.34L24.2 44.04C22.62 45.6 21.76 47.7 21.76 49.92C21.76 52.14 22.62 54.22 24.2 55.8C25.78 57.36 27.86 58.24 30.08 58.24C32.3 58.24 34.38 57.38 35.96 55.8L42.66 49.1C43.44 48.32 44.7 48.32 45.48 49.1C46.26 49.88 46.26 51.14 45.48 51.92ZM48.78 28.38C49.56 27.6 50.82 27.6 51.6 28.38C52.38 29.16 52.38 30.42 51.6 31.2L31.18 51.62C30.78 52.02 30.28 52.2 29.76 52.2C29.24 52.2 28.74 52 28.34 51.62C27.56 50.84 27.56 49.58 28.34 48.8L48.76 28.38H48.78ZM58.6 38.78L51.9 45.48C51.5 45.88 51 46.06 50.48 46.06C49.96 46.06 49.46 45.86 49.06 45.48C48.28 44.7 48.28 43.44 49.06 42.66L55.76 35.96C57.34 34.4 58.2 32.3 58.2 30.08C58.2 27.86 57.34 25.78 55.76 24.2C54.18 22.64 52.1 21.76 49.88 21.76C47.66 21.76 45.58 22.62 44 24.2L37.3 30.9C36.52 31.68 35.26 31.68 34.48 30.9C33.7 30.12 33.7 28.86 34.48 28.08L41.18 21.38C43.5 19.06 46.6 17.78 49.88 17.78C53.16 17.78 56.26 19.06 58.58 21.38C60.9 23.7 62.18 26.8 62.18 30.08C62.18 33.36 60.9 36.46 58.58 38.78H58.6Z" fill="#515050"/>
</svg>
