<svg width="80" height="80" viewBox="0 0 80 80" fill="none" xmlns="http://www.w3.org/2000/svg">
<path d="M39.9908 80C17.9358 79.9439 -0.0930525 62.0344 0.000361378 39.7993C0.0937752 17.8632 17.9825 -0.0930619 40.2057 0.000362918C62.1393 0.0937877 80.1775 18.0033 80 40.3412C79.8225 62.1652 62.0552 79.9346 39.9908 80ZM65.8571 40.173C65.8571 36.5201 65.8571 32.8672 65.8571 29.2143C65.8571 28.3361 65.8011 27.4579 65.6329 26.5984C64.6895 21.7777 62.0365 18.2182 57.6928 15.9199C55.5723 14.7988 53.293 14.3037 50.9109 14.3037C43.7741 14.285 36.6279 14.3037 29.4911 14.3037C28.7251 14.3037 27.9685 14.3411 27.2118 14.4345C24.1105 14.8175 21.3828 16.0414 19.0755 18.1341C15.7966 21.1237 14.1432 24.8794 14.1339 29.3264C14.1245 36.5575 14.1339 43.7979 14.1339 51.029C14.1339 51.7951 14.1712 52.5518 14.2927 53.3085C14.7504 56.3075 15.9741 58.9514 18.0292 61.1749C21.0465 64.4448 24.8204 66.0423 29.2576 66.0517C35.4976 66.0704 41.7377 66.0517 47.9777 66.0517C49.2014 66.0517 50.4252 66.0704 51.6489 66.0143C55.3854 65.8275 58.6176 64.4635 61.2986 61.8663C64.3345 58.9327 65.8478 55.3265 65.8665 51.1037C65.8852 47.4602 65.8665 43.8259 65.8665 40.1824L65.8571 40.173Z" fill="#515050"/>
<path d="M61.1678 40.3038C61.1678 44.0782 61.1678 47.8619 61.1678 51.6362C61.1678 55.6722 58.4961 59.4652 54.7035 60.8386C53.4985 61.2777 52.2561 61.4926 50.9669 61.4926C43.6433 61.4926 36.3103 61.5206 28.9867 61.4832C24.8765 61.4552 21.8031 59.5774 19.8695 55.9338C19.1782 54.6352 18.8326 53.2151 18.8326 51.7297C18.8326 44.1062 18.8139 36.4734 18.8326 28.8499C18.8419 23.8611 22.9802 19.4981 27.9591 19.1618C28.5009 19.1244 29.0427 19.1151 29.5845 19.1151C36.7494 19.1151 43.9142 19.1151 51.0791 19.1151C56.0861 19.1151 60.2149 22.5998 61.0557 27.5233C61.1397 27.9998 61.1678 28.4856 61.1678 28.9714C61.1678 32.7458 61.1678 36.5295 61.1678 40.3038ZM53.377 40.3038C53.4518 33.0914 47.5573 26.8974 39.9908 26.9067C32.443 26.9067 26.5859 33.0821 26.5953 40.3225C26.6046 47.5349 32.4056 53.7009 39.9815 53.7103C47.5387 53.7103 53.4424 47.5536 53.377 40.3132V40.3038ZM50.8175 26.2901C50.8082 28.0371 52.144 29.4105 53.8815 29.4292C55.5629 29.4479 56.9548 28.0745 56.9735 26.3835C56.9922 24.6458 55.6283 23.2538 53.9002 23.2445C52.2094 23.2445 50.8268 24.5991 50.8082 26.2901H50.8175Z" fill="#515050"/>
<path d="M40.0189 49.039C35.2174 49.039 31.2567 45.1526 31.2473 40.4159C31.2473 35.4924 35.1427 31.5312 39.9815 31.5312C44.7643 31.5312 48.7437 35.4644 48.7437 40.2104C48.7437 45.1339 44.8857 49.0297 40.0095 49.0297L40.0189 49.039Z" fill="#515050"/>
</svg>
