<svg width="80" height="80" viewBox="0 0 80 80" fill="none" xmlns="http://www.w3.org/2000/svg">
<path d="M39.9998 0C17.9074 0 0 17.9635 0 40.1306C0 60.7377 15.488 77.7203 35.4225 79.9996L35.3665 79.8035L35.2544 51.1815H26.5202V40.1493L35.2451 40.1119C35.2451 40.1119 35.4506 34.0494 35.4599 31.359C35.4692 28.6687 35.4506 23.4095 41.1582 18.7575C46.8657 14.1148 59.9157 16.8519 59.9157 16.8519V26.3521C59.9157 26.3521 56.2071 26.296 52.9376 26.4641C50.5743 26.5856 49.2385 27.5104 47.9493 28.2951C46.6602 29.0797 46.5388 33.0218 46.5388 33.0218L46.6322 39.9905L58.2342 40.3454L56.5341 51.1908L48.8181 51.2562V79.2804C66.6601 75.2542 79.9996 59.2524 79.9996 40.1306C79.9903 17.9635 62.0829 0 39.9998 0Z" fill="white"/>
</svg>
