<svg width="80" height="80" viewBox="0 0 80 80" fill="none" xmlns="http://www.w3.org/2000/svg">
<path d="M80 39.9393C80.0093 62.053 62.1371 80 40.0981 80.0093C17.9003 80.0093 -0.00933887 62.1558 3.65347e-06 40.0047C3.65347e-06 17.8536 17.9096 -0.00933886 40.1074 3.66302e-06C62.0904 0.00934618 79.9907 17.9283 80 39.9393ZM39.9486 57.3631C42.9663 57.3631 46.0026 57.5219 49.0108 57.3164C52.1499 57.1108 55.3171 57.2696 58.4281 56.6157C61.5952 55.9524 63.3796 54.1212 63.8935 50.9167C65.0146 43.9566 64.725 36.9777 64.0149 30.0362C63.5852 25.8788 61.2776 23.8141 57.3444 23.4778C54.2053 23.2068 51.0569 22.9826 47.9084 22.9359C39.7524 22.8238 31.5964 22.7771 23.4497 23.4124C18.5169 23.7954 16.1065 26.1777 15.8449 31.1386C15.7048 33.7452 15.6207 36.3611 15.4712 38.9677C15.247 42.8541 15.4245 46.7219 16.0785 50.543C16.7792 54.7098 18.7504 56.4382 22.9452 56.8399C28.6068 57.3818 34.2777 57.4285 39.9579 57.3631H39.9486Z" fill="#515050"/>
<path d="M34.7542 40.0981C34.7542 38.0241 34.7542 35.95 34.7542 33.8853C34.7542 32.9604 35.0625 32.6334 35.978 33.1753C39.6216 35.3241 43.2839 37.4542 46.9462 39.5749C47.759 40.0421 47.5908 40.3784 46.8994 40.7801C43.2372 42.9009 39.5749 45.031 35.9407 47.1891C34.9877 47.7496 34.7542 47.3479 34.7542 46.4604C34.7542 44.3396 34.7542 42.2282 34.7542 40.1074V40.0981Z" fill="#515050"/>
</svg>
