<svg width="80" height="80" viewBox="0 0 80 80" fill="none" xmlns="http://www.w3.org/2000/svg">
<path d="M40.1074 3.66302e-06C17.9096 -0.00933886 0 17.8536 0 39.9953C0 62.1465 17.9003 80.0094 40.0981 80C62.1371 80 80.0093 62.0437 80 39.9299C79.9906 17.9283 62.0997 0.00934618 40.1074 3.66302e-06ZM58.7738 22.7958C58.4188 24.1504 57.8956 25.4303 57.1575 26.6168C56.7465 27.2708 56.2607 27.8874 55.7655 28.4854C54.7846 29.6719 53.7849 30.8397 52.7665 31.9981C51.8697 33.0165 50.9635 34.0255 50.0385 35.0251C49.3846 35.7258 49.1884 36.4919 49.4873 37.4261C49.8891 38.678 50.216 39.9486 50.5804 41.2099C50.9261 42.3964 51.3091 43.5829 51.6548 44.7694C52.0752 46.2175 52.4769 47.6749 52.8974 49.123C53.3832 50.814 53.8876 52.4956 54.3735 54.1866C54.7378 55.4572 55.1022 56.7278 55.4105 58.0171C55.6534 59.0167 55.6347 60.0164 55.1676 60.96C54.7378 61.8288 54.0558 62.4454 53.243 62.9312C53.1216 63.006 52.9814 63.0714 52.86 63.1461C52.0939 63.5665 51.3745 63.4357 50.87 62.707C50.4963 62.1745 50.188 61.5953 49.8704 61.0254C49.2444 59.9043 48.6372 58.7738 48.0206 57.6434C47.5628 56.8025 47.105 55.9524 46.6472 55.1115C46.1521 54.224 45.6569 53.3365 45.1431 52.4489C44.5171 51.3745 43.9285 50.2721 43.2372 49.2444C42.6673 48.3943 41.9759 47.6282 41.3313 46.8154C41.1538 46.5912 40.9856 46.3669 40.8081 46.124C40.3971 46.5444 39.9953 46.9462 39.6029 47.3479C38.4538 48.5344 37.314 49.7209 36.1649 50.9074C35.0718 52.0472 33.9787 53.1963 32.8857 54.3361C32.6054 54.6351 32.3158 54.9153 32.0448 55.2237C31.9888 55.289 31.9701 55.4385 32.0075 55.5133C32.3812 56.4475 32.7642 57.3818 33.166 58.316C33.4462 58.9607 33.7078 59.6053 33.7358 60.3247C33.7919 61.6139 33.2594 62.5856 32.1569 63.2395C31.6805 63.5292 31.2134 63.3236 30.7556 63.1741C30.2137 62.9966 29.8587 62.5669 29.4663 62.1932C28.4573 61.2496 27.4577 60.3153 26.458 59.3717C25.3743 58.3441 24.2906 57.2977 23.2162 56.2607C22.4034 55.4759 21.5812 54.7005 20.7778 53.9157C20.376 53.5233 19.993 53.1029 19.6099 52.6918C19.3203 52.3835 19.339 51.9818 19.5352 51.6922C19.9743 51.0475 20.4695 50.4216 20.9926 49.8424C21.5439 49.2444 22.2632 49.2538 22.9919 49.4873C24.3559 49.9171 25.72 50.3562 27.084 50.814C27.2802 50.8794 27.3362 50.814 27.4483 50.6738C28.2051 49.6929 28.9898 48.7399 29.7466 47.7683C30.7089 46.5444 31.6618 45.3112 32.6241 44.078C33.3621 43.1344 34.0909 42.1815 34.8383 41.2472C34.9691 41.0791 34.9784 40.9856 34.8476 40.8175C33.8573 39.5095 32.54 38.6126 31.0919 37.8933C29.0552 36.8843 26.9999 35.922 24.9539 34.9317C23.1601 34.0628 21.3663 33.2033 19.5913 32.3251C19.1241 32.0916 18.6757 31.8019 18.2459 31.4936C17.7508 31.1386 17.592 30.4753 17.8909 29.84C18.3767 28.8217 18.984 27.8687 19.7781 27.0466C20.2826 26.5328 20.9273 26.4113 21.6093 26.5047C22.4875 26.6355 23.3563 26.785 24.2252 26.9625C26.0937 27.3362 27.9622 27.7286 29.8307 28.121C31.0639 28.3826 32.2878 28.6442 33.521 28.9151C35.623 29.3636 37.7158 29.812 39.8178 30.2698C40.5933 30.4379 41.3687 30.5968 42.1348 30.7743C43.6202 31.1199 44.6666 30.5033 45.5541 29.3636C46.6939 27.9155 47.8898 26.5047 49.0856 25.1127C49.8517 24.2252 50.6552 23.3843 51.468 22.5435C52.15 21.8335 52.9254 21.2262 53.7849 20.7311C54.5697 20.2639 55.3731 19.8248 56.2887 19.6754C57.3818 19.4978 58.1665 19.8809 58.6243 20.6657C59.0074 21.329 58.9793 22.0764 58.7831 22.7958H58.7738Z" fill="white"/>
</svg>
