<svg width="40" height="41" viewBox="0 0 40 41" fill="none" xmlns="http://www.w3.org/2000/svg">
<g clip-path="url(#clip0_845_93)">
<path d="M20 0.5C8.95 0.5 0 9.45 0 20.5C0 31.55 8.95 40.5 20 40.5C31.05 40.5 40 31.55 40 20.5C40 9.45 31.05 0.5 20 0.5ZM22.75 26.46L19.4 29.81C18.24 30.97 16.69 31.61 15.05 31.61C13.41 31.61 11.86 30.97 10.7 29.81C9.54 28.65 8.9 27.1 8.9 25.46C8.9 23.82 9.54 22.27 10.7 21.11L14.05 17.76C14.44 17.37 15.07 17.37 15.46 17.76C15.85 18.15 15.85 18.78 15.46 19.17L12.11 22.52C11.32 23.3 10.89 24.35 10.89 25.46C10.89 26.57 11.32 27.61 12.11 28.4C12.9 29.18 13.94 29.62 15.05 29.62C16.16 29.62 17.2 29.19 17.99 28.4L21.34 25.05C21.73 24.66 22.36 24.66 22.75 25.05C23.14 25.44 23.14 26.07 22.75 26.46ZM24.4 14.69C24.79 14.3 25.42 14.3 25.81 14.69C26.2 15.08 26.2 15.71 25.81 16.1L15.6 26.31C15.4 26.51 15.15 26.6 14.89 26.6C14.63 26.6 14.38 26.5 14.18 26.31C13.79 25.92 13.79 25.29 14.18 24.9L24.39 14.69H24.4ZM29.31 19.89L25.96 23.24C25.76 23.44 25.51 23.53 25.25 23.53C24.99 23.53 24.74 23.43 24.54 23.24C24.15 22.85 24.15 22.22 24.54 21.83L27.89 18.48C28.68 17.7 29.11 16.65 29.11 15.54C29.11 14.43 28.68 13.39 27.89 12.6C27.1 11.82 26.06 11.38 24.95 11.38C23.84 11.38 22.8 11.81 22.01 12.6L18.66 15.95C18.27 16.34 17.64 16.34 17.25 15.95C16.86 15.56 16.86 14.93 17.25 14.54L20.6 11.19C21.76 10.03 23.31 9.39 24.95 9.39C26.59 9.39 28.14 10.03 29.3 11.19C30.46 12.35 31.1 13.9 31.1 15.54C31.1 17.18 30.46 18.73 29.3 19.89H29.31Z" fill="white"/>
</g>
<defs>
<clipPath id="clip0_845_93">
<rect width="40" height="40" fill="white" transform="translate(0 0.5)"/>
</clipPath>
</defs>
</svg>
