<svg width="40" height="41" viewBox="0 0 40 41" fill="none" xmlns="http://www.w3.org/2000/svg">
<g clip-path="url(#clip0_845_95)">
<path d="M20.05 0.5C8.96 0.5 0 9.42 0 20.5C0 31.57 8.95 40.5 20.05 40.5C31.07 40.5 40.01 31.52 40 20.47C39.99 9.46 31.05 0.5 20.05 0.5ZM19.18 29.49L17.92 24.88H12.09L10.83 29.49H7.19L12.95 11.52H17.18L22.96 29.49H19.2H19.18ZM30.46 26.12L29.67 23.23H26.02L25.23 26.12H22.95L26.55 14.87H29.19L32.81 26.12H30.45H30.46Z" fill="white"/>
<path d="M27.8617 16.58H27.8017C27.5117 17.81 27.1817 19.09 26.8417 20.26L26.5117 21.49H29.1817L28.8517 20.26C28.5017 19.09 28.2017 17.8 27.8617 16.58Z" fill="white"/>
<path d="M15.0311 14.23H14.9311C14.4711 16.2 13.9311 18.24 13.4011 20.11L12.8711 22.08H17.1411L16.6111 20.11C16.0511 18.24 15.5711 16.18 15.0311 14.23Z" fill="white"/>
</g>
<defs>
<clipPath id="clip0_845_95">
<rect width="40" height="40" fill="white" transform="translate(0 0.5)"/>
</clipPath>
</defs>
</svg>
