<svg width="40" height="40" viewBox="0 0 40 40" fill="none" xmlns="http://www.w3.org/2000/svg">
<rect width="40" height="40" rx="20" fill="#515050"/>
<path d="M18.3333 27.0834C18.3333 27.7742 17.7733 28.3334 17.0833 28.3334C16.3933 28.3334 15.8333 27.7742 15.8333 27.0834C15.8333 26.3934 16.3933 25.8334 17.0833 25.8334C17.7733 25.8334 18.3333 26.3934 18.3333 27.0834ZM21.25 25.8334C20.56 25.8334 20 26.3925 20 27.0834C20 27.7742 20.56 28.3334 21.25 28.3334C21.94 28.3334 22.5 27.7742 22.5 27.0834C22.5 26.3934 21.94 25.8334 21.25 25.8334ZM26.5033 11.6667L23.6442 23.3334H21.8925L24.01 14.1667H10L13.8458 25H24.8783L27.7733 13.3334H29.5883L30 11.6667H26.5033Z" fill="white"/>
</svg>
