<svg width="31" height="30" viewBox="0 0 31 30" fill="none" xmlns="http://www.w3.org/2000/svg">
<path d="M28.7 15.3125C28.7 14.3375 28.6125 13.4 28.45 12.5H15.5V17.825H22.9C22.575 19.5375 21.6 20.9875 20.1375 21.9625V25.425H24.6C27.2 23.025 28.7 19.5 28.7 15.3125Z" fill="#4285F4"/>
<path d="M15.5016 28.75C19.2141 28.75 22.3266 27.525 24.6016 25.425L20.1391 21.9625C18.9141 22.7875 17.3516 23.2875 15.5016 23.2875C11.9266 23.2875 8.88906 20.875 7.80156 17.625H3.22656V21.175C5.48906 25.6625 10.1266 28.75 15.5016 28.75Z" fill="#34A853"/>
<path d="M7.8 17.6125C7.525 16.7875 7.3625 15.9125 7.3625 15C7.3625 14.0875 7.525 13.2125 7.8 12.3875V8.83749H3.225C2.2875 10.6875 1.75 12.775 1.75 15C1.75 17.225 2.2875 19.3125 3.225 21.1625L6.7875 18.3875L7.8 17.6125Z" fill="#FBBC05"/>
<path d="M15.5016 6.725C17.5266 6.725 19.3266 7.425 20.7641 8.775L24.7016 4.8375C22.3141 2.6125 19.2141 1.25 15.5016 1.25C10.1266 1.25 5.48906 4.3375 3.22656 8.8375L7.80156 12.3875C8.88906 9.1375 11.9266 6.725 15.5016 6.725Z" fill="#EA4335"/>
</svg>
