<svg width="80" height="80" viewBox="0 0 80 80" fill="none" xmlns="http://www.w3.org/2000/svg">
<path d="M68.22 68.8357H12.03C11.46 68.8357 11 68.3757 11 67.8057V17.8857C11 17.3157 11.46 16.8557 12.03 16.8557H68.22C68.79 16.8557 69.25 17.3157 69.25 17.8857V67.8057C69.25 68.3757 68.79 68.8357 68.22 68.8357ZM13.06 66.7657H67.19V18.9157H13.06V66.7657Z" fill="#515050"/>
<path d="M68.22 33.1657H12.03C11.46 33.1657 11 32.7057 11 32.1357V26.9657C11 26.3957 11.46 25.9357 12.03 25.9357H68.22C68.79 25.9357 69.25 26.3957 69.25 26.9657V32.1357C69.25 32.7057 68.79 33.1657 68.22 33.1657ZM13.06 31.0957H67.19V27.9957H13.06V31.0957Z" fill="#515050"/>
<path d="M27.5701 36.4557H18.1901V45.8357H27.5701V36.4557Z" fill="#F5E500"/>
<path d="M27.57 46.8757H18.19C17.62 46.8757 17.16 46.4157 17.16 45.8457V36.4657C17.16 35.8957 17.62 35.4357 18.19 35.4357H27.57C28.14 35.4357 28.6 35.8957 28.6 36.4657V45.8457C28.6 46.4157 28.14 46.8757 27.57 46.8757ZM19.23 44.8057H26.54V37.4957H19.23V44.8057Z" fill="#515050"/>
<path d="M44.81 46.8757H35.43C34.86 46.8757 34.4 46.4157 34.4 45.8457V36.4657C34.4 35.8957 34.86 35.4357 35.43 35.4357H44.81C45.38 35.4357 45.84 35.8957 45.84 36.4657V45.8457C45.84 46.4157 45.38 46.8757 44.81 46.8757ZM36.46 44.8057H43.77V37.4957H36.46V44.8057Z" fill="#515050"/>
<path d="M62.05 46.8757H52.67C52.1 46.8757 51.64 46.4157 51.64 45.8457V36.4657C51.64 35.8957 52.1 35.4357 52.67 35.4357H62.05C62.62 35.4357 63.08 35.8957 63.08 36.4657V45.8457C63.08 46.4157 62.62 46.8757 62.05 46.8757ZM53.7 44.8057H61.01V37.4957H53.7V44.8057Z" fill="#515050"/>
<path d="M27.57 63.2157H18.19C17.62 63.2157 17.16 62.7557 17.16 62.1857V52.8057C17.16 52.2357 17.62 51.7757 18.19 51.7757H27.57C28.14 51.7757 28.6 52.2357 28.6 52.8057V62.1857C28.6 62.7557 28.14 63.2157 27.57 63.2157ZM19.23 61.1457H26.54V53.8357H19.23V61.1457Z" fill="#515050"/>
<path d="M62.05 63.2157H52.67C52.1 63.2157 51.64 62.7557 51.64 62.1857V52.8057C51.64 52.2357 52.1 51.7757 52.67 51.7757H62.05C62.62 51.7757 63.08 52.2357 63.08 52.8057V62.1857C63.08 62.7557 62.62 63.2157 62.05 63.2157ZM53.7 61.1457H61.01V53.8357H53.7V61.1457Z" fill="#515050"/>
<path d="M40.16 63.5657C39.88 63.5657 39.61 63.4557 39.41 63.2457L34.4 57.9757C34.01 57.5657 34.02 56.9057 34.44 56.5157C34.85 56.1257 35.51 56.1357 35.9 56.5557L39.86 60.7257L43.86 52.0457C44.1 51.5257 44.71 51.2957 45.23 51.5357C45.75 51.7757 45.98 52.3857 45.74 52.9057L41.1 62.9757C40.96 63.2857 40.67 63.5057 40.33 63.5657C40.27 63.5657 40.22 63.5757 40.16 63.5757V63.5657Z" fill="#515050"/>
<path d="M31.03 23.6657C29.62 23.6657 28.26 23.1957 27.14 22.3157C25.81 21.2757 24.96 19.7757 24.76 18.0957C24.56 16.4157 25.02 14.7557 26.06 13.4257C27.1 12.0957 28.6 11.2457 30.28 11.0457C31.96 10.8457 33.62 11.3057 34.95 12.3457C36.28 13.3857 37.13 14.8857 37.33 16.5657C37.4 17.1357 37 17.6457 36.43 17.7157C35.86 17.7857 35.35 17.3857 35.28 16.8157C35.14 15.6857 34.57 14.6757 33.68 13.9757C32.78 13.2757 31.67 12.9657 30.54 13.0957C29.41 13.2357 28.4 13.8057 27.7 14.6957C27 15.5957 26.69 16.7057 26.82 17.8357C27.1 20.1657 29.23 21.8357 31.57 21.5557C32.14 21.4857 32.65 21.8857 32.72 22.4557C32.79 23.0257 32.39 23.5357 31.82 23.6057C31.56 23.6357 31.3 23.6557 31.04 23.6557L31.03 23.6657Z" fill="#515050"/>
<path d="M49.2199 23.6657C47.8099 23.6657 46.4499 23.1957 45.3299 22.3157C43.9999 21.2757 43.1499 19.7757 42.9499 18.0957C42.7499 16.4157 43.2099 14.7557 44.2499 13.4257C45.2899 12.0957 46.7899 11.2457 48.4699 11.0457C50.1499 10.8457 51.8099 11.3057 53.1399 12.3457C54.4699 13.3857 55.3199 14.8857 55.5199 16.5657C55.5899 17.1357 55.1899 17.6457 54.6199 17.7157C54.0499 17.7857 53.5399 17.3857 53.4699 16.8157C53.3299 15.6857 52.7599 14.6757 51.8699 13.9757C50.9699 13.2757 49.8599 12.9657 48.7299 13.0957C46.3999 13.3757 44.7299 15.5057 45.0099 17.8457C45.1499 18.9757 45.7199 19.9857 46.6099 20.6857C47.5099 21.3857 48.6199 21.6957 49.7499 21.5657C50.3199 21.4957 50.8299 21.8957 50.8999 22.4657C50.9699 23.0357 50.5699 23.5457 49.9999 23.6157C49.7399 23.6457 49.4799 23.6657 49.2199 23.6657Z" fill="#515050"/>
</svg>
