<svg width="80" height="80" viewBox="0 0 80 80" fill="none" xmlns="http://www.w3.org/2000/svg">
<path d="M69.34 54.5C68.77 54.5 68.31 54.04 68.31 53.47V42.21C68.31 27.24 56.13 15.07 41.17 15.07H38.22C23.25 15.07 11.08 27.25 11.08 42.21V53.05C11.08 53.62 10.62 54.08 10.05 54.08C9.48002 54.08 9.02002 53.62 9.02002 53.05V42.21C9.02002 26.1 22.12 13 38.23 13H41.18C57.29 13 70.39 26.1 70.39 42.21V53.47C70.39 54.04 69.93 54.5 69.36 54.5H69.34Z" fill="#515050"/>
<path d="M23.98 67.2C20.27 67.2 17.25 64.18 17.25 60.47V40.39C17.25 36.68 20.27 33.66 23.98 33.66C27.69 33.66 30.71 36.68 30.71 40.39V60.47C30.71 64.18 27.69 67.2 23.98 67.2ZM23.98 35.73C21.41 35.73 19.32 37.82 19.32 40.39V60.47C19.32 63.04 21.41 65.13 23.98 65.13C26.55 65.13 28.64 63.04 28.64 60.47V40.39C28.64 37.82 26.55 35.73 23.98 35.73Z" fill="#515050"/>
<path d="M18.31 42.33C17.99 42.25 17.65 42.2 17.31 42.2H14.15C11.88 42.2 10.03 44.04 10.03 46.32V54.54C10.03 56.81 11.87 58.66 14.15 58.66H17.31C17.66 58.66 17.99 58.61 18.31 58.53V42.33Z" fill="#F5E500"/>
<path d="M17.31 59.69H14.15C11.31 59.69 9 57.38 9 54.54V46.32C9 43.48 11.31 41.17 14.15 41.17H17.31C17.72 41.17 18.14 41.22 18.57 41.33C19.03 41.45 19.35 41.86 19.35 42.33V58.53C19.35 59 19.03 59.42 18.57 59.53C18.15 59.64 17.73 59.69 17.31 59.69ZM14.15 43.24C12.45 43.24 11.07 44.62 11.07 46.32V54.54C11.07 56.24 12.45 57.62 14.15 57.62H17.28V43.24H14.15Z" fill="#515050"/>
<path d="M55.4001 67.2C51.6901 67.2 48.67 64.18 48.67 60.47V40.39C48.67 36.68 51.6901 33.66 55.4001 33.66C59.1101 33.66 62.1301 36.68 62.1301 40.39V60.47C62.1301 64.18 59.1101 67.2 55.4001 67.2ZM55.4001 35.73C52.8301 35.73 50.7401 37.82 50.7401 40.39V60.47C50.7401 63.04 52.8301 65.13 55.4001 65.13C57.9701 65.13 60.0601 63.04 60.0601 60.47V40.39C60.0601 37.82 57.9701 35.73 55.4001 35.73Z" fill="#515050"/>
<path d="M61.0701 58.53C61.3901 58.61 61.7301 58.66 62.0701 58.66H65.2301C67.5001 58.66 69.3501 56.82 69.3501 54.54V46.32C69.3501 44.05 67.5101 42.2 65.2301 42.2H62.0701C61.7201 42.2 61.3901 42.25 61.0701 42.33V58.53Z" fill="#F5E500"/>
<path d="M65.23 59.69H62.07C61.66 59.69 61.24 59.64 60.81 59.53C60.35 59.41 60.03 59 60.03 58.53V42.33C60.03 41.86 60.35 41.44 60.81 41.33C61.23 41.22 61.65 41.17 62.07 41.17H65.23C68.07 41.17 70.38 43.48 70.38 46.32V54.54C70.38 57.38 68.07 59.69 65.23 59.69ZM62.1 57.62H65.23C66.93 57.62 68.31 56.24 68.31 54.54V46.32C68.31 44.62 66.93 43.24 65.23 43.24H62.1V57.62Z" fill="#515050"/>
<path d="M39.77 57.24C39.2 57.24 38.74 56.78 38.74 56.21V45.14C38.74 44.57 39.2 44.11 39.77 44.11C40.34 44.11 40.8 44.57 40.8 45.14V56.21C40.8 56.78 40.34 57.24 39.77 57.24Z" fill="#515050"/>
<path d="M34.55 54.79C33.98 54.79 33.52 54.33 33.52 53.76V47.75C33.52 47.18 33.98 46.72 34.55 46.72C35.12 46.72 35.58 47.18 35.58 47.75V53.76C35.58 54.33 35.12 54.79 34.55 54.79Z" fill="#515050"/>
<path d="M44.99 54.79C44.42 54.79 43.96 54.33 43.96 53.76V47.75C43.96 47.18 44.42 46.72 44.99 46.72C45.56 46.72 46.02 47.18 46.02 47.75V53.76C46.02 54.33 45.56 54.79 44.99 54.79Z" fill="#515050"/>
</svg>
