<svg width="80" height="80" viewBox="0 0 80 80" fill="none" xmlns="http://www.w3.org/2000/svg">
<path d="M63.61 59.52H17.01C14.25 59.52 12 57.27 12 54.51V20.01C12 17.25 14.25 15 17.01 15H63.61C66.37 15 68.62 17.25 68.62 20.01V54.51C68.62 57.27 66.37 59.52 63.61 59.52ZM17.01 17.06C15.39 17.06 14.07 18.38 14.07 20V54.5C14.07 56.12 15.39 57.44 17.01 57.44H63.61C65.23 57.44 66.55 56.12 66.55 54.5V20C66.55 18.38 65.23 17.06 63.61 17.06H17.01Z" fill="#515050"/>
<path d="M48.0401 37.26L34.5901 29.49V45.02L48.0401 37.26Z" fill="#F5E500"/>
<path d="M34.5901 46.05C34.4101 46.05 34.2301 46 34.0701 45.91C33.7501 45.73 33.55 45.38 33.55 45.01V29.49C33.55 29.12 33.7501 28.78 34.0701 28.59C34.3901 28.41 34.7801 28.41 35.1001 28.59L48.5401 36.35C48.8601 36.53 49.0601 36.88 49.0601 37.25C49.0601 37.62 48.8601 37.96 48.5401 38.15L35.1001 45.91C34.9401 46 34.76 46.05 34.58 46.05H34.5901ZM35.6301 31.29V43.23L45.97 37.26L35.6301 31.29Z" fill="#515050"/>
<path d="M59.92 65.82H20.7C20.13 65.82 19.67 65.36 19.67 64.79C19.67 64.22 20.13 63.76 20.7 63.76H59.92C60.49 63.76 60.95 64.22 60.95 64.79C60.95 65.36 60.49 65.82 59.92 65.82Z" fill="#515050"/>
</svg>
