<svg width="80" height="80" viewBox="0 0 80 80" fill="none" xmlns="http://www.w3.org/2000/svg">
<g clip-path="url(#clip0_22_73)">
<path d="M47.75 37.32C47.66 39.84 48.05 42.22 49.36 44.41C50.82 46.85 52.17 49.35 53.69 51.75C54.77 53.46 54.93 55.18 54.44 57.09C53.49 60.79 52.41 64.45 51.29 68.11C50.58 70.43 48.09 71.83 45.8 71.23C43.21 70.54 41.71 68.23 42.37 65.72C43.15 62.77 44.08 59.85 44.95 56.93C45.13 56.32 45.24 55.72 44.98 55.11C44.92 54.98 44.87 54.83 44.68 54.87C44.52 54.9 44.55 55.05 44.55 55.16C44.49 56.97 43.82 58.6 43.02 60.19C41.65 62.92 40.32 65.67 38.93 68.39C38.04 70.14 36.18 71.13 34.32 70.93C32.35 70.72 30.78 69.39 30.27 67.48C29.94 66.27 30.11 65.11 30.68 64C31.84 61.72 32.89 59.38 34.18 57.19C35.27 55.34 35.32 53.52 34.75 51.55C33.55 47.42 32.86 43.21 32.6 38.92C32.54 37.87 32.36 36.83 32.23 35.67C31.77 35.96 31.38 36.21 31 36.46C28.06 38.36 24.81 38.18 22.09 35.97C19.95 34.23 17.9 32.4 15.88 30.52C14.06 28.83 13.92 26.14 15.52 24.4C17.18 22.59 19.9 22.49 21.77 24.17C23.34 25.58 24.91 26.98 26.46 28.41C26.78 28.71 26.99 28.74 27.36 28.48C28.43 27.71 29.53 27 30.62 26.26C32.41 25.05 34.4 24.44 36.55 24.4C38.22 24.37 39.88 24.1 41.57 24.36C43.91 24.71 46.03 25.55 47.94 26.95C48.67 27.49 49.44 27.98 50.17 28.52C50.52 28.78 50.78 28.77 51.11 28.49C52.4 27.35 53.7 26.22 55.02 25.11C55.79 24.46 56.62 23.91 57.56 23.51C59.02 22.9 60.42 22.91 61.65 24C62.92 25.13 63.21 26.58 62.76 28.19C62.5 29.13 62.01 29.95 61.28 30.6C59.17 32.48 57.06 34.36 54.88 36.15C52.8 37.86 50.54 38.36 48 37.35C47.94 37.33 47.86 37.34 47.77 37.33L47.75 37.32Z" fill="#515050"/>
<path d="M39.66 23.67C35.66 23.67 32.5 20.38 32.51 16.25C32.51 12.27 35.82 9 39.8 9C43.85 9 47.14 12.36 47.12 16.46C47.1 20.51 43.82 23.67 39.66 23.67Z" fill="#515050"/>
<path d="M50.47 35.72C49.66 35.68 48.91 35.48 48.22 35.05C47.92 34.86 47.61 34.66 47.29 34.52C46.37 34.11 45.37 34.63 45.45 35.61C45.64 38.08 45.45 40.6 46.33 42.99C46.67 43.91 47.09 44.79 47.59 45.64C49.04 48.11 50.45 50.61 51.95 53.05C52.6 54.1 52.7 55.12 52.42 56.27C51.49 60.05 50.37 63.78 49.23 67.5C48.83 68.79 47.48 69.48 46.21 69.1C44.75 68.66 44.06 67.47 44.49 65.98C45.28 63.25 46.06 60.52 46.93 57.81C47.45 56.2 47.33 54.74 46.47 53.28C45.64 51.88 44.81 50.49 43.86 49.17C43.5 48.68 43.09 48.38 42.46 48.64C41.84 48.9 41.75 49.41 41.84 50.01C42.01 51.12 42.18 52.23 42.34 53.34C42.58 55.04 42.37 56.67 41.59 58.22C40.1 61.21 38.63 64.21 37.14 67.2C36.42 68.64 34.99 69.17 33.68 68.53C32.34 67.88 31.9 66.39 32.63 64.92C33.78 62.61 34.85 60.26 36.15 58.03C37.4 55.89 37.6 53.71 36.93 51.41C35.64 46.96 34.96 42.4 34.64 37.79C34.55 36.48 34.36 35.17 34.21 33.87C34.09 32.82 33.32 32.42 32.43 32.97C31.52 33.54 30.63 34.15 29.72 34.72C27.67 36.02 25.41 35.88 23.53 34.36C21.41 32.64 19.38 30.81 17.37 28.97C16.39 28.07 16.3 26.73 17.13 25.83C17.99 24.9 19.35 24.86 20.34 25.75C21.98 27.22 23.61 28.7 25.25 30.17C26.25 31.07 27.19 31.14 28.31 30.4C29.46 29.63 30.61 28.85 31.76 28.07C33.22 27.08 34.84 26.55 36.61 26.53C38.23 26.51 39.85 26.22 41.48 26.49C43.41 26.81 45.15 27.51 46.71 28.68C47.71 29.43 48.75 30.1 49.79 30.78C50.39 31.16 50.91 31.19 51.51 30.78C52.25 30.28 52.95 29.75 53.6 29.15C54.67 28.16 55.74 27.16 56.93 26.31C57.49 25.9 58.07 25.53 58.75 25.33C59.85 25 60.8 25.68 60.8 26.83C60.8 27.68 60.47 28.42 59.83 28.99C57.69 30.9 55.55 32.83 53.32 34.63C52.49 35.3 51.57 35.68 50.5 35.71L50.47 35.72Z" fill="white"/>
<path d="M39.71 21.52C36.88 21.53 34.65 19.23 34.65 16.3C34.65 13.46 36.95 11.16 39.81 11.15C42.63 11.14 44.97 13.52 44.97 16.4C44.97 19.28 42.69 21.5 39.71 21.52Z" fill="#F5E500"/>
<path d="M23.84 51.42C22.68 48.86 21.77 46.18 20.75 43.55C20.38 42.6 19.66 42.19 18.8 42.52C16.54 43.39 14.28 44.28 12.04 45.2C11.33 45.49 11.01 46.2 11.24 46.91C11.6 47.99 12.02 49.05 12.42 50.12C12.81 51.14 13.21 52.15 13.6 53.18C11.68 53.67 10.62 54.55 10.15 55.99C9.61998 57.6 10.42 59.13 11.98 59.33C13.32 59.5 14.4 58.9 15.24 57.87C16.05 56.87 16.38 55.76 15.89 54.5C15.36 53.14 14.84 51.78 14.31 50.42C14.23 50.22 14.07 50.02 14.4 49.89C16.33 49.1 18.27 48.31 20.2 47.52C20.36 47.46 20.48 47.44 20.56 47.65C20.9 48.57 21.27 49.48 21.62 50.41C19.76 50.75 18.46 51.91 18.08 53.53C17.68 55.26 18.88 56.67 20.65 56.54C22.86 56.39 24.86 53.73 23.82 51.42H23.84ZM14.47 55.69C14.44 56.6 13.37 57.67 12.45 57.7C11.89 57.72 11.57 57.37 11.65 56.8C11.76 55.91 12.67 55.01 13.58 54.88C14.14 54.8 14.49 55.12 14.48 55.69H14.47ZM19.62 45.98C17.69 46.77 15.76 47.56 13.84 48.36C13.6 48.46 13.53 48.39 13.47 48.19C13.46 48.15 13.44 48.12 13.43 48.08C13.29 47.59 12.81 47.06 13 46.67C13.17 46.34 13.84 46.26 14.3 46.07C15.8 45.47 17.3 44.89 18.79 44.28C19.12 44.14 19.27 44.18 19.38 44.53C19.5 44.94 19.69 45.34 19.83 45.7C19.86 45.9 19.74 45.93 19.63 45.98H19.62ZM20.46 54.9C19.93 54.9 19.69 54.67 19.69 54.15C19.69 53.17 20.8 52.07 21.78 52.09C22.26 52.1 22.53 52.4 22.51 52.9C22.48 53.82 21.39 54.89 20.46 54.9Z" fill="#515050"/>
<path d="M68.99 43.21C67.92 40.2 65.02 38.25 61.78 38.37C60.86 38.4 60.55 38.89 60.89 39.74C61.36 40.93 61.84 42.12 62.32 43.31C62.95 44.88 63.58 46.45 64.21 48.03C62.56 48.36 61.45 49.28 60.91 50.82C60.56 51.8 60.68 52.75 61.45 53.51C62.2 54.25 63.13 54.32 64.1 54.02C66.31 53.33 67.76 50.46 66.32 48.8C66.21 48.67 66.17 48.48 66.1 48.32C65.07 45.76 64.04 43.2 63.03 40.63C62.96 40.47 62.79 40.3 62.93 40.05C65.13 40.45 66.65 41.66 67.45 43.75C67.7 44.41 68.09 44.67 68.58 44.49C69.07 44.31 69.23 43.84 69 43.2L68.99 43.21ZM65.22 50.49C65.19 51.43 64.06 52.53 63.14 52.52C62.62 52.52 62.32 52.16 62.39 51.62C62.51 50.72 63.44 49.81 64.34 49.71C64.86 49.65 65.24 49.98 65.22 50.49Z" fill="#515050"/>
<path d="M62.39 51.62C62.32 52.16 62.61 52.52 63.14 52.52C64.06 52.52 65.19 51.43 65.22 50.49C65.24 49.98 64.86 49.65 64.34 49.71C63.44 49.81 62.51 50.72 62.39 51.62Z" fill="#F5E500"/>
<path d="M12.45 57.71C13.37 57.68 14.45 56.61 14.47 55.7C14.49 55.13 14.13 54.81 13.57 54.89C12.66 55.01 11.76 55.92 11.64 56.81C11.57 57.38 11.88 57.73 12.44 57.71H12.45Z" fill="#F5E500"/>
<path d="M20.46 54.9C21.38 54.89 22.48 53.82 22.51 52.9C22.52 52.4 22.26 52.1 21.78 52.09C20.8 52.07 19.68 53.17 19.69 54.15C19.69 54.67 19.94 54.9 20.46 54.9Z" fill="#F5E500"/>
<path d="M13.46 48.19C13.52 48.39 13.6 48.46 13.83 48.36C15.75 47.56 17.68 46.77 19.61 45.98C19.72 45.93 19.84 45.91 19.81 45.7C19.67 45.34 19.48 44.94 19.36 44.53C19.25 44.17 19.11 44.14 18.77 44.28C17.28 44.89 15.77 45.47 14.28 46.07C13.83 46.25 13.15 46.33 12.98 46.67C12.78 47.06 13.27 47.6 13.41 48.08C13.42 48.12 13.44 48.15 13.45 48.19H13.46Z" fill="#F5E500"/>
</g>
<defs>
<clipPath id="clip0_22_73">
<rect width="59.09" height="62.36" fill="white" transform="translate(10 9)"/>
</clipPath>
</defs>
</svg>
