<svg width="80" height="80" viewBox="0 0 80 80" fill="none" xmlns="http://www.w3.org/2000/svg">
<path d="M39.6425 63.2825C38.8125 63.2825 37.9825 63.0925 37.3325 62.7225L34.6025 61.1425C33.7725 60.6625 32.2125 60.2425 31.2625 60.2425H28.1125C26.6125 60.2425 24.8625 59.2325 24.1125 57.9325L22.5325 55.2025C22.0525 54.3725 20.9125 53.2325 20.0825 52.7525L17.3525 51.1725C16.0625 50.4225 15.0425 48.6725 15.0425 47.1725V44.0225C15.0425 43.0725 14.6225 41.5025 14.1425 40.6825L12.5625 37.9525C11.8125 36.6625 11.8125 34.6325 12.5625 33.3325L14.1425 30.6025C14.6225 29.7725 15.0425 28.2125 15.0425 27.2625V24.1125C15.0425 22.6125 16.0525 20.8625 17.3525 20.1125L20.0825 18.5325C20.9125 18.0525 22.0525 16.9125 22.5325 16.0825L24.1125 13.3525C24.8625 12.0625 26.6125 11.0425 28.1125 11.0425H31.2625C32.2125 11.0425 33.7825 10.6225 34.6025 10.1425L37.3325 8.5625C38.6225 7.8125 40.6525 7.8125 41.9525 8.5625L44.6825 10.1425C45.5125 10.6225 47.0725 11.0425 48.0225 11.0425H51.1725C52.6725 11.0425 54.4225 12.0525 55.1725 13.3525L56.7525 16.0825C57.2325 16.9125 58.3725 18.0525 59.2025 18.5325L61.9325 20.1125C63.2225 20.8625 64.2425 22.6125 64.2425 24.1125V27.2625C64.2425 28.2125 64.6625 29.7825 65.1425 30.6025L66.7225 33.3325C67.4725 34.6225 67.4725 36.6525 66.7225 37.9525L65.1425 40.6825C64.6625 41.5125 64.2425 43.0725 64.2425 44.0225V47.1725C64.2425 48.6725 63.2325 50.4225 61.9325 51.1725L59.2025 52.7525C58.3725 53.2325 57.2325 54.3725 56.7525 55.2025L55.1725 57.9325C54.4225 59.2225 52.6725 60.2425 51.1725 60.2425H48.0225C47.0725 60.2425 45.5025 60.6625 44.6825 61.1425L41.9525 62.7225C41.3025 63.0925 40.4725 63.2825 39.6425 63.2825ZM28.1125 13.1325C27.3425 13.1325 26.2925 13.7425 25.9025 14.4025L24.3225 17.1325C23.6625 18.2725 22.2525 19.6825 21.1125 20.3425L18.3825 21.9225C17.7125 22.3125 17.1125 23.3625 17.1125 24.1325V27.2825C17.1125 28.6025 16.5925 30.5225 15.9425 31.6625L14.3625 34.3925C13.9725 35.0625 13.9725 36.2725 14.3625 36.9425L15.9425 39.6725C16.6025 40.8125 17.1125 42.7325 17.1125 44.0525V47.2025C17.1125 47.9725 17.7225 49.0225 18.3825 49.4125L21.1125 50.9925C22.2525 51.6525 23.6625 53.0625 24.3225 54.2025L25.9025 56.9325C26.2925 57.6025 27.3425 58.2025 28.1125 58.2025H31.2625C32.5825 58.2025 34.5025 58.7225 35.6425 59.3725L38.3725 60.9525C39.0425 61.3425 40.2525 61.3425 40.9225 60.9525L43.6525 59.3725C44.7925 58.7125 46.7125 58.2025 48.0325 58.2025H51.1825C51.9525 58.2025 53.0025 57.5925 53.3925 56.9325L54.9725 54.2025C55.6325 53.0625 57.0425 51.6525 58.1825 50.9925L60.9125 49.4125C61.5825 49.0225 62.1825 47.9725 62.1825 47.2025V44.0525C62.1825 42.7325 62.7025 40.8125 63.3525 39.6725L64.9325 36.9425C65.3225 36.2725 65.3225 35.0625 64.9325 34.3925L63.3525 31.6625C62.6925 30.5225 62.1825 28.6025 62.1825 27.2825V24.1325C62.1825 23.3625 61.5725 22.3125 60.9125 21.9225L58.1825 20.3425C57.0425 19.6825 55.6325 18.2725 54.9725 17.1325L53.3925 14.4025C53.0025 13.7325 51.9525 13.1325 51.1825 13.1325H48.0325C46.7125 13.1325 44.7925 12.6125 43.6525 11.9625L40.9225 10.3825C40.2525 9.9925 39.0425 9.9925 38.3725 10.3825L35.6425 11.9625C34.5025 12.6225 32.5825 13.1325 31.2625 13.1325H28.1125Z" fill="#515050"/>
<path d="M39.6425 52.9025C49.081 52.9025 56.7325 45.251 56.7325 35.8125C56.7325 26.374 49.081 18.7225 39.6425 18.7225C30.2039 18.7225 22.5525 26.374 22.5525 35.8125C22.5525 45.251 30.2039 52.9025 39.6425 52.9025Z" fill="#F5E500"/>
<path d="M39.6425 53.9325C29.6525 53.9325 21.5225 45.8025 21.5225 35.8125C21.5225 25.8225 29.6525 17.6925 39.6425 17.6925C49.6325 17.6925 57.7625 25.8225 57.7625 35.8125C57.7625 45.8025 49.6325 53.9325 39.6425 53.9325ZM39.6425 19.7625C30.7925 19.7625 23.5925 26.9625 23.5925 35.8125C23.5925 44.6625 30.7925 51.8625 39.6425 51.8625C48.4925 51.8625 55.6925 44.6625 55.6925 35.8125C55.6925 26.9625 48.4925 19.7625 39.6425 19.7625Z" fill="#515050"/>
<path d="M29.7925 71.9925C29.4925 71.9925 29.2125 71.8625 29.0125 71.6425L24.1825 66.1525L16.9125 66.2225C16.5425 66.2225 16.2125 66.0425 16.0225 65.7325C15.8325 65.4225 15.8125 65.0425 15.9825 64.7225L21.7125 53.4025C21.9725 52.8925 22.5925 52.6925 23.1025 52.9425C23.6125 53.1925 23.8125 53.8225 23.5625 54.3325L18.6025 64.1425L24.6525 64.0825C24.9525 64.0825 25.2425 64.2125 25.4425 64.4325L29.5725 69.1325L34.1625 60.0725C34.4225 59.5625 35.0425 59.3625 35.5525 59.6225C36.0625 59.8825 36.2625 60.5025 36.0025 61.0125L30.7125 71.4325C30.5525 71.7425 30.2625 71.9525 29.9225 71.9925C29.8825 71.9925 29.8325 71.9925 29.7925 71.9925Z" fill="#515050"/>
<path d="M49.4925 71.9925C49.4925 71.9925 49.4025 71.9925 49.3625 71.9925C49.0225 71.9525 48.7225 71.7425 48.5725 71.4325L43.3125 61.0625C43.0525 60.5525 43.2625 59.9325 43.7625 59.6725C44.2625 59.4125 44.8925 59.6225 45.1525 60.1225L49.7225 69.1325L53.8525 64.4325C54.0525 64.2025 54.3425 64.0725 54.6425 64.0825L60.6925 64.1425L55.8025 54.4725C55.5425 53.9625 55.7525 53.3425 56.2625 53.0825C56.7725 52.8225 57.3925 53.0325 57.6525 53.5425L63.3125 64.7325C63.4725 65.0525 63.4624 65.4425 63.2724 65.7425C63.0824 66.0425 62.7425 66.2325 62.3825 66.2325L55.1125 66.1625L50.2825 71.6525C50.0825 71.8825 49.8025 72.0025 49.5025 72.0025L49.4925 71.9925Z" fill="#515050"/>
<path d="M39.3325 26.6025C39.5025 26.0825 39.7825 26.0825 39.9525 26.6025L41.8525 32.4625C42.0225 32.9825 42.6125 33.4125 43.1625 33.4125H49.3225C49.8725 33.4125 49.9625 33.6725 49.5125 34.0025L44.5325 37.6225C44.0925 37.9425 43.8625 38.6425 44.0325 39.1625L45.9325 45.0225C46.1025 45.5425 45.8725 45.7125 45.4325 45.3825L40.4525 41.7625C40.0125 41.4425 39.2825 41.4425 38.8325 41.7625L33.8525 45.3825C33.4125 45.7025 33.1825 45.5425 33.3525 45.0225L35.2525 39.1625C35.4225 38.6425 35.1925 37.9425 34.7525 37.6225L29.7725 34.0025C29.3325 33.6825 29.4125 33.4125 29.9625 33.4125H36.1225C36.6725 33.4125 37.2625 32.9825 37.4325 32.4625L39.3325 26.6025Z" fill="#515050"/>
</svg>
