<svg width="80" height="80" viewBox="0 0 80 80" fill="none" xmlns="http://www.w3.org/2000/svg">
<path d="M65.38 30.86H37.06C34.19 30.86 31.86 33.19 31.86 36.06V56.76C31.86 59.63 34.19 61.96 37.06 61.96H50.77L61.49 69.19C62.17 69.65 63.08 69.19 63.14 68.38L63.59 61.96H65.38C68.25 61.96 70.58 59.63 70.58 56.76V36.06C70.58 33.19 68.25 30.86 65.38 30.86Z" stroke="#515050" stroke-width="2" stroke-miterlimit="10"/>
<path d="M42.16 11.01H16.54C12.93 11.01 10 13.94 10 17.55V34.19C10 37.76 12.87 40.67 16.43 40.72L17.99 46.74C18.24 47.69 19.42 48.02 20.13 47.33L26.84 40.72H42.15C45.76 40.72 48.69 37.79 48.69 34.18V17.54C48.69 13.93 45.76 11 42.15 11L42.16 11.01Z" fill="white" stroke="#515050" stroke-width="2" stroke-miterlimit="10"/>
<path d="M46.6599 42.18C47.0899 41.26 47.9599 40.67 48.8099 40.01C49.4099 39.55 49.8699 38.88 50.2899 38.23C50.6599 37.67 50.8699 37 51.1799 36.4C52.0199 34.78 53.8599 34.14 55.4699 34.9C57.0599 35.64 57.7299 37.51 56.9999 39.18C56.5899 40.11 56.1399 41.02 55.6699 42.03C56.8999 42.03 58.0299 42.01 59.1699 42.03C60.8999 42.07 62.0599 43.41 61.8299 45.09C61.7799 45.44 61.6299 45.77 61.5299 46.12C62.8499 47.6 62.8599 48.87 61.5199 50.31C62.1299 51.61 61.9799 52.81 61.0199 53.7C61.0899 54.47 61.2599 55.13 61.1799 55.75C61.0099 56.97 59.9499 57.87 58.6999 57.88C55.3899 57.9 52.0899 57.88 48.7799 57.88C48.6799 57.88 48.5799 57.87 48.4799 57.86C47.6199 57.81 46.9099 57.18 45.9099 57.52C45.1199 57.79 44.1699 57.6 43.2799 57.6C41.5499 57.6 40.6599 56.7 40.6599 54.97C40.6599 51.52 40.6599 48.08 40.6599 44.63C40.6599 42.96 41.5399 42.08 43.2199 42.07C43.7799 42.07 44.3399 42.06 44.8999 42.07C45.4599 42.08 46.0099 42.12 46.6499 42.15L46.6599 42.18ZM47.9399 49.87C47.9399 51.67 47.9699 53.48 47.9199 55.28C47.8999 55.82 48.0999 56 48.5499 56.06C48.7499 56.09 48.9499 56.1 49.1499 56.1C52.2199 56.1 55.2799 56.1 58.3499 56.1C59.0399 56.1 59.3899 55.84 59.4299 55.32C59.4699 54.81 59.1799 54.52 58.4899 54.38C57.9599 54.27 57.6599 53.91 57.7099 53.41C57.7599 52.89 58.0899 52.63 58.5899 52.59C58.8299 52.57 59.0699 52.6 59.3099 52.57C59.7599 52.51 60.0399 52.24 60.0599 51.77C60.0799 51.31 59.8399 51.01 59.3999 50.9C59.2799 50.87 59.1599 50.88 59.0399 50.85C58.5499 50.71 58.2899 50.39 58.3499 49.87C58.3999 49.39 58.7099 49.12 59.1899 49.08C59.4499 49.06 59.7199 49.1 59.9699 49.05C60.4399 48.96 60.7299 48.65 60.6999 48.17C60.6699 47.72 60.3899 47.44 59.9399 47.38C59.7799 47.36 59.6199 47.37 59.4599 47.36C58.7499 47.33 58.3899 47.05 58.3499 46.52C58.3099 45.99 58.5899 45.7 59.2599 45.55C59.9199 45.4 60.2399 44.92 60.0199 44.38C59.8399 43.95 59.4799 43.83 59.0399 43.83C57.5599 43.83 56.0699 43.83 54.5899 43.83C53.4899 43.83 53.1199 43.24 53.5899 42.22C54.1699 40.99 54.7599 39.76 55.3199 38.52C55.6999 37.69 55.4299 36.87 54.6899 36.52C53.9399 36.17 53.1499 36.47 52.7399 37.29C52.4699 37.83 52.2299 38.38 51.9699 38.92C51.4099 40.11 50.5899 41.08 49.4599 41.76C48.3999 42.4 47.9199 43.33 47.9299 44.56C47.9499 46.32 47.9299 48.09 47.9299 49.85L47.9399 49.87ZM46.1299 49.89C46.1299 48.15 46.1199 46.41 46.1299 44.66C46.1299 44.09 45.9199 43.86 45.3499 43.89C44.6099 43.92 43.8699 43.9 43.1299 43.89C42.6899 43.89 42.4599 44.06 42.4599 44.53C42.4599 48.07 42.4599 51.62 42.4599 55.16C42.4599 55.62 42.6699 55.82 43.1199 55.82C43.8399 55.82 44.5599 55.82 45.2799 55.82C46.0199 55.82 46.1199 55.72 46.1299 54.99C46.1299 53.29 46.1299 51.59 46.1299 49.88V49.89Z" fill="#515050"/>
<path d="M29.6199 33.8C26.3199 33.63 23.8499 32.14 22.3599 29.13C22.0399 28.47 22.1799 27.93 22.6999 27.7C23.1999 27.48 23.6599 27.71 23.9799 28.35C25.1399 30.67 27.0399 31.95 29.6199 31.96C32.2099 31.96 34.1099 30.7 35.2699 28.37C35.5999 27.71 36.0899 27.47 36.5999 27.72C37.1099 27.97 37.2299 28.49 36.8799 29.18C35.3799 32.16 32.9299 33.64 29.6099 33.81L29.6199 33.8Z" fill="#515050"/>
<path d="M47.94 49.87C47.94 48.11 47.95 46.34 47.94 44.58C47.93 43.35 48.41 42.42 49.47 41.78C50.6 41.1 51.4199 40.12 51.9799 38.94C52.2399 38.4 52.4799 37.85 52.7499 37.31C53.1599 36.49 53.94 36.19 54.7 36.54C55.44 36.89 55.71 37.71 55.33 38.54C54.76 39.78 54.17 41 53.6 42.24C53.13 43.25 53.49 43.84 54.6 43.85C56.08 43.85 57.5699 43.85 59.0499 43.85C59.4799 43.85 59.85 43.97 60.03 44.4C60.25 44.94 59.9299 45.42 59.2699 45.57C58.5899 45.72 58.32 46.01 58.36 46.54C58.4 47.08 58.7599 47.36 59.4699 47.38C59.6299 47.38 59.79 47.38 59.95 47.4C60.41 47.46 60.69 47.74 60.71 48.19C60.74 48.68 60.4499 48.99 59.9799 49.07C59.7299 49.12 59.46 49.07 59.2 49.1C58.72 49.14 58.42 49.4 58.36 49.89C58.3 50.41 58.5699 50.73 59.0499 50.87C59.1599 50.9 59.2899 50.89 59.4099 50.92C59.8599 51.04 60.09 51.33 60.07 51.79C60.05 52.26 59.77 52.52 59.32 52.59C59.08 52.62 58.84 52.59 58.6 52.61C58.1 52.66 57.7799 52.92 57.7199 53.43C57.6699 53.92 57.97 54.29 58.5 54.4C59.19 54.54 59.4799 54.83 59.4399 55.34C59.3999 55.86 59.05 56.12 58.36 56.12C55.29 56.12 52.2299 56.12 49.1599 56.12C48.9599 56.12 48.76 56.11 48.56 56.08C48.11 56.02 47.9099 55.83 47.9299 55.3C47.9799 53.5 47.95 51.69 47.95 49.89L47.94 49.87Z" fill="#F5E500"/>
<path d="M35.9199 24.78C37.0135 24.78 37.8999 23.3831 37.8999 21.66C37.8999 19.9369 37.0135 18.54 35.9199 18.54C34.8264 18.54 33.9399 19.9369 33.9399 21.66C33.9399 23.3831 34.8264 24.78 35.9199 24.78Z" fill="#515050"/>
<path d="M23.84 24.78C24.9335 24.78 25.82 23.3831 25.82 21.66C25.82 19.9369 24.9335 18.54 23.84 18.54C22.7465 18.54 21.86 19.9369 21.86 21.66C21.86 23.3831 22.7465 24.78 23.84 24.78Z" fill="#515050"/>
</svg>
