<svg width="31" height="30" viewBox="0 0 31 30" fill="none" xmlns="http://www.w3.org/2000/svg">
<g clip-path="url(#clip0_65_616)">
<path d="M15.5286 29.97C23.7963 29.97 30.4986 23.2677 30.4986 15C30.4986 6.7323 23.7963 0.0299988 15.5286 0.0299988C7.26089 0.0299988 0.558594 6.7323 0.558594 15C0.558594 23.2677 7.26089 29.97 15.5286 29.97Z" fill="#4CC764"/>
<path d="M25.5191 14.13C25.5191 9.66 21.0491 6.03 15.5291 6.03C10.0091 6.03 5.53906 9.66 5.53906 14.13C5.53906 18.6 9.07906 21.48 13.8791 22.14C14.2091 22.2 14.6591 22.35 14.7491 22.62C14.8391 22.86 14.8091 23.28 14.7791 23.52C14.7791 23.52 14.6591 24.21 14.6291 24.39C14.5991 24.63 14.4191 25.38 15.4991 24.93C16.5791 24.48 21.2591 21.54 23.3591 19.14C24.7991 17.55 25.4891 15.93 25.4891 14.16L25.5191 14.13Z" fill="white"/>
<path d="M22.1875 16.71C22.3075 16.71 22.3675 16.62 22.3675 16.53V15.81C22.3675 15.72 22.2775 15.63 22.1875 15.63H20.2675V14.88H22.1875C22.3075 14.88 22.3675 14.79 22.3675 14.7V13.98C22.3675 13.89 22.2775 13.8 22.1875 13.8H20.2675V13.05H22.1875C22.3075 13.05 22.3675 12.96 22.3675 12.87V12.15C22.3675 12.06 22.2775 11.97 22.1875 11.97H19.3675C19.2475 11.97 19.1875 12.06 19.1875 12.15V16.5C19.1875 16.62 19.2775 16.68 19.3675 16.68H22.1875V16.71Z" fill="#4CC764"/>
<path d="M11.8086 16.71C11.9286 16.71 11.9886 16.62 11.9886 16.53V15.81C11.9886 15.72 11.8986 15.63 11.8086 15.63H9.88859V12.18C9.88859 12.09 9.79859 12 9.70859 12H8.98859C8.86859 12 8.80859 12.09 8.80859 12.18V16.53C8.80859 16.65 8.89859 16.71 8.98859 16.71H11.8086Z" fill="#4CC764"/>
<path d="M13.4898 11.97H12.7698C12.6704 11.97 12.5898 12.0506 12.5898 12.15V16.53C12.5898 16.6294 12.6704 16.71 12.7698 16.71H13.4898C13.5893 16.71 13.6698 16.6294 13.6698 16.53V12.15C13.6698 12.0506 13.5893 11.97 13.4898 11.97Z" fill="#4CC764"/>
<path d="M18.3203 11.97H17.6003C17.4803 11.97 17.4203 12.06 17.4203 12.15V14.73L15.4403 12.03H14.7503C14.6303 12.03 14.5703 12.12 14.5703 12.21V16.56C14.5703 16.68 14.6603 16.74 14.7503 16.74H15.4703C15.5903 16.74 15.6503 16.65 15.6503 16.56V13.98L17.6603 16.68C17.6603 16.68 17.6903 16.71 17.7203 16.74C17.7203 16.74 17.7503 16.74 17.7803 16.74H18.4703C18.5903 16.74 18.6503 16.65 18.6503 16.56V12.21C18.6503 12.09 18.5603 12.03 18.4703 12.03L18.3203 11.97Z" fill="#4CC764"/>
</g>
<defs>
<clipPath id="clip0_65_616">
<rect width="30" height="30" fill="white" transform="translate(0.5)"/>
</clipPath>
</defs>
</svg>
