<?xml version="1.0" encoding="UTF-8"?>
<svg id="Layer_2" data-name="Layer 2" xmlns="http://www.w3.org/2000/svg" viewBox="0 0 73 60.24">
  <defs>
    <style>
      .cls-1 {
        fill: #000;
      }

      .cls-1, .cls-2 {
        stroke-width: 0px;
      }

      .cls-2 {
        fill: #fff;
      }
    </style>
  </defs>
  <g id="NO.1">
    <g>
      <path class="cls-1" d="M28.02,11.13c-2.41-.28-4.67-.48-6.77-.62-2.1-.14-3.96-.21-5.58-.21-2.69,0-4.42.48-5.2,1.43-.78.95-1.91,4.02-3.39,9.2,7.24.64,12.75,2.35,16.54,5.11,3.79,2.76,5.69,6.43,5.69,11,0,4.02-1.4,7.76-4.19,11.21-2.79,3.45-6.72,6.28-11.78,8.49-2.31,1.01-4.75,1.85-7.31,2.51-2.57.66-4.37.99-5.4.99-.21,0-.36-.12-.46-.37-.1-.25-.16-.6-.16-1.06,0-.22,1.21-.59,3.62-1.13,2.41-.54,4.62-1.22,6.62-2.05,3.89-1.6,6.99-3.91,9.28-6.95,2.29-3.04,3.44-6.32,3.44-9.85,0-3.9-1.32-6.88-3.95-8.95-2.64-2.07-6.47-3.11-11.5-3.11-.24,0-.71.02-1.4.07-.69.05-1.6.12-2.74.21l-.72-.64c.48-1.26,1.53-4.34,3.15-9.25,1.62-4.91,3.24-8.84,4.86-11.78h5.32c1.76,0,3.65.06,5.69.18,2.03.12,3.17.19,3.41.19,2.1,0,3.64-.62,4.6-1.87.96-1.24,1.62-1.86,1.96-1.86.28,0,.58.08.91.23.33.15.49.32.49.51,0,.09-.6,1.01-1.81,2.76-1.21,1.75-2.28,3.62-3.21,5.61Z"/>
      <path class="cls-1" d="M67.86,7.6v5.44h-2.16v-5.44h-5.14v-2.16h5.14V0h2.16v5.44h5.14v2.16h-5.14Z"/>
      <g>
        <path class="cls-2" d="M40.33,21.01c-.58-.37-1.49-.56-2.73-.56h-2.51l-2.05,8.89c.64.06,1.46-.41,2.02-1.23.26-.39.43-.79.51-1.18h0l1.24-5.37h.46c.6,0,1.02.06,1.28.18.48.23.72.64.72,1.22s-.23,1.06-.69,1.41c-.46.35-1.07.52-1.84.51l-.24,1.03c.09,0,.2.01.33.01,1.25,0,2.33-.3,3.25-.9.83-.54,1.25-1.27,1.25-2.17,0-.78-.34-1.39-1.02-1.83Z"/>
        <path class="cls-2" d="M57.22,20.64c-.9,0-1.64.6-1.83,1.4l-.74,3.27c-.16.73-.37,1.32-.64,1.75-.43.73-1.13,1.09-2.09,1.09-.5,0-.89-.12-1.18-.36-.29-.24-.44-.56-.44-.97,0-.32.09-.85.26-1.6l1.05-4.56h-1.91l-1.02,4.44c-.21.93-.32,1.6-.32,2.01,0,.7.29,1.25.88,1.66.59.4,1.39.61,2.41.61,1.36,0,2.45-.37,3.28-1.11.36-.33.64-.68.83-1.07.19-.39.38-.98.56-1.77l1.1-4.75c-.07,0-.13-.01-.2-.01Z"/>
        <path class="cls-2" d="M45.53,28.15h-.3c-.05,0-.16,0-.16,0h-1.4l1.71-7.51h-1.91l-1.97,8.57h5.67c-.14-.57-.82-1-1.65-1.05Z"/>
        <path class="cls-2" d="M61,21.85c.28-.21.65-.31,1.11-.31.41,0,.87.13,1.36.4l.82-.81c-.71-.43-1.5-.65-2.38-.65-.96,0-1.75.21-2.38.62-.63.42-.94.95-.94,1.59,0,.56.34,1.19,1.02,1.87.68.69,1.02,1.03,1.03,1.04.45.51.68.96.68,1.36,0,.38-.16.69-.49.93-.32.24-.73.37-1.23.37-.58,0-1.21-.22-1.9-.66l-.77.92c.75.55,1.68.82,2.79.82s1.93-.23,2.59-.68c.67-.46,1-1.06,1-1.8,0-.62-.34-1.26-1.03-1.91-.5-.49-.79-.79-.88-.89-.56-.63-.83-1.09-.83-1.39,0-.33.14-.61.42-.81Z"/>
      </g>
      <path class="cls-1" d="M48.68,5.13c-10.92,0-19.77,8.85-19.77,19.77s8.85,19.77,19.77,19.77,19.77-8.85,19.77-19.77S59.59,5.13,48.68,5.13ZM38.56,21.74c-.25-.12-.68-.18-1.28-.18h-.46l-1.24,5.37h0c-.08.38-.25.79-.51,1.18-.56.83-1.38,1.3-2.02,1.23l2.05-8.89h2.51c1.24,0,2.15.19,2.73.56.68.44,1.02,1.05,1.02,1.83,0,.91-.41,1.63-1.25,2.17-.91.6-2,.9-3.25.9-.13,0-.24,0-.33-.01l.24-1.03c.77,0,1.38-.16,1.84-.51.46-.35.69-.82.69-1.41s-.24-.99-.72-1.22ZM41.51,29.2l1.97-8.57h1.91l-1.71,7.51h1.4s.11,0,.16,0h.3c.83.05,1.51.48,1.65,1.05h-5.67ZM49.69,20.64h1.91l-1.05,4.56c-.17.75-.26,1.28-.26,1.6,0,.41.15.73.44.97.29.24.69.36,1.18.36.96,0,1.66-.36,2.09-1.09.26-.43.48-1.02.64-1.75l.74-3.27c.18-.8.93-1.4,1.83-1.4.07,0,.14,0,.2.01l-1.1,4.75c-.18.79-.37,1.38-.56,1.77-.19.39-.47.74-.83,1.07-.83.74-1.92,1.11-3.28,1.11-1.02,0-1.83-.2-2.41-.61-.59-.4-.88-.96-.88-1.66,0-.41.11-1.08.32-2.01l1.02-4.44ZM56.95,28.53l.77-.92c.69.44,1.32.66,1.9.66.5,0,.9-.12,1.23-.37.32-.24.49-.55.49-.93,0-.4-.23-.85-.68-1.36-.01,0-.35-.35-1.03-1.04-.68-.68-1.02-1.31-1.02-1.87,0-.64.31-1.17.94-1.59.63-.42,1.42-.62,2.38-.62.88,0,1.67.22,2.38.65l-.82.81c-.5-.27-.95-.4-1.36-.4-.47,0-.84.1-1.11.31-.28.21-.42.48-.42.81,0,.3.28.77.83,1.39.09.11.38.4.88.89.69.65,1.03,1.29,1.03,1.91,0,.74-.33,1.34-1,1.8-.67.46-1.53.68-2.59.68s-2.04-.27-2.79-.82Z"/>
    </g>
  </g>
</svg>