<svg width="182" height="33" viewBox="0 0 182 33" fill="none" xmlns="http://www.w3.org/2000/svg">
<path d="M145.548 23.1437H148.747V21.6404H145.548V23.1437ZM145.548 21.1942H148.747V19.8969H145.548V21.1942ZM148.383 16.3342H145.541V17.9542H148.383V16.3342ZM144.224 16.3342H141.416V17.9542H144.224V16.3342ZM150.477 13.7188C151.102 14.2543 151.431 14.5975 151.431 14.7485C151.431 14.8789 151.369 14.9407 151.266 14.9407H145.541V15.9704H148.171C148.528 15.6134 148.782 15.4212 148.912 15.4075C149.029 15.4212 149.283 15.5585 149.653 15.8262C149.983 16.0939 150.161 16.2724 150.161 16.3754C150.161 16.4646 150.086 16.5539 149.955 16.6294C149.749 16.7804 149.612 16.8834 149.585 16.9451V17.7346C149.633 18.0435 149.66 18.2425 149.66 18.3318C149.66 18.6269 149.42 18.7917 148.946 18.7917C148.589 18.7917 148.397 18.7162 148.383 18.5377V18.3592H145.541V19.5468H148.541C148.96 19.1486 149.241 18.9358 149.386 18.9358C149.489 18.9358 149.715 19.0731 150.072 19.334C150.429 19.6497 150.607 19.8557 150.607 19.9724C150.607 20.0616 150.532 20.1371 150.402 20.2126C150.312 20.2744 150.175 20.3636 150.017 20.4941V21.208H150.271C150.601 20.6245 150.807 20.3293 150.896 20.3156C150.958 20.3156 151.088 20.4803 151.294 20.803C151.5 21.0981 151.623 21.2903 151.651 21.4139C151.651 21.5649 151.589 21.6542 151.472 21.6542H150.017V22.6976C150.065 23.2055 150.093 23.6449 150.093 24.0224C150.093 24.2901 149.784 24.4411 149.173 24.4686C148.878 24.4686 148.74 24.3656 148.74 24.1734V23.5625H145.541V24.6333C145.541 25.8827 144.917 26.5073 143.695 26.5073C143.503 26.5073 143.4 26.4181 143.4 26.2534C143.338 25.9856 143.16 25.7317 142.837 25.512C142.61 25.3472 142.288 25.2305 141.842 25.155C141.855 25.0933 141.869 25.0246 141.869 24.9148C142.212 24.9422 142.912 24.9422 143.963 24.9422C144.127 24.9422 144.217 24.8118 144.217 24.5441V23.5762C142.253 23.5899 140.695 23.638 139.521 23.6929C139.405 23.4527 139.329 23.2467 139.281 23.0545C139.878 23.1026 141.526 23.13 144.217 23.1437V21.661H140.517C139.075 21.6885 138.348 21.7228 138.348 21.7777C138.258 21.5992 138.155 21.3453 138.066 21.0226C138.272 21.0844 139.034 21.1531 140.359 21.2148H144.224V19.9175H143.599C141.862 19.9175 140.578 19.9655 139.775 20.0341C139.714 19.8557 139.659 19.6635 139.583 19.4369C140.222 19.5125 141.649 19.5399 143.867 19.5399H144.224V18.3524H141.416V18.5308C141.354 18.826 141.073 18.977 140.599 18.977C140.304 18.977 140.125 18.929 140.064 18.826C140.064 18.2906 140.077 17.7689 140.125 17.2678V16.2381C140.098 15.8056 140.064 15.5517 140.009 15.4624L141.347 15.9704H144.23V14.9407H141.835C140.112 14.9407 139.041 15.0025 138.622 15.1192C138.519 14.8652 138.402 14.6112 138.265 14.3435C138.979 14.4465 140.215 14.4945 141.951 14.4945H144.224C144.21 13.8424 144.162 13.3344 144.107 12.9912C145.445 13.2315 146.159 13.4237 146.276 13.6021C146.276 13.6914 146.228 13.7326 146.159 13.7532C146.056 13.8012 145.919 13.8561 145.775 13.9316C145.624 14.0072 145.548 14.0689 145.548 14.1238V14.4945H149.029C149.475 13.9316 149.784 13.5884 149.997 13.4649C150.045 13.4649 150.086 13.4786 150.134 13.4786C150.251 13.5404 150.374 13.6296 150.491 13.7188" fill="white"/>
<path d="M160.588 18.6544C161.007 17.8993 161.254 17.2129 161.33 16.6019H157.348C157.527 16.6774 157.692 16.753 157.822 16.8079C158.406 17.1374 158.701 17.5218 158.701 17.968C158.687 18.2975 158.598 18.5171 158.433 18.6338L158.419 18.6475H160.588V18.6544ZM155.873 13.9728C156.497 14.3023 156.827 14.6868 156.827 15.1329C156.813 15.4624 156.724 15.6958 156.559 15.8194C156.456 15.9086 156.305 15.9567 156.099 15.9567C155.77 15.9567 155.55 15.737 155.447 15.2565C155.316 14.8584 155.165 14.5426 155.014 14.3367C154.911 14.1582 154.76 13.9797 154.582 13.7738C154.609 13.7257 154.658 13.6708 154.712 13.609C155.186 13.6983 155.577 13.815 155.873 13.9797M165.538 15.4556C166.114 15.9498 166.416 16.2587 166.416 16.3891C166.416 16.5402 166.355 16.5951 166.252 16.5951H161.824C162.744 16.8902 163.204 17.1305 163.204 17.2815C163.204 17.3982 162.922 17.4875 162.387 17.5355C162.092 17.9542 161.659 18.3249 161.11 18.6475H163.828C164.247 18.1396 164.542 17.8444 164.735 17.7277C164.762 17.7277 164.796 17.7414 164.838 17.7414C164.94 17.8032 165.064 17.8719 165.181 17.968C165.744 18.4553 166.046 18.7711 166.046 18.9015C166.046 19.0526 165.984 19.1075 165.895 19.1075H160.382V20.295H162.716C163.087 19.8488 163.369 19.5674 163.547 19.4644H163.65C163.739 19.5262 163.842 19.5811 163.945 19.6704C164.467 20.1165 164.735 20.4117 164.735 20.5353C164.735 20.6863 164.673 20.7412 164.584 20.7412H160.376V22.0043H164.213C164.611 21.4963 164.913 21.1874 165.105 21.0707C165.133 21.0707 165.181 21.0844 165.222 21.0844C165.325 21.1462 165.428 21.2217 165.551 21.311C166.128 21.7983 166.43 22.1141 166.43 22.2445C166.43 22.3955 166.368 22.4505 166.265 22.4505H161.035C161.776 23.1163 162.552 23.5762 163.369 23.8439C164.288 24.2009 165.345 24.3931 166.533 24.4206C166.533 24.5235 166.519 24.6128 166.506 24.6883C166.416 24.702 166.3 24.7775 166.149 24.9285C166.073 25.0178 165.984 25.1962 165.881 25.4777C165.819 25.6562 165.716 25.7454 165.586 25.7454C165.064 25.7454 164.206 25.4022 162.984 24.7363C161.961 24.1734 161.172 23.4115 160.609 22.4505H160.382V24.1734C160.41 24.7569 160.444 25.4502 160.444 26.2877C160.444 26.4662 160.177 26.5829 159.655 26.6172C159.236 26.6172 159.03 26.5417 159.03 26.4113C159.058 25.9788 159.078 25.21 159.078 24.0911V23.3154C157.637 24.3588 155.673 25.2168 153.209 25.917C153.12 25.8003 153.044 25.6973 153.003 25.6356C155.323 24.6677 156.943 23.6723 157.891 22.6289C157.952 22.5672 158.007 22.5122 158.055 22.4505H156.806C155.083 22.4505 153.999 22.5122 153.58 22.6289C153.477 22.3749 153.353 22.121 153.223 21.8601C153.95 21.9631 155.2 22.0111 156.985 22.0111H159.078V20.7481H157.561C156.271 20.7481 155.468 20.8099 155.152 20.9265C155.049 20.6588 154.932 20.4048 154.809 20.1509C155.33 20.2538 156.236 20.3019 157.513 20.3019H159.071V19.1143H157.156C155.55 19.1143 154.568 19.1761 154.184 19.2791C154.081 19.0251 153.957 18.7711 153.827 18.524C154.493 18.6132 155.639 18.6544 157.259 18.6544H157.678C157.561 18.5377 157.472 18.3592 157.41 18.0915C157.293 17.6865 157.156 17.3776 157.039 17.1717C156.937 16.9932 156.785 16.8147 156.607 16.6088C155.014 16.6225 154.019 16.6843 153.621 16.7735C153.532 16.5196 153.415 16.2656 153.278 16.0185C154.005 16.1077 155.255 16.1489 157.026 16.1489H157.561V14.5289C157.561 13.9179 157.534 13.4306 157.486 13.0599C158.776 13.2521 159.435 13.4168 159.435 13.5678C159.435 13.6845 159.346 13.7601 159.195 13.7875C158.927 13.9042 158.776 13.9934 158.776 14.069V16.1489H160.142V14.5289C160.142 13.9179 160.115 13.4306 160.067 13.0599C161.357 13.2521 162.016 13.4168 162.016 13.5678C162.016 13.6845 161.927 13.7601 161.776 13.7875C161.508 13.9042 161.357 13.9934 161.357 14.069V16.1489H162.044C162.565 15.4624 162.874 14.6318 162.998 13.6502C163.609 13.8562 164.069 14.0209 164.364 14.1445C164.68 14.2612 164.838 14.3641 164.851 14.4259C164.851 14.5151 164.762 14.5907 164.597 14.6181C164.343 14.6936 164.179 14.7348 164.11 14.7691C163.828 15.332 163.32 15.7919 162.593 16.1489H164.199C164.597 15.6409 164.899 15.3457 165.091 15.229C165.119 15.229 165.167 15.2428 165.208 15.2428C165.311 15.3046 165.414 15.3732 165.538 15.4624" fill="white"/>
<path d="M176.329 13.6708C176.926 14.0895 177.221 14.5906 177.221 15.1741C177.207 15.5036 177.118 15.737 176.953 15.8606C176.85 15.9498 176.699 15.991 176.493 15.991C176.198 15.991 175.985 15.6958 175.896 15.0849C175.779 14.5632 175.642 14.1788 175.512 13.9111C175.409 13.7326 175.258 13.5404 175.079 13.3344C175.107 13.307 175.155 13.2452 175.217 13.1834C175.663 13.3001 176.033 13.4649 176.329 13.6708ZM171.283 15.7233C171.283 15.9635 171.27 16.1832 171.27 16.3891H172.649V14.1856H171.311C171.297 14.5906 171.283 15.0917 171.283 15.7164M171.05 19.0525C171.228 19.0663 171.407 19.0663 171.599 19.0663H172.656V16.8216H171.256C171.228 17.6385 171.153 18.3798 171.05 19.0525ZM170.707 23.7066C170.707 24.1254 170.707 24.5853 170.734 25.0589H172.622V21.8189H170.707V23.7066ZM175.361 16.6912C175.333 16.7804 175.285 16.8285 175.21 16.8285H173.885V19.9175C173.885 20.0959 173.679 20.1989 173.274 20.2332C172.903 20.2332 172.69 20.1852 172.649 20.1028V19.4781H171.448C171.269 19.4781 171.118 19.4919 170.974 19.4919C170.844 20.192 170.659 20.7961 170.453 21.3315L170.693 21.4482H172.402C172.787 20.9746 173.054 20.7343 173.205 20.7206C173.322 20.7343 173.59 20.8853 173.995 21.1668C174.352 21.4345 174.544 21.6404 174.544 21.764V21.7777C174.901 21.8395 175.388 21.867 175.999 21.867H176.891V19.382H176.493C175.69 19.382 175.189 19.4438 174.99 19.5605C174.887 19.3065 174.77 19.0525 174.633 18.7848C174.928 18.8878 175.422 18.9358 176.136 18.9358H176.891V16.6912H175.361ZM180.234 18.3112C180.756 18.7574 181.024 19.0525 181.024 19.1761C181.024 19.3271 180.962 19.382 180.873 19.382H178.299V21.867H179.308C179.727 21.359 180.022 21.0638 180.214 20.9471C180.241 20.9471 180.276 20.9609 180.317 20.9609C180.42 21.0226 180.537 21.0776 180.66 21.1668C181.223 21.6748 181.525 21.9837 181.525 22.121C181.525 22.2582 181.463 22.3132 181.374 22.3132H178.299V23.9744C178.326 24.6128 178.36 25.3747 178.36 26.2671C178.36 26.473 178.079 26.5966 177.516 26.624C177.07 26.624 176.83 26.5485 176.83 26.4044C176.857 25.9307 176.891 25.1139 176.891 23.9057V22.3132H176.342C175.422 22.3132 174.853 22.3749 174.633 22.4916C174.558 22.3132 174.482 22.1484 174.407 21.9699C174.359 21.9974 174.331 22.0317 174.317 22.0317C174.098 22.2102 173.96 22.3132 173.933 22.3749V24.4137C173.974 25.1894 174.008 25.6905 174.008 25.9307C174.008 26.2602 173.741 26.4181 173.233 26.4387C172.848 26.4387 172.636 26.3495 172.622 26.171V25.4571H170.748C170.748 25.6973 170.762 25.9445 170.775 26.1847C170.7 26.4387 170.391 26.5691 169.821 26.5691C169.54 26.5691 169.402 26.4799 169.402 26.3151C169.416 25.5257 169.43 24.6677 169.43 23.7135V23.1026C168.984 23.638 168.476 24.0361 167.913 24.3039C167.913 24.2901 167.885 24.2146 167.837 24.0636C168.791 23.0957 169.395 21.5787 169.698 19.5125C169.265 19.5399 168.894 19.5742 168.599 19.6017C168.483 19.3614 168.407 19.1418 168.359 18.9633C168.565 18.9908 169.025 19.0251 169.773 19.0388C169.862 18.3524 169.91 17.611 169.938 16.8353C168.737 16.8628 168.126 16.9108 168.126 16.952C168.036 16.7735 167.933 16.5058 167.83 16.1763C168.036 16.2518 168.737 16.3068 169.958 16.3685V15.9498C169.958 15.5929 169.972 14.9956 169.986 14.1788H169.807C169.21 14.1788 168.839 14.2268 168.709 14.2817C168.592 14.0895 168.489 13.8355 168.366 13.5404C168.585 13.6571 169.018 13.7326 169.643 13.7806H172.423C172.841 13.3962 173.123 13.1972 173.24 13.1972C173.446 13.2864 173.672 13.4168 173.892 13.5953C174.235 13.8493 174.413 14.0278 174.413 14.1444C174.413 14.2611 174.235 14.4602 173.878 14.7073V16.2656C174.207 15.7439 174.413 15.4762 174.516 15.4762C174.592 15.4762 174.736 15.6409 174.976 15.9498C175.066 16.0665 175.127 16.1557 175.182 16.245H177.743C178.354 15.0437 178.697 13.9728 178.786 13.0187C180.022 13.4031 180.646 13.6708 180.646 13.8493C180.646 13.966 180.365 14.0552 179.816 14.1033C179.445 14.8721 178.882 15.586 178.106 16.245H179.342C179.699 15.7713 179.939 15.4693 180.083 15.3801C180.097 15.3801 180.132 15.3663 180.173 15.3663C180.276 15.3938 180.454 15.5311 180.708 15.7507C181.051 16.0802 181.244 16.2999 181.285 16.4166C181.285 16.5676 181.237 16.6431 181.182 16.6568H178.299V18.9015H178.999C179.37 18.4553 179.637 18.1739 179.816 18.0709C179.843 18.0709 179.891 18.0846 179.919 18.0846C180.008 18.1464 180.111 18.2013 180.234 18.2769" fill="white"/>
<path d="M0.454241 12.7167C0.454241 12.7167 0.618988 13.204 0.804329 13.4855L1.14069 14.0278L1.16815 14.3641C1.16815 14.3641 1.38781 14.776 1.53196 14.9133C1.53196 14.9133 1.8134 15.5311 2.75384 15.3938C2.75384 15.3938 3.39223 15.1947 3.36477 14.7279C3.36477 14.7279 3.50893 14.5838 3.48147 14.2543C3.48147 14.2543 3.65995 13.9797 3.68054 13.8218C3.68054 13.8218 3.91393 13.6022 3.2824 13.2521L3.06274 13.0393C3.06274 13.0393 2.65087 12.6686 1.64179 12.3322C1.64179 12.3322 0.91416 12.0302 0.612124 12.3185C0.612124 12.3185 0.433648 12.3666 0.454241 12.6892" fill="white"/>
<path d="M5.00538 11.4124L4.97106 11.6252C4.97106 11.6252 4.80631 11.9272 4.90928 12.5725C4.90928 12.5725 5.00538 13.2521 5.20445 13.5816C5.20445 13.5816 5.27996 13.8356 5.25937 14.0346C5.25937 14.0346 5.33487 14.4945 6.03505 14.4465C6.03505 14.4465 6.57734 14.4122 7.27752 13.9866C7.27752 13.9866 8.3827 13.6708 9.13779 13.2521C9.13779 13.2521 9.54965 13.0736 9.88601 12.9295C9.88601 12.9295 11.0392 12.4764 11.5129 12.3117C11.5129 12.3117 12.6455 11.8174 14.1557 11.5772C14.1557 11.5772 15.5423 11.3781 17.7527 11.6595C17.7527 11.6595 18.8235 11.7556 19.8532 11.6252C19.8532 11.6252 20.1758 11.6046 20.2857 11.2133C20.2857 11.2133 20.2651 11.0966 20.3818 11.0211C20.3818 11.0211 20.5053 10.472 19.7159 10.1768C19.7159 10.1768 19.256 9.94341 17.9792 9.82672C17.9792 9.82672 17.1486 9.5796 16.1945 9.84731C16.1945 9.84731 15.206 10.0052 14.8902 9.90909C14.8902 9.90909 14.4097 9.94341 14.4509 9.59332L14.4372 8.52247C14.4372 8.52247 14.3754 8.40577 15.6453 7.9939C15.6453 7.9939 16.2219 7.65755 16.7505 6.84068C16.7505 6.84068 17.0525 6.38076 16.7162 6.10618L16.4553 5.63939L15.5423 5.70117C15.5423 5.70117 14.3342 5.75609 14.2793 5.20693C14.2793 5.20693 14.1969 5.26871 14.2861 4.37633L14.3822 3.48395C14.3822 3.48395 14.5538 2.27581 14.4234 1.96004C14.4234 1.96004 14.2449 0.848001 12.4671 0.47732C12.4671 0.47732 11.2589 0.140961 10.7097 0.456726C10.7097 0.456726 10.1057 0.573422 10.3871 1.19122L10.5313 2.75632C10.5313 2.75632 10.5519 2.95539 10.696 3.10641C10.696 3.10641 11.0873 4.34201 11.1491 5.15888C11.1491 5.15888 11.204 5.70804 10.7097 5.8316C10.7097 5.8316 9.87228 6.20914 8.87007 6.22287L7.48345 6.26406C7.48345 6.26406 6.35082 6.20914 6.1998 6.75144C6.1998 6.75144 6.13802 7.01229 6.21353 7.34865L6.30963 8.37145C6.30963 8.37145 6.31649 8.54306 6.58421 8.57052L7.07845 8.92061C7.07845 8.92061 7.18142 9.01671 7.49718 8.88628C7.49718 8.88628 9.08287 8.96866 9.90661 8.76959C9.90661 8.76959 10.8127 8.64603 11.355 8.59111C11.355 8.59111 11.6708 8.5362 11.609 9.32561C11.609 9.32561 11.3481 10.3347 10.6617 10.6505C10.6617 10.6505 9.77618 11.1378 7.79235 11.5566C7.79235 11.5566 7.26379 11.7076 6.83819 11.6389L5.88403 11.5634C5.88403 11.5634 5.30742 11.2683 5.01225 11.4261" fill="white"/>
<path d="M27.1982 29.6993C27.0403 29.3286 26.649 29.4247 26.649 29.4247L26.2372 29.1982L25.3516 29.1776L25.0359 29.1021C24.3838 28.903 22.8049 29.006 22.8049 29.006C21.5968 28.9717 19.9219 28.9648 19.9219 28.9648C19.153 29.006 18.1234 28.7726 18.1234 28.7726C16.5789 28.3813 16.1189 28.4568 15.6453 28.3813C15.1716 28.3058 15.2678 28.4225 14.5333 28.1822C13.7988 27.942 12.6524 27.8253 12.3298 27.8116C12.0003 27.8047 11.6502 27.688 11.6502 27.688C11.0324 27.4066 9.32313 26.8917 9.32313 26.8917L8.43075 26.6103C7.53837 26.3288 7.36675 26.0954 7.36675 26.0954C6.99607 25.8826 7.15396 25.5463 7.15396 25.5463C7.25692 25.2717 7.70998 25.107 7.70998 25.107L8.40329 24.6333C8.73965 24.5784 9.1927 24.0155 9.1927 24.0155L9.84482 23.5007C10.3322 23.3085 10.3322 23.8645 10.3322 23.8645V25.3884C10.4146 25.56 10.442 25.8758 10.442 25.8758C10.4969 26.0131 11.1079 25.965 11.1079 25.965L11.2246 25.8826C11.5403 26.0062 11.7463 25.9101 11.7463 25.9101C12.1993 25.711 12.3435 25.2305 12.3435 25.2305C12.6867 25.0177 12.7828 24.3244 12.7828 24.3244L13.1398 23.3703C13.1741 22.876 13.634 22.9515 13.634 22.9515C14.7461 23.0888 15.7963 23.8027 15.7963 23.8027C16.0091 23.8988 16.2082 24.1253 16.2082 24.1253L16.6406 24.0979C17.2859 24.5303 17.636 24.2558 17.636 24.2558C17.9106 24.297 18.4254 24.1597 18.4254 24.1597C19.2697 24.0155 19.6473 23.686 19.6473 23.686C20.7525 23.3153 20.7113 23.1575 20.7113 23.1575C21.0682 22.8142 20.7113 22.6838 20.7113 22.6838L20.1209 22.3063C19.6198 22.2857 19.0363 22.2308 19.0363 22.2308C18.7618 22.0935 17.6291 21.9287 17.6291 21.9287L17.2996 21.8738C16.977 21.8189 15.8375 21.5992 15.8375 21.5992C15.4874 21.5237 15.7963 21.2972 15.7963 21.2972L17.0251 20.8579C18.5146 20.343 18.8716 20.0616 18.8716 20.0616C19.153 19.9106 19.0844 19.3751 19.0844 19.3751C18.8029 18.9633 18.7549 18.4278 18.7549 18.4278C18.7206 17.3844 18.4529 17.4531 18.4529 17.4531H17.9929H17.8007C17.6154 17.4462 17.1006 17.2746 17.1006 17.2746C16.6544 17.0138 16.5857 16.2793 16.5857 16.2793C16.3661 15.6615 16.7573 15.3182 16.7573 15.3182C17.1212 14.927 17.9106 13.8081 17.9106 13.8081C18.3293 13.2932 17.5879 12.8814 17.5879 12.8814L17.2859 12.7029C16.9839 12.5244 16.9358 12.6205 16.9358 12.6205L16.675 12.7372C16.4416 12.7166 15.206 12.8333 15.206 12.8333C12.1581 13.2864 11.4923 13.6433 11.4923 13.6433C10.1675 14.0964 9.63203 14.824 9.63203 14.824C9.28194 15.0231 8.99363 15.3732 8.99363 15.3732C8.65727 15.8674 8.82888 17.0138 8.82888 17.0138C8.90439 17.3158 8.8838 18.0091 8.8838 18.0091C8.80143 18.1807 8.49253 18.3455 8.49253 18.3455C8.43761 18.9015 8.84948 19.4987 8.84948 19.4987L9.08973 20.192C9.04855 20.3911 9.25448 20.6931 9.25448 20.6931C9.34372 21.0432 9.11033 21.3384 9.11033 21.3384C8.87694 21.4757 8.40329 21.9905 8.40329 21.9905C7.53837 22.574 7.16082 23.535 7.16082 23.535C6.70777 23.7958 6.46751 24.3725 6.46751 24.3725L6.44692 24.5441L6.26158 24.7363C5.94581 25.3953 5.09462 25.1962 5.09462 25.1962C4.79945 25.0452 4.82004 24.7637 4.82004 24.7637L4.85436 23.5762C4.93674 22.2102 4.66216 21.812 4.66216 21.812C4.56605 21.4757 4.53173 20.4872 4.53173 20.4872C4.64843 20.1234 4.56605 19.2996 4.56605 19.2996C4.42877 19.1417 4.33266 18.3111 4.33266 18.3111C3.52266 17.206 2.5685 17.2952 2.5685 17.2952C2.52731 17.3707 2.62341 18.2219 2.62341 18.2219L2.74011 18.6612C2.76757 18.8809 2.78129 19.4163 2.78129 19.4163C2.88426 19.8762 2.7607 20.8029 2.7607 20.8029C2.6646 21.2766 2.71951 21.7365 2.71951 21.7365L2.74697 22.6632C2.68519 23.2192 2.51358 24.6059 2.51358 24.6059C2.37629 24.7843 2.32138 25.0452 2.32138 25.0452C2.22527 25.6012 2.26646 26.8025 2.26646 26.8025C2.18409 27.0839 2.42434 27.5713 2.42434 27.5713C2.88426 27.9283 3.31672 27.9626 3.31672 27.9626L5.20445 27.9832C5.59572 27.9626 6.6048 28.2577 6.6048 28.2577C7.86786 28.5117 9.11719 29.054 9.11719 29.054C10.2224 29.9189 10.4764 29.8846 10.4764 29.8846C10.8196 30.1798 11.5403 30.4201 11.5403 30.4201L11.9179 30.6397L12.2474 30.7633C12.4053 30.9967 13.4212 31.079 13.4212 31.079L14.0596 31.3536C14.4097 31.4085 15.8169 32.3078 15.8169 32.3078L16.4896 32.3215C16.4896 32.2391 17.0594 31.944 17.0594 31.944L17.2241 31.8822C17.4575 31.6488 18.2126 31.4223 18.2126 31.4223C19.3178 31.2987 19.4963 31.1614 19.4963 31.1614L20.876 30.9692L23.7042 30.8937C24.775 30.8731 25.4821 31.1271 25.4821 31.1271C25.7155 31.4154 26.0587 31.4017 26.0587 31.4017C26.4362 31.4223 26.5117 30.9692 26.5117 30.9692C26.6696 30.9143 26.6834 30.7358 26.6834 30.7358C26.7863 30.5711 27.2394 30.0974 27.2394 30.0974C27.4178 29.9258 27.1845 29.7061 27.1845 29.7061M13.6477 20.5215L13.7027 19.7664C13.7027 19.7664 13.8262 19.4987 14.0253 19.3339C14.0253 19.3339 14.444 18.826 14.7666 18.7299L14.9932 18.4622C14.9932 18.4622 15.3021 17.9405 16.1258 18.0022L16.5034 18.0434C16.5034 18.0434 16.6544 18.0983 16.5445 18.4622C16.5445 18.4622 16.4759 18.9221 16.2219 19.0662C16.2219 19.0662 15.9954 19.4712 15.6453 19.5124C15.6453 19.5124 15.3501 19.8625 15.0824 19.89C15.0824 19.89 14.6088 20.1165 14.5058 20.2675L13.9704 20.6039C13.9704 20.6039 13.6203 20.748 13.634 20.5215M11.0118 15.2153C11.0118 15.2153 11.2932 14.9064 11.5884 14.824L12.6387 14.6592C12.6387 14.6592 12.9201 14.6455 13.0711 14.5151C13.0711 14.5151 13.2839 14.4053 13.5516 14.4465C13.5516 14.4465 13.7919 14.3778 13.9155 14.3092C13.9155 14.3092 14.3067 14.1307 14.7255 14.5631C14.7255 14.5631 14.9657 14.7485 14.19 15.1672C14.19 15.1672 13.9841 15.6271 13.4899 15.8537L13.2908 16.0665L12.8446 16.3067L12.6455 16.4715L12.5014 16.4989C12.5014 16.4989 12.0415 16.8078 11.6776 16.7941C11.6776 16.7941 11.3413 16.8765 11.2452 16.5676L11.0598 16.2587L11.0461 16.0321C11.0461 16.0321 10.7509 15.5722 11.0049 15.2153" fill="white"/>
<path d="M49.4047 20.4254C49.4596 19.5399 49.1782 19.5125 49.1782 19.5125C48.9791 19.4301 48.6016 19.2997 48.6016 19.2997C48.3201 19.0045 47.771 18.7368 47.771 18.7368C47.5582 18.5514 46.8855 18.0091 46.8855 18.0091C46.7344 17.7689 46.4805 17.5424 46.4805 17.5424C46.1304 16.9657 45.7391 16.801 45.7391 16.801C45.1625 16.5196 45.1762 17.2678 45.1762 17.2678C45.1625 17.5629 45.4165 18.6338 45.4165 18.6338L45.4988 20.6725C45.4577 21.1187 44.9085 21.812 44.9085 21.812C44.7712 21.8807 44.3868 22.2994 44.3868 22.2994L44.1328 22.5397C43.8788 22.7799 43.3365 23.1575 43.3365 23.1575C43.0002 23.5076 41.8607 23.9469 41.8607 23.9469C41.2291 24.1322 40.6663 24.3862 40.6663 24.3862C40.5152 24.3725 39.8357 24.551 39.8357 24.551C39.3895 24.5647 38.0646 24.6196 38.0646 24.6196C36.8016 24.6608 35.9435 24.2009 35.9435 24.2009C35.4561 23.9332 34.8864 23.5419 34.8864 23.5419C34.5088 23.3428 34.1999 22.9104 34.1999 22.9104C33.9048 22.574 33.74 21.9837 33.74 21.9837L33.9803 21.5924C34.145 21.4963 34.248 21.2972 34.248 21.2972C34.4059 21.0295 34.8246 20.8922 34.8246 20.8922C35.0511 20.7206 35.5522 21.0432 35.5522 21.0432C35.6552 21.1531 36.0465 21.2835 36.0465 21.2835L36.2112 21.3247C36.63 21.5375 36.8977 21.3796 36.8977 21.3796C37.083 21.3109 37.234 21.0707 37.234 21.0707C37.5429 20.9334 37.6596 20.2813 37.6596 20.2813C37.8106 19.8008 37.9411 19.0594 37.9411 19.0594C38.1401 18.7505 38.1264 18.572 38.1264 18.572C38.1539 18.167 38.3049 17.7002 38.3049 17.7002L38.6962 16.142C38.9776 14.7417 39.0737 13.7669 39.0737 13.7669C39.2865 12.2499 39.3551 10.6642 39.3551 10.6642C39.4512 10.4926 39.5062 9.9434 39.5062 9.9434C39.6023 9.7306 39.5748 9.51094 39.5748 9.51094C39.4512 8.63915 38.8472 8.50186 38.8472 8.50186L38.7373 8.48813C37.7145 7.99389 36.5613 7.99389 36.5613 7.99389C35.0717 7.87033 34.653 8.19296 34.653 8.19296C34.3166 8.30279 33.2801 8.79703 33.2801 8.79703C32.8476 8.85195 32.3671 9.21576 32.3671 9.21576C31.6326 9.42856 30.5 10.0189 30.5 10.0189C30.1087 10.2866 29.5596 10.2454 29.5596 10.2454C29.0722 10.1219 28.4063 9.37365 28.4063 9.37365C28.269 9.16085 27.8846 9.21576 27.8846 9.21576C27.4796 9.60704 27.4796 10.3278 27.4796 10.3278C27.4659 10.4239 27.4247 10.8495 27.4247 10.8495C27.2806 11.2408 27.3835 12.2567 27.3835 12.2567C27.2394 12.7441 27.3698 14.2405 27.3698 14.2405C27.26 14.2817 27.3149 16.2038 27.3149 16.2038V16.7941C27.157 17.1579 27.1913 18.016 27.1913 18.016C27.1913 18.421 27.1776 19.3065 27.1776 19.3065C27.1227 19.8694 27.5689 20.9059 27.5689 20.9059C27.9533 21.661 28.6329 21.8601 28.6329 21.8601L28.8113 21.9905C29.031 22.0935 28.9486 22.3681 28.9486 22.3681C28.9074 22.4642 28.4544 22.931 28.4544 22.931C28.372 22.931 28.0356 23.1575 28.0356 23.1575C27.8984 23.1575 27.6306 23.336 27.6306 23.336C27.1982 23.5488 26.6353 23.5625 26.6353 23.5625C26.395 23.5076 25.7772 23.6449 25.7772 23.6449C24.9329 23.8439 24.9192 24.0224 24.9192 24.0224C24.775 24.0911 24.8643 24.2764 24.8643 24.2764C24.878 24.5166 25.3722 24.9903 25.3722 24.9903C25.5439 25.0178 25.9077 25.2855 25.9077 25.2855C25.9489 25.3816 26.4843 25.7934 26.4843 25.7934C27.1021 26.1984 27.816 26.2396 27.816 26.2396C28.4475 26.3495 29.2644 25.6356 29.2644 25.6356C30.0538 25.1139 30.1636 24.8942 30.1636 24.8942L30.5412 24.4755C30.7814 24.1391 31.2551 23.8714 31.2551 23.8714C31.8317 23.336 32.2642 23.9538 32.2642 23.9538C32.5593 24.2489 33.3762 25.0383 33.3762 25.0383C33.7126 25.4708 34.248 25.7797 34.248 25.7797L34.6942 25.9788C35.1129 26.2602 36.0259 26.5142 36.0259 26.5142C36.5201 26.7682 38.7923 26.7133 38.7923 26.7133C40.2544 26.8231 41.4213 26.5142 41.4213 26.5142C42.2657 26.3563 43.1512 26.0749 43.1512 26.0749C43.8102 25.8964 44.6957 25.3884 44.6957 25.3884C45.2723 25.1756 45.8352 24.8118 45.8352 24.8118L46.5079 24.2901C47.8122 23.4458 48.5604 22.3543 48.5604 22.3543C49.4734 21.4139 49.391 20.4048 49.391 20.4048M30.7402 20.1646C30.7402 20.1646 30.7608 19.8831 31.1658 19.842C31.1658 19.842 31.2894 19.6841 31.7219 19.8008L31.8523 19.8145C31.8523 19.8145 31.9209 19.9724 31.7631 19.9724C31.7631 19.9724 31.715 20.1371 31.3992 20.3087C31.3992 20.3087 31.1864 20.5009 31.1178 20.5696C31.1178 20.5696 30.7677 20.7824 30.7746 20.5696C30.7746 20.5696 30.6716 20.5421 30.7471 20.1646M32.4083 17.2678C32.4083 17.2678 31.0491 17.4531 30.8501 17.4943L30.6647 17.4668C30.6647 17.4668 30.6647 17.309 30.5549 17.3296C30.5549 17.3296 30.6647 17.0756 30.6373 16.9108L30.6785 16.3068C30.6785 16.3068 30.7197 15.9979 31.2825 15.9017C31.2825 15.9017 31.8317 15.888 32.0582 15.689C32.0582 15.689 32.9849 15.4762 33.1565 15.1398C33.1565 15.1398 33.7332 15.0162 33.7743 14.776C33.7743 14.776 33.9528 14.6524 34.1244 14.3572C34.1244 14.3572 34.3921 14.1582 34.3921 13.9522C34.3921 13.9522 34.55 13.5884 34.3921 13.4855C34.3921 13.4855 34.4471 13.2864 34.1244 13.2864C34.1244 13.2864 33.6508 13.0873 33.0261 13.3413C33.0261 13.3413 31.9141 13.6365 31.7219 13.6914C31.7219 13.6914 31.0011 13.815 30.8089 13.7051C30.8089 13.7051 30.5961 13.6502 30.6853 13.5198C30.6853 13.5198 30.5618 12.7647 30.6579 12.5382C30.6579 12.5382 30.7265 12.1881 31.1933 12.2842L31.6601 12.3803C31.6601 12.3803 32.422 12.5656 32.5731 12.6068C32.5731 12.6068 32.4083 12.648 33.0536 12.6343C33.0536 12.6343 33.486 12.7029 33.74 12.8471C33.74 12.8471 34.1313 13.0324 34.5569 12.7784L34.9825 12.5244C34.9825 12.5244 35.1472 12.4421 35.1816 12.2842C35.1816 12.2842 35.3326 12.092 35.4081 12.0714C35.4081 12.0714 35.4905 11.3575 35.1404 11.1996C35.1404 11.1996 34.6324 10.9456 34.4265 10.7259C34.4265 10.7259 34.0489 10.5269 33.6714 10.3759C33.6714 10.3759 33.3213 10.2798 33.2046 10.1905C33.2046 10.1905 33.0398 10.0395 33.3007 10.0052C33.3007 10.0052 33.6096 9.9228 33.9048 9.80611C33.9048 9.80611 34.3853 9.51094 35.0855 9.76492L35.463 9.88848C35.463 9.88848 35.8817 9.98458 35.9229 10.6916C35.9229 10.6916 36.0396 12.4215 36.019 13.0667C36.019 13.0667 36.019 14.5289 35.7925 15.5105L35.7101 16.1145C35.7101 16.1145 35.4424 16.4784 35.4561 16.7049C35.4561 16.7049 35.3188 16.8765 34.7285 16.9177C34.7285 16.9177 33.1565 17.0275 32.3946 17.2678" fill="white"/>
<path d="M65.598 6.57979C65.6804 6.84751 65.7078 7.20446 65.6254 7.5065L65.1655 7.99387C64.3487 8.26159 63.5112 8.56362 62.6943 8.88625C62.0422 9.23634 61.2528 9.20888 60.5526 9.42854C59.468 9.59329 58.4589 9.91592 57.4018 10.1356C56.7222 10.266 55.9877 10.2111 55.5072 9.75804C55.2395 9.456 55.1022 8.99608 55.1777 8.59108C55.5278 8.28904 56.1319 8.50871 56.5575 8.39888C56.8595 8.26159 57.2096 8.39888 57.5322 8.34396C57.9098 8.02133 58.404 7.9115 58.8296 7.69184L60.5938 7.52709C61.4656 7.03971 62.4403 6.68276 63.2229 6.06496C64.0123 5.8247 65.0214 5.87275 65.5843 6.57979" fill="white"/>
<path d="M102.007 6.31896L102.144 6.48371L101.925 7.32117C102.144 7.53397 102.282 7.86347 102.062 8.10372C101.712 8.20669 101.444 8.45381 101.115 8.5911C100.792 8.70093 100.545 8.9961 100.222 9.07848C99.7899 9.34619 99.3025 9.3256 98.8151 9.18144C97.8678 9.47662 97.1402 8.77644 96.5361 8.15177C96.4537 7.93211 96.6734 7.74677 96.8381 7.69186C97.1608 7.58202 97.353 7.20448 97.6756 7.09465L98.5954 6.55236C99.1103 6.60727 99.4878 6.3121 99.9477 6.25718C100.25 6.28464 100.49 6.22973 100.73 6.11989C101.218 6.03752 101.52 6.41507 102.007 6.30523" fill="white"/>
<path d="M62.0902 12.0096C62.3099 12.3391 62.255 12.8265 62.6943 12.9912C63.3945 13.0461 63.9642 12.6068 64.4791 12.092C64.9184 11.8998 65.3509 11.5497 65.8932 11.6595C66.305 11.8174 66.8748 11.7968 67.0601 12.2842C67.3553 12.7716 66.9571 13.2315 66.6551 13.609C65.7833 14.1307 64.9184 14.5632 63.9986 14.9956C63.8064 15.1055 63.5661 15.2977 63.5112 15.5379C63.4014 16.2175 63.8887 16.7049 64.2457 17.1923C64.836 17.5698 65.3577 18.1945 65.8726 18.6819C66.1471 19.2516 66.7718 19.6566 66.9091 20.2538C67.5269 20.7961 68.1859 21.3933 68.8586 21.8807C69.5107 22.2582 70.1628 22.6701 70.7875 23.13L71.0552 23.1575L72.7919 24.2146C73.5264 24.3519 74.1442 24.9491 74.5836 25.5463C74.6042 25.7866 74.4737 25.9788 74.3364 26.171C74.0413 26.3289 73.7186 26.4456 73.3617 26.4662L71.6799 26.6309C71.0552 26.6584 70.4237 26.6858 69.8334 26.7133C69.1606 26.6035 68.3712 26.8506 67.774 26.4662L66.0373 25.0315C64.8429 23.3428 63.8956 21.5306 62.7286 19.8214C62.5158 19.1967 62.0216 18.5171 61.3763 18.2219C61.0812 18.119 60.8066 18.3043 60.6693 18.5789C60.4771 19.3134 60.4771 20.1234 60.3192 20.8854C59.722 22.1827 59.2072 23.5144 58.15 24.6265C57.745 25.1962 57.1684 25.4708 56.681 25.9033C56.0564 26.1229 55.4317 26.3632 54.7315 26.3357C53.9764 26.1504 52.9399 25.9582 52.8301 25.004C52.583 24.702 52.7477 24.2215 52.583 23.8645C52.7958 23.6243 52.8781 23.2124 53.2282 23.1094H53.8872C54.2098 23.1918 54.457 23.6243 54.807 23.4115C55.5072 22.7868 56.2486 22.0249 56.5712 21.1874C57.2027 20.5353 56.9831 19.4507 56.9213 18.6064C56.5987 18.119 56.1662 18.6887 55.7063 18.5789C54.7796 18.4416 53.8048 18.0641 53.393 17.1168C53.4479 16.3823 54.2922 16.8216 54.7521 16.6294C55.3699 16.5196 55.9671 16.3548 56.5438 16.0596C56.8664 15.7919 57.2783 15.7096 57.6283 15.4899C58.3903 15.3526 59.3101 14.9201 59.4474 14.0758C59.3376 13.2383 59.6602 12.6137 59.7426 11.8517C59.9897 11.3575 60.5595 11.4124 61.0194 11.3575C61.4587 11.4124 61.9667 11.5222 62.104 12.0096" fill="white"/>
<path d="M86.3012 9.59331C86.7954 9.72373 87.2828 9.85416 87.626 10.3209C87.5986 10.8358 87.3927 11.433 86.8778 11.6938C86.3287 11.8243 85.6285 11.9753 85.1411 11.6183C84.6469 11.4124 84.1595 11.0966 83.5554 11.179C82.8278 11.282 82.0246 11.3575 81.5579 12.0096C81.3519 12.6274 81.6059 13.3001 81.6334 13.9248C81.5304 14.3092 81.6059 14.776 81.6059 15.1398C81.6814 15.8125 81.7363 16.5676 81.8462 17.2403C81.8736 18.6407 81.6883 19.9861 81.8942 21.3109C81.7157 21.6473 81.9217 22.0111 81.9217 22.3475C81.9972 23.281 82.5189 24.1116 82.258 25.0933C82.0796 25.7934 82.1551 26.624 81.4274 27.0634C81.0156 27.3517 80.5213 27.6057 79.9241 27.4546C79.2789 27.4272 78.8395 26.8094 78.6061 26.2671L78.4483 25.3884C78.4963 24.8187 78.6611 24.2695 78.7366 23.6792C78.8601 21.915 79.2789 20.2538 79.2789 18.4141C79.4642 17.2678 79.4367 16.0528 79.5397 14.8858C79.5672 14.2131 79.6427 13.458 79.5397 12.8127C79.4093 12.6549 79.2514 12.5519 79.0729 12.5793C78.8395 12.7372 78.5512 12.7372 78.2972 12.8402C77.6726 13.2315 77.1234 13.6983 76.5056 13.9797C75.7505 14.4465 75.0504 15.0437 74.0893 14.8858C73.5951 14.9613 73.2656 14.6799 72.8743 14.57C72.3046 14.2886 71.7074 14.0552 71.1376 13.7188C70.6983 13.307 70.1834 12.9432 69.8951 12.4283C70.1011 12.1126 70.5404 12.0371 70.9317 11.9821L71.6799 11.8792C72.8469 12.1881 74.0413 11.6938 75.1876 11.5154C76.1143 11.3094 76.9243 10.8632 77.906 10.8152C78.867 10.5543 79.8555 10.3759 80.8645 10.1905C81.6128 9.77865 82.6287 9.92967 83.4044 9.57271C84.2831 8.92745 85.347 9.5178 86.3012 9.60017" fill="white"/>
<path d="M89.0539 17.4737C89.4108 17.8925 89.9119 18.2014 90.008 18.6956C89.905 19.3203 90.0561 20.0411 89.5961 20.4872L89.0195 20.8991C88.4223 20.8991 87.8251 20.8991 87.3103 20.6932L87.1524 20.6657C86.4797 20.1715 86.3767 19.4507 85.855 18.881C85.5942 18.3387 85.0793 17.7071 85.4431 17.0893C85.8825 16.547 86.6856 16.7804 87.2828 16.8559C87.9075 16.9589 88.5596 17.0344 89.047 17.4737" fill="white"/>
<path d="M112.592 24.8256C112.352 24.5579 112.05 24.4206 111.679 24.448C111.212 24.2558 110.807 23.8783 110.292 23.7959C109.51 23.3085 108.618 23.0683 107.753 22.7113C106.531 22.3063 105.398 21.764 104.341 20.954C103.771 20.6039 103.256 20.1166 102.694 19.7116C102.563 19.5193 102.316 19.3821 102.343 19.1418C102.618 18.167 102.755 17.1374 103.05 16.1901L103.407 14.7554C103.703 14.2955 103.51 13.6708 103.785 13.2178C103.758 12.6206 104.19 12.2156 104.163 11.6458C104.245 11.3506 104.54 11.1035 104.835 11.0486C105.082 10.8015 105.378 10.6161 105.734 10.6161C106.03 10.369 106.387 10.3141 106.627 9.99834C106.847 9.53842 105.927 9.53842 106.167 8.96867C106.139 8.83138 105.975 8.69409 105.844 8.69409C105.247 8.77647 104.705 8.91375 104.142 8.93435C103.922 9.04418 103.764 9.20893 103.545 9.23638C103.14 9.47664 102.817 9.88164 102.405 10.1013C101.781 11.2889 100.49 11.4536 99.6182 12.3254C99.1652 12.4833 98.7808 12.8128 98.3758 13.1079C97.0509 14.0278 95.7536 14.9751 94.3189 15.6547C93.804 15.8675 93.3441 16.2793 92.8018 16.4097C92.39 16.7118 92.0124 16.3274 91.6349 16.2244C91.2573 16.3617 91.5525 16.7392 91.4427 17.0344C91.6074 17.2472 91.6349 17.5492 91.8202 17.762C92.6028 18.5995 93.5226 19.5262 94.717 19.0869C95.0397 18.7643 95.4515 18.6544 95.7742 18.3249C96.1242 18.1945 96.3439 17.7003 96.7489 17.7346C97.3736 18.2769 98.1081 18.7368 98.6435 19.437C98.8632 19.7596 98.6435 20.1371 98.5062 20.4392C97.504 21.4689 96.3714 22.3338 95.1495 22.9035L94.0924 23.1438C93.6599 23.1987 93.1451 23.336 92.7675 23.0683C92.3831 22.931 92.2801 22.4985 92.3351 22.121H92.2527C92.0879 22.2857 92.0399 22.5809 92.0879 22.8486C92.0056 23.1438 91.6006 23.2262 91.5182 23.5007C91.7928 23.638 91.8683 23.9607 92.1154 24.1254C92.6302 24.3382 92.9254 24.8805 93.1725 25.3404C93.605 25.6905 94.1473 25.9102 94.717 25.8003C95.2044 25.8827 95.6643 25.6905 96.1517 25.6356C96.742 25.4502 97.2637 25.0933 97.8541 24.8805C98.9936 24.3931 99.7487 23.2536 100.771 22.4162L100.957 22.3887C101.664 22.6839 102.069 23.5007 102.639 24.043C103.366 24.853 104.046 25.9102 105.103 26.2328C105.645 26.5829 106.325 26.3975 106.943 26.3975C107.375 26.3426 107.76 26.1504 108.213 26.2328C108.645 26.0406 109.16 26.0131 109.702 26.0406C110.114 25.9033 110.457 25.663 110.951 25.7454C111.432 25.615 112.118 25.7454 112.571 25.4228C112.626 25.2306 112.729 24.9903 112.592 24.8256ZM100.984 14.3847C100.95 15.0094 100.655 15.5174 100.545 16.1146C100.277 16.4921 100.14 16.9246 100.085 17.3845C100.003 17.5492 99.8448 17.5973 99.7075 17.5698C99.0897 17.3502 98.5199 16.9726 97.9502 16.6225C97.7854 16.4853 97.4903 16.2999 97.655 16.0253C98.4925 15.1055 99.4398 14.2406 100.305 13.3482C100.607 13.0256 100.95 12.8334 101.279 12.6206L101.417 12.751C101.279 13.2933 101.307 13.9179 100.984 14.3779" fill="white"/>
<path d="M129.156 9.92968C129.417 10.2454 129.836 10.2729 130.021 10.6642C130.227 11.1653 130.755 11.5566 130.625 12.1881C130.467 12.5107 130.44 12.902 130.042 13.0599C129.726 13.6639 129.28 14.2886 128.655 14.6662C128.442 15.0574 128.154 15.5036 127.735 15.7439C127.056 16.952 125.758 17.6316 124.708 18.421C124.337 18.7093 123.63 18.9427 123.761 19.5742C123.706 20.3087 123.575 21.0432 123.548 21.8052C123.575 22.5671 123.465 23.4595 124.207 23.9881C125.387 24.9903 127.124 24.3313 128.435 24.043C129.678 23.2536 131.408 22.2788 131.696 20.7069C131.613 20.3362 131.984 20.1783 132.115 19.9175C132.218 19.2653 132.3 18.5789 132.533 17.9954C132.849 18.1327 132.609 18.5514 132.767 18.7574C132.877 19.1555 132.925 19.5468 133.11 19.9106C133.137 20.2813 133.213 20.652 133.343 20.9883C133.474 21.3796 133.501 21.8532 133.79 22.1965C133.769 22.5122 134.085 22.6907 134.188 22.9378C134.085 23.1438 134.112 23.3566 134.112 23.5694L133.844 24.146C133.453 24.4343 133.055 24.6951 132.588 24.7775C131.957 25.0933 131.277 25.2786 130.639 25.5669C130.22 25.7454 129.746 25.7248 129.348 25.9307C128.827 25.9857 128.353 26.0406 127.845 26.0886C127.509 26.1161 127.138 26.0131 126.829 26.0886C125.353 26.0886 123.932 25.8758 122.751 25.0864C122.127 24.6677 122.017 24.0018 121.804 23.3977C121.804 22.9516 121.701 22.5054 121.619 22.0866C121.591 21.3453 121.701 20.5902 121.482 19.8763C121.221 19.4301 120.672 19.6429 120.273 19.4575C120.013 19.1143 119.429 19.1692 119.402 18.7231C119.69 18.5652 119.958 18.826 120.273 18.7505C120.617 18.5652 121.186 18.8535 121.406 18.3592C121.564 17.8856 121.427 17.4119 121.379 16.9383L121.427 15.4899C121.166 15.1741 121.536 14.8858 121.475 14.5426C121.324 13.7051 121.612 12.8059 121.475 11.941C121.399 11.2271 121.454 10.3896 120.72 10.0738C120.534 10.0464 120.294 9.99146 120.218 9.78552C120.273 9.57272 120.534 9.49721 120.72 9.42171C121.008 9.6345 121.454 9.31874 121.639 9.68255C121.749 10.4171 122.642 10.0738 122.854 10.7603C123.431 11.8655 123.692 13.1011 123.589 14.4671C123.589 14.8652 123.589 15.3595 123.671 15.7576C123.774 15.9429 124.008 15.9429 124.166 15.888C125.216 15.1535 125.744 14.1033 126.616 13.2315C126.98 12.8333 127.351 12.4695 127.481 12.0165C127.9 11.5977 127.975 11.0211 127.9 10.472C127.639 10.2592 127.378 9.99146 127.083 9.88849C126.98 9.80611 126.98 9.68255 127.055 9.60018C127.481 9.15399 128.161 9.55213 128.662 9.25696C129.005 9.28442 128.978 9.68255 129.135 9.91595" fill="white"/>
<path d="M117.528 11.4742L117.583 11.8723C118.084 12.394 118.605 12.902 118.976 13.5061C119.347 14.0896 118.447 14.2955 118.269 14.7417C117.432 15.9773 116.189 17.0001 115.242 18.1327C115.194 18.6544 115.688 18.9496 115.64 19.4713C116.162 19.9655 116.326 20.6314 116.587 21.2355C116.711 22.1073 117.081 23.0477 116.773 23.9469C116.924 24.3451 116.67 24.7089 116.587 25.1002C116.271 25.313 116.271 25.8896 115.77 25.7866C115.111 25.9376 114.981 25.1825 114.72 24.8119C114.748 24.503 114.356 24.3931 114.246 24.1323C114.089 23.2879 114.432 22.423 114.349 21.5581C114.322 21.0845 114.425 20.6108 114.294 20.1372C114.322 19.8488 114.294 19.5605 114.109 19.3477C113.979 19.1899 113.738 19.1899 113.581 19.2448C112.949 19.588 112.318 19.9793 111.796 20.5078L110.897 20.7687L110.162 20.398C110.162 20.1372 110.512 20.2401 110.636 20.0548C111.295 19.5811 111.878 18.9496 112.455 18.3455C113.635 16.6912 114.926 15.0918 115.997 13.4031C116.127 12.9089 116.766 12.4833 116.422 11.9067C116.498 11.4605 115.709 11.2202 116.031 10.8221C116.587 10.877 117.212 10.9045 117.528 11.4811" fill="white"/>
</svg>
