<?xml version="1.0" encoding="UTF-8"?>
<svg id="Layer_2" data-name="Layer 2" xmlns="http://www.w3.org/2000/svg" viewBox="0 0 110.28 91.01">
  <defs>
    <style>
      .cls-1 {
        fill: #000;
      }

      .cls-1, .cls-2 {
        stroke-width: 0px;
      }

      .cls-2 {
        fill: #fff;
      }
    </style>
  </defs>
  <g id="_底" data-name="底">
    <g>
      <path class="cls-2" d="M42.33,16.81c-3.64-.42-7.06-.73-10.23-.94-3.17-.21-5.99-.31-8.43-.31-4.06,0-6.68.72-7.85,2.16-1.17,1.44-2.88,6.07-5.11,13.91,10.93.97,19.26,3.55,24.99,7.72,5.73,4.17,8.59,9.71,8.59,16.62,0,6.07-2.11,11.72-6.33,16.93-4.22,5.21-10.15,9.49-17.8,12.83-3.49,1.53-7.17,2.79-11.05,3.79-3.88,1-6.6,1.49-8.16,1.49-.31,0-.55-.19-.7-.56-.16-.37-.24-.9-.24-1.6,0-.32,1.82-.89,5.47-1.71,3.64-.81,6.98-1.84,10-3.09,5.88-2.41,10.55-5.91,14.02-10.5,3.46-4.59,5.19-9.55,5.19-14.88,0-5.89-1.99-10.39-5.97-13.52-3.98-3.13-9.78-4.69-17.38-4.69-.36,0-1.07.03-2.11.1-1.04.07-2.42.18-4.14.31l-1.09-.97c.73-1.9,2.32-6.56,4.76-13.97,2.45-7.42,4.89-13.35,7.34-17.8h8.04c2.66,0,5.52.09,8.59.28,3.07.19,4.79.28,5.15.28,3.18,0,5.49-.94,6.95-2.82,1.46-1.88,2.45-2.82,2.97-2.82.42,0,.87.12,1.37.35.49.23.74.49.74.77,0,.14-.91,1.53-2.73,4.17-1.82,2.64-3.44,5.47-4.84,8.48Z"/>
      <path class="cls-2" d="M102.52,11.48v8.21h-3.27v-8.21h-7.77v-3.27h7.77V0h3.27v8.21h7.77v3.27h-7.77Z"/>
      <g>
        <path class="cls-1" d="M60.92,31.74c-.87-.56-2.25-.85-4.12-.85h-3.79l-3.09,13.44c.97.09,2.21-.62,3.06-1.87.4-.58.65-1.2.77-1.78h.01l1.87-8.12h.69c.9,0,1.55.09,1.93.27.73.35,1.09.96,1.09,1.84s-.34,1.61-1.04,2.13c-.69.53-1.61.78-2.77.77l-.36,1.56c.14.01.31.02.5.02,1.89,0,3.52-.45,4.9-1.36,1.25-.82,1.88-1.91,1.88-3.28,0-1.18-.52-2.1-1.55-2.77Z"/>
        <path class="cls-1" d="M86.45,31.18c-1.35,0-2.48.9-2.76,2.11l-1.12,4.93c-.24,1.11-.57,1.99-.96,2.64-.66,1.1-1.71,1.64-3.16,1.64-.75,0-1.34-.18-1.79-.55-.44-.36-.66-.85-.66-1.47,0-.48.13-1.29.39-2.42l1.58-6.9h-2.89l-1.53,6.71c-.32,1.4-.48,2.41-.48,3.03,0,1.06.44,1.9,1.33,2.5.88.61,2.1.92,3.64.92,2.05,0,3.7-.56,4.95-1.68.55-.49.97-1.03,1.26-1.62.29-.59.57-1.48.85-2.67l1.67-7.17c-.1-.01-.2-.02-.31-.02Z"/>
        <path class="cls-1" d="M68.78,42.53h-.45c-.08,0-.25,0-.25,0h-2.11l2.59-11.35h-2.89l-2.98,12.94h8.57c-.22-.86-1.24-1.52-2.49-1.59Z"/>
        <path class="cls-1" d="M92.16,33.02c.42-.31.98-.47,1.68-.47.63,0,1.31.2,2.06.61l1.24-1.22c-1.07-.65-2.27-.98-3.6-.98-1.45,0-2.65.31-3.6.94-.95.63-1.42,1.43-1.42,2.4,0,.85.51,1.79,1.54,2.83,1.02,1.04,1.54,1.56,1.56,1.57.69.76,1.03,1.45,1.03,2.05,0,.57-.24,1.04-.73,1.4-.49.37-1.11.55-1.86.55-.87,0-1.83-.33-2.86-1l-1.17,1.39c1.13.83,2.53,1.24,4.22,1.24s2.91-.34,3.92-1.03c1.01-.69,1.51-1.6,1.51-2.72,0-.94-.52-1.9-1.56-2.88-.75-.74-1.19-1.19-1.33-1.35-.84-.95-1.26-1.65-1.26-2.11,0-.51.21-.92.63-1.23Z"/>
      </g>
      <path class="cls-2" d="M73.54,7.75c-16.49,0-29.87,13.37-29.87,29.87s13.37,29.87,29.87,29.87,29.87-13.37,29.87-29.87-13.37-29.87-29.87-29.87ZM58.26,32.84c-.38-.18-1.02-.27-1.93-.27h-.69l-1.87,8.12h-.01c-.12.58-.37,1.2-.77,1.78-.85,1.25-2.08,1.96-3.06,1.87l3.09-13.44h3.79c1.87,0,3.25.28,4.12.85,1.03.67,1.55,1.59,1.55,2.77,0,1.37-.63,2.47-1.88,3.28-1.38.91-3.02,1.36-4.9,1.36-.19,0-.36,0-.5-.02l.36-1.56c1.16.01,2.08-.24,2.77-.77.69-.52,1.04-1.24,1.04-2.13s-.36-1.5-1.09-1.84ZM62.7,44.12l2.98-12.94h2.89l-2.59,11.35h2.11s.16,0,.25,0h.45c1.26.07,2.28.73,2.49,1.59h-8.57ZM75.07,31.18h2.89l-1.58,6.9c-.26,1.13-.39,1.94-.39,2.42,0,.62.22,1.11.66,1.47.44.36,1.04.55,1.79.55,1.45,0,2.51-.55,3.16-1.64.4-.65.72-1.53.96-2.64l1.12-4.93c.28-1.21,1.41-2.11,2.76-2.11.1,0,.2,0,.31.02l-1.67,7.17c-.28,1.2-.56,2.09-.85,2.67-.29.59-.71,1.12-1.26,1.62-1.25,1.12-2.9,1.68-4.95,1.68-1.54,0-2.76-.31-3.64-.92-.89-.61-1.33-1.44-1.33-2.5,0-.62.16-1.63.48-3.03l1.53-6.71ZM86.03,43.1l1.17-1.39c1.04.67,1.99,1,2.86,1,.75,0,1.37-.18,1.86-.55.49-.37.73-.84.73-1.4,0-.6-.34-1.29-1.03-2.05-.02-.01-.54-.54-1.56-1.57-1.02-1.03-1.54-1.98-1.54-2.83,0-.97.47-1.77,1.42-2.4.95-.63,2.15-.94,3.6-.94,1.33,0,2.53.33,3.6.98l-1.24,1.22c-.75-.41-1.44-.61-2.06-.61-.7,0-1.26.16-1.68.47-.42.31-.63.72-.63,1.23,0,.46.42,1.16,1.26,2.11.14.16.58.61,1.33,1.35,1.04.99,1.56,1.95,1.56,2.88,0,1.12-.5,2.03-1.51,2.72-1.01.69-2.31,1.03-3.92,1.03s-3.09-.41-4.22-1.24Z"/>
    </g>
  </g>
</svg>