<?xml version="1.0" encoding="UTF-8"?>
<svg id="Layer_2" data-name="Layer 2" xmlns="http://www.w3.org/2000/svg" viewBox="0 0 352.8 53.45">
  <defs>
    <style>
      .cls-1 {
        fill: #231815;
      }

      .cls-1, .cls-2 {
        stroke-width: 0px;
      }

      .cls-2 {
        fill: #fff;
      }
    </style>
  </defs>
  <g id="NO.1">
    <g>
      <g>
        <path class="cls-1" d="M100.54,19.26h-1.51c-.28-1.06-.87-2.19-1.76-3.39-.89-1.21-1.74-1.87-2.56-1.99-.41-.05-.91-.09-1.48-.12-.57-.03-1.22-.04-1.94-.04h-4.78v11.45h3.28c.99,0,1.77-.11,2.32-.31.55-.21,1.02-.52,1.41-.95.27-.3.51-.75.74-1.38.22-.62.37-1.29.43-2h1.51v11.21h-1.51c-.04-.59-.18-1.26-.41-2.01-.23-.75-.49-1.29-.75-1.63-.4-.5-.91-.83-1.52-1.01-.61-.18-1.35-.27-2.21-.27h-3.28v9.8c0,.44.09.84.26,1.19.17.35.48.63.93.84.2.09.64.21,1.3.34.67.13,1.18.21,1.53.22v1.43h-12.35v-1.43c.4-.02.94-.07,1.61-.13.67-.06,1.1-.14,1.31-.23.4-.17.69-.43.87-.78.18-.34.27-.75.27-1.23v-20.56c0-.44-.08-.83-.22-1.17-.15-.34-.46-.62-.92-.83-.36-.17-.85-.33-1.46-.46-.61-.13-1.09-.21-1.45-.24v-1.42h22.35v7.13Z"/>
        <path class="cls-1" d="M120.83,40.63h-12.83v-1.43c.36-.02.89-.06,1.57-.12.68-.05,1.16-.13,1.44-.24.44-.17.76-.41.97-.71.2-.3.3-.72.3-1.26v-20.65c0-.47-.08-.86-.22-1.17-.15-.32-.5-.58-1.05-.79-.4-.16-.91-.31-1.52-.45-.61-.14-1.11-.22-1.49-.25v-1.42h12.83v1.42c-.42.02-.91.07-1.49.15-.58.09-1.08.2-1.51.33-.51.16-.85.42-1.02.78-.17.36-.26.76-.26,1.21v20.63c0,.44.09.83.29,1.17.19.34.52.61.99.81.28.11.74.22,1.38.35.64.13,1.17.2,1.62.21v1.43Z"/>
        <path class="cls-1" d="M151.86,19.26h-1.51c-.28-1.06-.87-2.19-1.76-3.39-.89-1.21-1.75-1.87-2.56-1.99-.42-.05-.91-.09-1.48-.12-.57-.03-1.21-.04-1.94-.04h-4.77v11.45h3.28c1,0,1.76-.11,2.32-.31.55-.21,1.02-.52,1.41-.95.27-.3.51-.75.74-1.38.22-.62.37-1.29.43-2h1.5v11.21h-1.5c-.04-.59-.18-1.26-.41-2.01-.24-.75-.49-1.29-.76-1.63-.4-.5-.91-.83-1.52-1.01-.61-.18-1.35-.27-2.21-.27h-3.28v9.8c0,.44.09.84.26,1.19.17.35.48.63.92.84.2.09.63.21,1.3.34.67.13,1.18.21,1.53.22v1.43h-12.35v-1.43c.4-.02.94-.07,1.61-.13.67-.06,1.1-.14,1.3-.23.4-.17.7-.43.87-.78.18-.34.27-.75.27-1.23v-20.56c0-.44-.07-.83-.22-1.17-.15-.34-.45-.62-.92-.83-.36-.17-.85-.33-1.45-.46-.61-.13-1.09-.21-1.46-.24v-1.42h22.35v7.13Z"/>
        <path class="cls-1" d="M182.87,19.86h-1.38c-.12-.48-.34-1.06-.66-1.72-.32-.66-.67-1.29-1.06-1.88-.4-.61-.84-1.16-1.32-1.62-.48-.46-.93-.73-1.38-.8-.42-.05-.94-.09-1.57-.12-.63-.03-1.21-.04-1.75-.04h-1.17v22.79c0,.44.1.85.28,1.22.19.37.51.65.98.85.24.09.75.22,1.52.38.77.16,1.37.25,1.8.26v1.43h-13.45v-1.43c.37-.02.94-.08,1.71-.16.77-.08,1.3-.18,1.6-.31.44-.17.77-.42.97-.75.21-.33.31-.77.31-1.32V13.7h-1.16c-.42,0-.93.01-1.55.03-.61.02-1.2.07-1.76.13-.44.06-.9.32-1.38.8-.47.47-.91,1.01-1.32,1.62-.4.6-.76,1.24-1.06,1.92-.31.68-.53,1.23-.64,1.68h-1.41v-7.73h24.84v7.73Z"/>
        <path class="cls-1" d="M214.91,13.56c-.23.02-.59.11-1.08.27-.5.17-.85.33-1.06.49-.52.32-.88.57-1.07.75-.19.17-.55.63-1.08,1.36-1.04,1.47-2.01,2.97-2.89,4.48-.88,1.51-1.99,3.43-3.31,5.76-.5.86-.83,1.55-.99,2.07-.16.52-.24,1.28-.24,2.27v5.44c0,.48.1.9.29,1.26.19.35.53.64.99.85.28.11.78.24,1.51.39.72.15,1.3.24,1.74.25v1.43h-13.33v-1.43c.38-.02.94-.08,1.69-.15.75-.08,1.27-.17,1.57-.29.48-.2.81-.47.99-.83.18-.35.27-.77.27-1.28v-6.93c0-.21-.13-.6-.39-1.17-.26-.57-.57-1.2-.93-1.9-.8-1.55-1.69-3.24-2.67-5.04-.98-1.81-1.83-3.36-2.55-4.64-.44-.76-.83-1.34-1.18-1.73-.34-.39-.73-.73-1.17-1.02-.32-.2-.71-.35-1.16-.46-.45-.11-.85-.17-1.22-.2v-1.42h12.16v1.42c-1.36.03-2.33.12-2.89.28-.56.16-.84.39-.84.68,0,.08.04.22.12.42.08.2.19.46.34.76.17.35.38.75.62,1.19.24.45.47.88.68,1.3.63,1.19,1.27,2.38,1.92,3.56.65,1.19,1.51,2.73,2.56,4.63,2.1-3.39,3.7-6.03,4.81-7.92,1.1-1.89,1.66-3.03,1.66-3.4,0-.31-.12-.56-.34-.74-.23-.19-.53-.34-.9-.44-.39-.11-.81-.18-1.26-.21-.46-.04-.88-.07-1.27-.11v-1.42h9.91v1.42Z"/>
        <path class="cls-1" d="M258.14,19.16c0,1.49-.29,2.8-.87,3.95-.58,1.14-1.39,2.09-2.42,2.84-1.02.75-2.14,1.3-3.35,1.65-1.22.35-2.51.52-3.88.52h-3.19v8.64c0,.47.07.88.23,1.24.15.35.47.62.96.81.24.09.66.18,1.27.26.61.08,1.17.13,1.68.14v1.43h-12.23v-1.43c.32-.02.79-.07,1.4-.14.61-.07,1.04-.16,1.27-.26.4-.17.7-.43.87-.76.18-.34.27-.76.27-1.29v-20.56c0-.47-.07-.89-.2-1.26-.14-.38-.45-.66-.94-.84-.51-.17-1.01-.3-1.51-.37-.5-.08-.94-.13-1.3-.15v-1.42h13.01c2.65,0,4.8.64,6.46,1.92,1.65,1.28,2.48,2.98,2.48,5.11ZM252.03,24.02c.46-.65.76-1.31.9-2,.15-.69.22-1.31.22-1.86,0-.76-.09-1.54-.27-2.33-.18-.79-.5-1.48-.94-2.07-.47-.63-1.08-1.12-1.85-1.46-.76-.35-1.71-.52-2.85-.52h-2.83v12.59h2.05c1.45,0,2.62-.22,3.52-.67.9-.45,1.59-1.01,2.04-1.68Z"/>
        <path class="cls-1" d="M289.63,32.16l-.6,8.47h-22.27v-1.43c.32-.02.78-.07,1.4-.14.61-.07,1.03-.16,1.27-.26.4-.17.69-.43.87-.76.18-.34.27-.76.27-1.29v-20.4c0-.45-.08-.86-.23-1.2-.15-.35-.46-.63-.91-.84-.31-.16-.74-.32-1.3-.47-.55-.16-1.01-.25-1.37-.27v-1.42h12.03v1.42c-.38.02-.86.08-1.45.2-.6.12-1.03.23-1.3.32-.46.16-.77.43-.93.82-.17.39-.25.8-.25,1.25v19.14c0,.89.05,1.57.13,2.06.09.49.29.87.61,1.13.31.24.77.4,1.37.47.61.07,1.46.11,2.56.11.49,0,1.01-.01,1.54-.04.54-.03,1.05-.08,1.53-.16.47-.08.9-.19,1.3-.33.39-.14.68-.32.87-.53.55-.62,1.19-1.55,1.92-2.8.73-1.25,1.23-2.27,1.52-3.04h1.42Z"/>
        <path class="cls-1" d="M325.71,13.56c-.38.02-.93.1-1.65.24-.72.15-1.31.37-1.76.67-.46.31-.77.94-.95,1.91-.17.96-.26,2.14-.26,3.53v12.39c0,1.58-.33,2.95-.98,4.12-.66,1.17-1.52,2.12-2.59,2.87-1.06.72-2.17,1.24-3.34,1.56-1.17.31-2.3.47-3.36.47-1.71,0-3.24-.22-4.58-.67-1.34-.45-2.46-1.05-3.38-1.82-.89-.76-1.57-1.63-2.03-2.62-.46-.98-.68-2.01-.68-3.08v-16.85c0-.47-.08-.86-.23-1.17-.16-.31-.47-.61-.94-.87-.33-.19-.76-.34-1.29-.45-.52-.11-.95-.18-1.28-.21v-1.42h11.87v1.42c-.38.02-.85.07-1.42.18-.57.11-.99.2-1.26.3-.45.16-.76.43-.91.8-.16.38-.23.79-.23,1.23v15.73c0,.76.08,1.56.25,2.4.17.84.5,1.62,1,2.34.52.74,1.23,1.34,2.13,1.81.9.47,2.13.71,3.69.71,1.47,0,2.71-.24,3.71-.71,1-.47,1.78-1.08,2.36-1.85.55-.72.94-1.48,1.16-2.27.23-.79.34-1.59.34-2.39v-11.68c0-1.49-.11-2.7-.32-3.64-.22-.95-.53-1.56-.95-1.86-.47-.34-1.11-.6-1.92-.78-.81-.19-1.43-.3-1.86-.32v-1.42h11.65v1.42Z"/>
        <path class="cls-1" d="M351.04,27.56c.6.67,1.04,1.4,1.33,2.2.29.8.43,1.73.43,2.78,0,2.51-.93,4.59-2.79,6.23-1.86,1.63-4.17,2.45-6.93,2.45-1.27,0-2.54-.2-3.81-.59-1.27-.4-2.37-.87-3.29-1.44l-.87,1.46h-1.6l-.28-9.76h1.62c.34,1.2.73,2.29,1.18,3.26.45.97,1.04,1.88,1.78,2.72.7.79,1.51,1.42,2.44,1.89.93.47,2.01.7,3.24.7.92,0,1.73-.12,2.42-.36.69-.24,1.25-.58,1.68-1.03.43-.44.75-.96.96-1.56.21-.6.31-1.29.31-2.06,0-1.14-.32-2.2-.97-3.19-.64-.99-1.6-1.73-2.87-2.24-.87-.35-1.87-.73-2.99-1.15-1.13-.42-2.1-.81-2.91-1.19-1.61-.72-2.86-1.67-3.75-2.84-.89-1.17-1.33-2.7-1.33-4.59,0-1.08.22-2.1.66-3.03.44-.94,1.07-1.78,1.89-2.51.77-.7,1.69-1.24,2.75-1.64,1.06-.4,2.16-.59,3.31-.59,1.31,0,2.49.2,3.53.61,1.04.4,1.98.87,2.84,1.4l.82-1.36h1.61l.16,9.46h-1.63c-.3-1.09-.63-2.12-1-3.11-.37-.99-.85-1.89-1.44-2.69-.57-.78-1.28-1.4-2.11-1.86-.83-.46-1.85-.69-3.05-.69-1.27,0-2.36.41-3.25,1.23-.9.81-1.34,1.81-1.34,2.99s.29,2.26.86,3.06c.58.81,1.41,1.48,2.51,2,.98.47,1.94.87,2.88,1.22.94.34,1.86.7,2.74,1.09.8.35,1.58.74,2.32,1.19.74.44,1.39.96,1.94,1.55Z"/>
      </g>
      <g>
        <g>
          <path class="cls-1" d="M24.86,9.87c-2.14-.25-4.14-.43-6.01-.55-1.86-.12-3.52-.18-4.95-.18-2.39,0-3.92.42-4.61,1.27-.69.84-1.69,3.57-3,8.17,6.42.57,11.31,2.08,14.68,4.53,3.36,2.45,5.05,5.7,5.05,9.76,0,3.57-1.24,6.88-3.72,9.95-2.48,3.06-5.96,5.57-10.46,7.53-2.05.9-4.21,1.64-6.49,2.23-2.28.59-3.88.88-4.79.88-.18,0-.32-.11-.41-.33-.09-.22-.14-.53-.14-.94,0-.19,1.07-.53,3.21-1,2.14-.48,4.1-1.08,5.87-1.82,3.45-1.42,6.2-3.47,8.23-6.17,2.03-2.7,3.05-5.61,3.05-8.74,0-3.46-1.17-6.1-3.51-7.94-2.34-1.84-5.74-2.76-10.2-2.76-.21,0-.63.02-1.24.06-.61.04-1.42.1-2.43.18l-.64-.57c.43-1.12,1.36-3.85,2.8-8.21,1.44-4.36,2.87-7.84,4.31-10.46h4.72c1.56,0,3.24.05,5.04.16,1.8.11,2.81.17,3.03.17,1.87,0,3.23-.55,4.08-1.65.86-1.1,1.44-1.65,1.74-1.65.24,0,.51.07.8.2.29.14.43.29.43.45,0,.08-.53.9-1.6,2.45-1.07,1.55-2.02,3.21-2.84,4.98Z"/>
          <path class="cls-1" d="M60.21,6.74v4.82h-1.92v-4.82h-4.56v-1.92h4.56V0h1.92v4.82h4.56v1.92h-4.56Z"/>
          <path class="cls-1" d="M43.19,4.55c-9.69,0-17.54,7.85-17.54,17.54s7.85,17.54,17.54,17.54,17.54-7.85,17.54-17.54-7.85-17.54-17.54-17.54Z"/>
        </g>
        <g>
          <path class="cls-2" d="M57.05,18.76l-.73.72c-.44-.24-.84-.36-1.21-.36-.41,0-.74.09-.99.28-.25.18-.37.43-.37.72,0,.27.25.68.74,1.24.08.09.34.36.78.79.61.58.91,1.14.91,1.69,0,.66-.3,1.19-.89,1.6-.59.41-1.36.61-2.3.61s-1.81-.24-2.48-.73l.69-.81c.61.39,1.17.59,1.68.59.44,0,.8-.11,1.09-.32.29-.22.43-.49.43-.83,0-.35-.2-.76-.61-1.2,0,0-.31-.31-.91-.92-.6-.61-.9-1.16-.9-1.66,0-.57.28-1.04.83-1.41.56-.37,1.26-.55,2.11-.55.78,0,1.48.19,2.11.58Z"/>
          <path class="cls-2" d="M35.78,18.64c-.51-.33-1.32-.5-2.42-.5h-2.22l-1.82,7.89c.57.06,1.3-.36,1.79-1.09.23-.34.38-.7.45-1.04h0l1.1-4.77h.41c.53,0,.91.05,1.13.16.43.2.64.56.64,1.08s-.2.94-.61,1.25c-.41.31-.95.46-1.63.45l-.21.91c.08,0,.18.01.29.01,1.11,0,2.07-.27,2.88-.8.74-.48,1.1-1.12,1.1-1.93,0-.69-.3-1.23-.91-1.62Z"/>
          <path class="cls-2" d="M40.39,24.98h-.26s-.14,0-.14,0h-1.24l1.52-6.67h-1.7l-1.75,7.6h5.03c-.13-.51-.73-.89-1.46-.93Z"/>
          <path class="cls-2" d="M50.77,18.31c-.79,0-1.46.53-1.62,1.24l-.66,2.9c-.14.65-.33,1.17-.57,1.55-.39.64-1,.97-1.86.97-.44,0-.79-.11-1.05-.32-.26-.21-.39-.5-.39-.86,0-.28.08-.76.23-1.42l.93-4.05h-1.7l-.9,3.94c-.19.83-.28,1.42-.28,1.78,0,.62.26,1.11.78,1.47.52.36,1.23.54,2.14.54,1.2,0,2.17-.33,2.91-.99.32-.29.57-.61.74-.95.17-.34.34-.87.5-1.57l.98-4.21c-.06,0-.12-.01-.18-.01Z"/>
        </g>
      </g>
    </g>
  </g>
</svg>