<svg width="140" height="140" viewBox="0 0 140 140" fill="none" xmlns="http://www.w3.org/2000/svg">
<path d="M69.23 68.16C99.7 143.6 69.19 157.25 69.97 67.83C69.18 157.25 38.91 143.07 70.71 68.18C38.91 143.07 7.69 131.14 71.47 68.47C7.68 131.14 -3.69 99.71 71.75 69.24C-3.69 99.71 -17.34 69.2 72.08 69.98C-17.34 69.19 -3.16 38.92 71.73 70.72C-3.16 38.92 8.77 7.70001 71.44 71.48C8.77 7.69001 40.2 -3.67999 70.67 71.76C40.2 -3.67999 70.71 -17.33 69.93 72.09C70.72 -17.33 100.99 -3.14999 69.19 71.74C100.99 -3.14999 132.21 8.78001 68.43 71.45C132.22 8.78001 143.59 40.21 68.15 70.68C143.59 40.21 157.24 70.72 67.82 69.94C157.24 70.73 143.06 101 68.17 69.2C143.06 101 131.13 132.22 68.46 68.44C131.13 132.23 99.7 143.6 69.23 68.16Z" fill="#F8E800"/>
</svg>
