<svg width="140" height="140" viewBox="0 0 140 140" fill="none" xmlns="http://www.w3.org/2000/svg">
<path d="M132.74 70.37C132.74 74.65 103.57 75.04 102.52 78.99C101.43 83.08 126.46 97.99 124.39 101.57C122.32 105.15 96.85 90.95 93.9 93.9C90.96 96.84 105.2 122.29 101.57 124.39C97.94 126.49 83.08 101.43 78.99 102.52C75.04 103.58 74.65 132.74 70.37 132.74C66.09 132.74 65.7 103.57 61.75 102.52C57.66 101.43 42.75 126.46 39.17 124.39C35.59 122.32 49.79 96.85 46.84 93.9C43.9 90.96 18.45 105.2 16.35 101.57C14.28 97.99 39.31 83.08 38.22 78.99C37.16 75.04 8 74.65 8 70.37C8 66.09 37.17 65.7 38.22 61.75C39.31 57.66 14.28 42.75 16.35 39.17C18.45 35.54 43.89 49.79 46.84 46.84C49.78 43.9 35.54 18.45 39.17 16.35C42.75 14.28 57.66 39.31 61.75 38.22C65.7 37.16 66.09 8 70.37 8C74.65 8 75.04 37.17 78.99 38.22C83.08 39.31 97.99 14.28 101.57 16.35C105.2 18.45 90.95 43.89 93.9 46.84C96.84 49.78 122.29 35.54 124.39 39.17C126.46 42.75 101.43 57.66 102.52 61.75C103.58 65.7 132.74 66.09 132.74 70.37Z" fill="#F8E800"/>
</svg>
